<svg xmlns="http://www.w3.org/2000/svg" xmlns:xlink="http://www.w3.org/1999/xlink" width="200" height="100" viewBox="0 0 150 75"><clipPath id="a"><path transform="scale(.24)" d="M0 0h625v343.75H0z" fill-rule="evenodd"/></clipPath><g clip-path="url(#a)"><path d="M0 0h150v82.5H0z" fill="transparent"/></g><clipPath id="b"><path transform="scale(.24)" d="M0 0h625v312.5H0z" fill-rule="evenodd"/></clipPath><g clip-path="url(#b)"><path d="M0 0h150v75H0z" fill="transparent"/></g><clipPath id="c"><path transform="scale(.24)" d="M0 0h625v312.5H0z" fill-rule="evenodd"/></clipPath><g clip-path="url(#c)"><path d="M0 0h150v75H0z" fill="transparent"/></g><clipPath id="d"><path transform="scale(.24)" d="M0 0h625v312.5H0z" fill-rule="evenodd"/></clipPath><g clip-path="url(#d)"><symbol id="e"><path d="M.171.7a.057.057 0 0 0-.04.016.055.055 0 0 0-.017.04c0 .016.006.029.017.04a.055.055 0 0 0 .04.017.055.055 0 0 0 .04-.017.055.055 0 0 0 .017-.04c0-.01-.003-.02-.009-.029A.055.055 0 0 0 .2.707.054.054 0 0 0 .17.7m.116 0a.054.054 0 0 0-.04.017.054.054 0 0 0-.016.04c0 .014.005.027.016.039a.054.054 0 0 0 .04.017.055.055 0 0 0 .04-.017.055.055 0 0 0 .016-.04.055.055 0 0 0-.03-.049A.054.054 0 0 0 .288.7M.229 0v.226a.223.223 0 0 0-.161.066.224.224 0 0 0-.05.25.23.23 0 0 0 .3.123A.224.224 0 0 0 .44.542.219.219 0 0 0 .458.454V.152a.152.152 0 0 0-.094-.14A.145.145 0 0 0 .305 0H.229m0 .398c.015 0 .029.005.04.016a.055.055 0 0 1 .017.04c0 .017-.006.03-.018.041a.057.057 0 0 1-.04.016.053.053 0 0 1-.04-.018.057.057 0 0 1 0-.079.055.055 0 0 1 .04-.016z"/></symbol><symbol id="f"><path d="M.229 0v.226a.223.223 0 0 0-.161.066.224.224 0 0 0-.05.25.23.23 0 0 0 .3.123A.224.224 0 0 0 .44.542.219.219 0 0 0 .458.454V.152a.152.152 0 0 0-.094-.14A.145.145 0 0 0 .305 0H.229m0 .398c.015 0 .029.005.04.016a.055.055 0 0 1 .017.04c0 .017-.006.03-.018.041a.057.057 0 0 1-.04.016.053.053 0 0 1-.04-.018.057.057 0 0 1 0-.079.055.055 0 0 1 .04-.016z"/></symbol><symbol id="g"><path d="M0 0v.228h.193V0H0z"/></symbol><symbol id="h"><path d="M.298.474a.056.056 0 0 0-.056.057c0 .015.005.029.016.04a.055.055 0 0 0 .04.016.055.055 0 0 0 .04-.016.053.053 0 0 0 .016-.04.055.055 0 0 0-.016-.04.054.054 0 0 0-.04-.017m.116 0a.056.056 0 0 0-.057.057.056.056 0 0 0 .057.056A.055.055 0 0 0 .47.531.056.056 0 0 0 .414.475M0 0v.228h.124a.22.22 0 0 0 .068.16.233.233 0 0 0 .161.068A.22.22 0 0 0 .514.39.224.224 0 0 0 .582.228V0H0m.353.171c.017 0 .03.006.04.017C.405.2.41.213.41.228c0 .016-.005.03-.017.04a.056.056 0 0 1-.079 0 .053.053 0 0 1-.016-.04c0-.016.005-.03.016-.04A.055.055 0 0 1 .353.17z"/></symbol><symbol id="i"><path d="M0 0v.228h.648a.025.025 0 0 1 .026.025v.01c0 .015-.008.022-.022.022H.125a.154.154 0 0 0 .148.117h.463c.036 0 .063-.01.082-.028C.838.355.847.327.847.29V0H0z"/></symbol><symbol id="j"><path d="M0 0v.228h.124v.19a.148.148 0 0 0 .044.108.151.151 0 0 0 .109.045h.076V.152A.153.153 0 0 0 .308.045.148.148 0 0 0 .2 0H0z"/></symbol><symbol id="k"><path d="M.152 0a.142.142 0 0 0-.059.012.166.166 0 0 0-.048.033.166.166 0 0 0-.033.048.142.142 0 0 0-.012.06V.57h.077A.152.152 0 0 0 .184.527.15.15 0 0 0 .217.478a.146.146 0 0 0 .012-.06V0H.152z"/></symbol><symbol id="l"><path d="M0 0z"/></symbol><symbol id="m"><path d="M.229 0a.224.224 0 0 0-.162.067A.23.23 0 0 0 0 .23a.235.235 0 0 0 .05.143.237.237 0 0 0-.05.142.23.23 0 0 0 .327.207.226.226 0 0 0 .124-.15H.227A.057.057 0 0 1 .172.513h.285V.285H.226A.055.055 0 0 1 .172.229C.172.213.177.2.188.189a.058.058 0 0 1 .04-.017H.45A.226.226 0 0 0 .229 0z"/></symbol><symbol id="n"><path d="M0 .228v.228h.469V.228H0M.235 0a.055.055 0 0 0-.049.03.057.057 0 0 0 .009.067.055.055 0 0 0 .04.016c.017 0 .03-.005.041-.016a.058.058 0 0 0 .016-.04.053.053 0 0 0-.017-.04A.053.053 0 0 0 .235 0m.116 0a.055.055 0 0 0-.04.017.055.055 0 0 0-.017.04c0 .015.006.029.017.04a.055.055 0 0 0 .04.016c.017 0 .03-.005.04-.017a.057.057 0 0 0 .016-.04.056.056 0 0 0-.016-.04A.053.053 0 0 0 .351 0z"/></symbol><symbol id="o"><path d="M.353 0a.233.233 0 0 0-.229.228H0v.228h.582V.228a.224.224 0 0 0-.14-.21A.219.219 0 0 0 .352 0m0 .172c.016 0 .029.006.04.017.01.01.016.024.016.04a.056.056 0 0 1-.016.04.053.053 0 0 1-.04.016.055.055 0 0 1-.04-.017.055.055 0 0 1-.016-.04A.054.054 0 0 1 .326.18.058.058 0 0 1 .353.172z"/></symbol><symbol id="p"><path d="M0 .228v.228h.648a.025.025 0 0 1 .026.026v.01c0 .014-.008.021-.022.021H.125A.154.154 0 0 0 .273.63h.463C.772.63.799.622.818.603.838.583.847.556.847.52V.34C.847.304.837.276.818.257.8.237.772.228.736.228H0M.486 0a.055.055 0 0 0-.04.017.054.054 0 0 0-.017.04.056.056 0 0 0 .057.056.055.055 0 0 0 .056-.057.053.053 0 0 0-.016-.04A.055.055 0 0 0 .486 0z"/></symbol><use xlink:href="#e" transform="matrix(10.5832 0 0 -10.5832 35.688 31.952)" fill="#f9f5dc"/><use xlink:href="#f" transform="matrix(10.5832 0 0 -10.5832 41.12 31.952)" fill="#f9f5dc"/><use xlink:href="#g" transform="matrix(10.5832 0 0 -10.5832 45.378 29.565)" fill="#f9f5dc"/><use xlink:href="#g" transform="matrix(10.5832 0 0 -10.5832 46.836 29.565)" fill="#f9f5dc"/><use xlink:href="#g" transform="matrix(10.5832 0 0 -10.5832 48.294 29.565)" fill="#f9f5dc"/><use xlink:href="#h" transform="matrix(10.5832 0 0 -10.5832 49.752 29.565)" fill="#f9f5dc"/><use xlink:href="#g" transform="matrix(10.5832 0 0 -10.5832 55.32 29.565)" fill="#f9f5dc"/><use xlink:href="#g" transform="matrix(10.5832 0 0 -10.5832 56.778 29.565)" fill="#f9f5dc"/><use xlink:href="#g" transform="matrix(10.5832 0 0 -10.5832 58.236 29.565)" fill="#f9f5dc"/><use xlink:href="#i" transform="matrix(10.5832 0 0 -10.5832 59.694 29.565)" fill="#f9f5dc"/><use xlink:href="#g" transform="matrix(10.5832 0 0 -10.5832 68.067 29.565)" fill="#f9f5dc"/><use xlink:href="#g" transform="matrix(10.5832 0 0 -10.5832 69.525 29.565)" fill="#f9f5dc"/><use xlink:href="#g" transform="matrix(10.5832 0 0 -10.5832 70.983 29.565)" fill="#f9f5dc"/><use xlink:href="#j" transform="matrix(10.5832 0 0 -10.5832 72.441 29.565)" fill="#f9f5dc"/><use xlink:href="#k" transform="matrix(10.5832 0 0 -10.5832 76.763 29.565)" fill="#f9f5dc"/><use xlink:href="#l" transform="matrix(10.5832 0 0 -10.5832 79.48 29.565)" fill="#f9f5dc"/><use xlink:href="#m" transform="matrix(10.5832 0 0 -10.5832 80.95 32.581)" fill="#f9f5dc"/><use xlink:href="#g" transform="matrix(10.5832 0 0 -10.5832 85.194 29.565)" fill="#f9f5dc"/><use xlink:href="#g" transform="matrix(10.5832 0 0 -10.5832 86.652 29.565)" fill="#f9f5dc"/><use xlink:href="#n" transform="matrix(10.5832 0 0 -10.5832 88.11 31.981)" fill="#f9f5dc"/><use xlink:href="#g" transform="matrix(10.5832 0 0 -10.5832 92.485 29.565)" fill="#f9f5dc"/><use xlink:href="#g" transform="matrix(10.5832 0 0 -10.5832 93.943 29.565)" fill="#f9f5dc"/><use xlink:href="#o" transform="matrix(10.5832 0 0 -10.5832 95.401 31.981)" fill="#f9f5dc"/><use xlink:href="#g" transform="matrix(10.5832 0 0 -10.5832 100.969 29.565)" fill="#f9f5dc"/><use xlink:href="#g" transform="matrix(10.5832 0 0 -10.5832 102.427 29.565)" fill="#f9f5dc"/><use xlink:href="#g" transform="matrix(10.5832 0 0 -10.5832 103.885 29.565)" fill="#f9f5dc"/><use xlink:href="#p" transform="matrix(10.5832 0 0 -10.5832 105.343 31.981)" fill="#f9f5dc"/><symbol id="q"><path d="M.152 0a.142.142 0 0 0-.059.012.166.166 0 0 0-.048.033.166.166 0 0 0-.033.048.142.142 0 0 0-.012.06V.57h.077A.152.152 0 0 0 .184.527.15.15 0 0 0 .217.478a.146.146 0 0 0 .012-.06V0H.152z"/></symbol><symbol id="r"><path d="M.353 0a.23.23 0 0 0-.229.226H0v.227h.124a.237.237 0 0 0 .067.165.227.227 0 0 0 .391-.16V.226A.222.222 0 0 0 .514.067.235.235 0 0 0 .354 0m0 .401a.052.052 0 0 1 .054.053.06.06 0 0 1-.015.042C.384.506.371.512.353.512.336.512.322.507.313.496A.062.062 0 0 1 .299.454C.299.44.304.427.314.417A.053.053 0 0 1 .354.4m0-.229c.015 0 .028.006.04.017A.054.054 0 0 1 .41.23c0 .017-.006.03-.018.04a.055.055 0 0 1-.039.017.053.053 0 0 1-.04-.018.056.056 0 0 1 0-.08.056.056 0 0 1 .04-.016z"/></symbol><symbol id="s"><path d="M0 .228v.228h.38V.381A.158.158 0 0 0 .335.274.157.157 0 0 0 .226.227H0M.235 0a.052.052 0 0 0-.04.017.072.072 0 0 0-.012.018.057.057 0 0 0 0 .044.076.076 0 0 0 .013.018c.01.01.023.016.039.016.017 0 .03-.005.04-.016a.057.057 0 0 0 .017-.04.057.057 0 0 0-.016-.04A.053.053 0 0 0 .235 0z"/></symbol><symbol id="t"><path d="M0 0v.228h.124V.25a.151.151 0 0 0 .093.14.146.146 0 0 0 .06.012h.462c.037 0 .064-.01.083-.028C.842.355.851.327.851.29V.152A.147.147 0 0 0 .805.044.156.156 0 0 0 .698 0H0m.297.228h.355a.025.025 0 0 1 .026.025v.01C.678.278.67.285.656.285H.322A.026.026 0 0 1 .304.278.025.025 0 0 1 .297.259V.228z"/></symbol><symbol id="u"><path d="M.143.593c0 .016.004.031.011.045.009.014.02.027.033.037a.183.183 0 0 0 .108.034h.076V.708A.083.083 0 0 0 .368.683.03.03 0 0 0 .353.666.04.04 0 0 0 .332.659h-.08L.248.656A.008.008 0 0 1 .244.651c0-.006.003-.008.009-.008h.066C.326.643.33.64.332.637.334.634.332.63.326.627A.189.189 0 0 0 .22.593L.143.592M0 0v.077a.155.155 0 0 0 .07.128.144.144 0 0 0 .072.023v.19a.151.151 0 0 0 .093.14.146.146 0 0 0 .06.013H.37V.228h.046v.19a.151.151 0 0 0 .093.14.146.146 0 0 0 .06.013h.076V.15A.18.18 0 0 0 .631.079.133.133 0 0 0 .583.022.135.135 0 0 0 .504 0H0z"/></symbol><symbol id="v"><path d="M.171.474a.057.057 0 0 0-.04.017.055.055 0 0 0-.017.04c0 .017.006.03.018.04.011.011.024.016.04.016C.186.587.2.582.211.571A.053.053 0 0 0 .227.53C.228.52.225.51.219.5A.055.055 0 0 0 .2.482.054.054 0 0 0 .17.475m.116 0a.057.057 0 0 0-.04.017.055.055 0 0 0-.017.04c0 .017.006.03.017.04.012.011.025.016.04.016.016 0 .029-.005.04-.016A.053.053 0 0 0 .343.53a.055.055 0 0 0-.03-.049.054.054 0 0 0-.026-.008M.229 0a.224.224 0 0 0-.162.067A.233.233 0 0 0 0 .23.23.23 0 0 0 .317.44a.23.23 0 0 0 .14-.211V0H.23m0 .172c.015 0 .029.006.04.017a.055.055 0 0 1 .017.04.055.055 0 0 1-.017.04.055.055 0 0 1-.04.017.055.055 0 0 1-.04-.017.055.055 0 0 1-.017-.04C.172.213.178.2.19.189a.055.055 0 0 1 .04-.017z"/></symbol><symbol id="w"><path d="M0 0v.228h.124v.227A.115.115 0 0 0 .24.571h.114V.402h.395c.037 0 .064-.01.083-.028C.85.355.86.327.86.29V.152A.147.147 0 0 0 .814.044.156.156 0 0 0 .707 0H0m.454.458a.056.056 0 0 0-.056.057.056.056 0 0 0 .056.056c.01 0 .02-.002.028-.007a.06.06 0 0 0 .02-.02.053.053 0 0 0 .01-.03.055.055 0 0 0-.057-.057M.352.228h.309c.007 0 .013.003.017.008.005.005.008.01.008.018V.26c0 .017-.009.025-.025.025H.379A.025.025 0 0 1 .36.277.024.024 0 0 1 .353.26V.228z"/></symbol><symbol id="x"><path d="M.353.474a.056.056 0 0 0-.056.057.056.056 0 0 0 .056.056A.055.055 0 0 0 .41.531.056.056 0 0 0 .353.475M0 0v.228h.124a.22.22 0 0 0 .068.16.233.233 0 0 0 .161.068A.22.22 0 0 0 .514.39.224.224 0 0 0 .582.228V0H0m.353.171c.017 0 .03.006.04.017C.405.2.41.213.41.228c0 .016-.005.03-.017.04a.056.056 0 0 1-.079 0 .053.053 0 0 1-.016-.04c0-.016.005-.03.016-.04A.055.055 0 0 1 .353.17z"/></symbol><symbol id="y"><path d="M.353 0a.233.233 0 0 0-.229.228H0v.228h.353a.227.227 0 0 0 .16-.39A.225.225 0 0 0 .354 0m0 .172c.016 0 .029.006.04.017.01.01.016.024.016.04a.056.056 0 0 1-.016.04.053.053 0 0 1-.04.016.055.055 0 0 1-.04-.017.055.055 0 0 1-.016-.04A.054.054 0 0 1 .326.18.058.058 0 0 1 .353.172z"/></symbol><use xlink:href="#q" transform="matrix(10.5832 0 0 -10.5832 36.818 50.731)" fill="#f9f5dc"/><use xlink:href="#r" transform="matrix(10.5832 0 0 -10.5832 38.653 53.118)" fill="#f9f5dc"/><use xlink:href="#s" transform="matrix(10.5832 0 0 -10.5832 44.226 53.148)" fill="#f9f5dc"/><use xlink:href="#q" transform="matrix(10.5832 0 0 -10.5832 48.83 50.731)" fill="#f9f5dc"/><use xlink:href="#i" transform="matrix(10.5832 0 0 -10.5832 50.665 50.731)" fill="#f9f5dc"/><use xlink:href="#t" transform="matrix(10.5832 0 0 -10.5832 59.037 50.731)" fill="#f9f5dc"/><use xlink:href="#u" transform="matrix(10.5832 0 0 -10.5832 68.627 50.731)" fill="#f9f5dc"/><use xlink:href="#l" transform="matrix(10.5832 0 0 -10.5832 75.759 50.731)" fill="#f9f5dc"/><use xlink:href="#v" transform="matrix(10.5832 0 0 -10.5832 77.228 50.731)" fill="#f9f5dc"/><use xlink:href="#w" transform="matrix(10.5832 0 0 -10.5832 81.485 50.731)" fill="#f9f5dc"/><use xlink:href="#f" transform="matrix(10.5832 0 0 -10.5832 91.169 53.118)" fill="#f9f5dc"/><use xlink:href="#x" transform="matrix(10.5832 0 0 -10.5832 95.426 50.731)" fill="#f9f5dc"/><use xlink:href="#i" transform="matrix(10.5832 0 0 -10.5832 100.994 50.731)" fill="#f9f5dc"/><use xlink:href="#y" transform="matrix(10.5832 0 0 -10.5832 109.366 53.148)" fill="#f9f5dc"/></g></svg>
