<?xml version="1.0" encoding="UTF-8"?>
<!DOCTYPE svg PUBLIC "-//W3C//DTD SVG 1.1//EN" "http://www.w3.org/Graphics/SVG/1.1/DTD/svg11.dtd">
<svg xmlns="http://www.w3.org/2000/svg" version="1.1" width="512px" height="512px" style="shape-rendering:geometricPrecision; text-rendering:geometricPrecision; image-rendering:optimizeQuality; fill-rule:evenodd; clip-rule:evenodd" xmlns:xlink="http://www.w3.org/1999/xlink">
<g><path style="opacity:0.966" fill="#2B3C56" d="M 249.5,47.5 C 255.105,46.9081 260.439,47.7415 265.5,50C 288,72.5 310.5,95 333,117.5C 339.698,132.104 335.198,141.104 319.5,144.5C 315.926,144.031 312.592,142.864 309.5,141C 297,128.5 284.5,116 272,103.5C 271.667,175.5 271.333,247.5 271,319.5C 268.273,326.87 262.939,330.537 255,330.5C 246.414,330.254 241.081,325.92 239,317.5C 238.667,246.5 238.333,175.5 238,104.5C 225.105,118.064 211.605,130.897 197.5,143C 184.383,146.063 176.716,140.896 174.5,127.5C 174.969,123.926 176.136,120.592 178,117.5C 201.424,93.5745 225.257,70.2411 249.5,47.5 Z"/></g>
<g><path style="opacity:0.967" fill="#2B3C56" d="M 155.5,180.5 C 167.505,180.333 179.505,180.5 191.5,181C 202.678,186.533 205.511,195.033 200,206.5C 198.127,208.709 195.96,210.542 193.5,212C 182.224,213.243 170.891,213.91 159.5,214C 148.23,216.937 141.397,224.103 139,235.5C 138.333,294.833 138.333,354.167 139,413.5C 141.167,426.333 148.667,433.833 161.5,436C 224.167,436.667 286.833,436.667 349.5,436C 362.333,433.833 369.833,426.333 372,413.5C 372.667,354.167 372.667,294.833 372,235.5C 370.205,225.703 364.705,218.87 355.5,215C 344.224,213.757 332.891,213.09 321.5,213C 310.794,209.766 306.627,202.599 309,191.5C 310.556,186.124 314.056,182.624 319.5,181C 331.5,180.333 343.5,180.333 355.5,181C 384.032,187.198 400.532,204.698 405,233.5C 405.667,294.5 405.667,355.5 405,416.5C 399.833,446.333 382.333,463.833 352.5,469C 287.833,469.667 223.167,469.667 158.5,469C 128.667,463.833 111.167,446.333 106,416.5C 105.333,355.167 105.333,293.833 106,232.5C 111.111,204.224 127.611,186.891 155.5,180.5 Z"/></g>
</svg>
