<svg xmlns="http://www.w3.org/2000/svg" width="210" height="290" viewBox="0 0 157.5 217.5"><clipPath id="a"><path transform="scale(.24)" d="M0 0h658.333v940.476H0z" fill-rule="evenodd"/></clipPath><g clip-path="url(#a)"><path d="M0 0h158v443.905H0z" fill="#fff"/></g><clipPath id="b"><path transform="scale(.24)" d="M0 0h658.333v909.127H0z" fill-rule="evenodd"/></clipPath><g clip-path="url(#b)"><path d="M0 0h158v218.19H0z" fill="#fff"/></g><clipPath id="c"><path transform="scale(.24)" d="M0 0h658.333v909.127H0z" fill-rule="evenodd"/></clipPath><g clip-path="url(#c)"><path d="M0 0h158v218.19H0z" fill="#fff"/></g><clipPath id="d"><path transform="scale(.24)" d="M0 0h658.333v909.127H0z" fill-rule="evenodd"/></clipPath><g opacity=".028" clip-path="url(#d)"><clipPath id="e"><path transform="matrix(.24 0 0 .24 9.84 40.08)" d="M0 0h578v577H0z" fill-rule="evenodd"/></clipPath><g clip-path="url(#e)"><clipPath id="f"><path transform="matrix(.24 0 0 .24 9.84 40.08)" d="M.69.087h573.69v573.69H.69z" fill-rule="evenodd"/></clipPath><g clip-path="url(#f)"><path d="M10.006 40.1H147.69v140.44H10.006z" fill="#fff"/></g><clipPath id="g"><path transform="matrix(.24 0 0 .24 9.84 40.08)" d="M.69.087h573.69v573.69H.69z" fill-rule="evenodd"/></clipPath><g clip-path="url(#g)"><path d="M10.006 40.1H147.69v137.687H10.006z" fill="#fff"/></g><clipPath id="h"><path transform="matrix(.24 0 0 .24 9.84 40.08)" d="M.69.087h573.69v573.69H.69z"/></clipPath><g clip-path="url(#h)"><clipPath id="i"><path transform="matrix(.24 0 0 .24 9.84 40.08)" d="M.69.087h573.69v573.69H.69z"/></clipPath><g clip-path="url(#i)"><clipPath id="j"><path transform="matrix(.24 0 0 .24 9.84 40.08)" d="M.69.087h573.69v573.69H.69z"/></clipPath><g clip-path="url(#j)"><clipPath id="k"><path transform="matrix(.24 0 0 .24 9.84 40.08)" d="M.69.087h573.69v585.164H.69z"/></clipPath><g clip-path="url(#k)"><clipPath id="l"><path transform="matrix(.24 0 0 .24 9.84 40.08)" d="M.69.087h573.69v573.69H.69z"/></clipPath><g clip-path="url(#l)"><clipPath id="m"><path transform="matrix(.24 0 0 .24 9.84 40.08)" d="M.69.087h573.69v573.69H.69z"/></clipPath><g clip-path="url(#m)"><clipPath id="n"><path transform="matrix(.24 0 0 .24 9.84 40.08)" d="M153.674 174.489h62.724v91.79h-62.724z"/></clipPath><g clip-path="url(#n)"><clipPath id="o"><path transform="matrix(.24 0 0 .24 9.84 40.08)" d="m191.297 175.655 24.85 11.865-37.575 78.69-24.85-11.865 37.575-78.69z"/></clipPath><g clip-path="url(#o)"><clipPath id="p"><path transform="matrix(.24 0 0 .24 9.84 40.08)" d="M153.674 174.489h62.724v91.79h-62.724z"/></clipPath><g clip-path="url(#p)"><clipPath id="q"><path transform="matrix(.24 0 0 .24 9.84 40.08)" d="m216.114 187.505-24.85-11.866-37.574 78.69 24.85 11.866 37.574-78.69z"/></clipPath><g clip-path="url(#q)" fill="#009736"><path d="M50.766 92.67c.096-.19.216-.37.325-.553a.11.11 0 0 1 .023-.03.058.058 0 0 1 .07-.012c.04.015.056.044.042.09a.881.881 0 0 0-.046.451l.004.004-.002.004-.002-.01c-.048.062-.011.153-.074.215-.01-.02-.025-.036-.025-.051.001-.063.009-.126.01-.188.001-.082.02-.166-.012-.257-.027.044-.045.077-.068.108-.186.246-.276.533-.353.826-.085.326-.088.658-.077.992.007.24.049.476.114.706.06.212.125.424.228.62.152.289.313.573.474.858.16.288.28.59.327.918.004.03-.002.062.04.087.028-.065.057-.127.08-.191.008-.022.011-.055 0-.073-.035-.06-.022-.123-.023-.184a3.399 3.399 0 0 0-.079-.693 1.398 1.398 0 0 1-.022-.149c0-.008.011-.019.024-.039.05.087.044.183.07.27.025.09.034.185.057.276.02.087.008.18.041.274.063-.101.13-.187.05-.3-.014-.021 0-.062 0-.093-.001-.188.014-.379-.031-.563-.066-.267-.12-.54-.268-.78-.012-.021-.019-.046-.027-.07-.007-.02-.007-.037.026-.047.013.014.031.03.043.05.039.064.083.127.109.197.066.177.126.356.183.536.065.205.056.42.065.646.052-.052.064-.107.081-.158.018-.054.032-.109.055-.16.118-.257.188-.533.295-.795a.138.138 0 0 0 .012-.054c-.004-.138.006-.275-.006-.414-.028-.33-.146-.637-.251-.946-.057-.166-.103-.335-.15-.505-.004-.017 0-.025.013-.025.023.001.034.016.04.034.08.278.225.533.29.816.107.233.14.481.156.734.001.016.015.032.027.058.073-.15.152-.285.2-.426-.054-.158-.101-.308-.157-.455a2.452 2.452 0 0 1-.14-.793c-.008-.209.027-.414.035-.62.005-.139.025-.276.037-.414.004-.037.001-.074.002-.112a4.607 4.607 0 0 0-.043-.582 1.91 1.91 0 0 0-.058-.296c-.026-.09-.06-.178-.09-.268a6.894 6.894 0 0 1-.07-.214l.016-.027c.01-.004.027-.002.033.005.048.06.06.137.09.205.078.173.124.354.154.541.054.344.064.688.029 1.034-.013.132-.03.262-.037.393a4.65 4.65 0 0 0 .015.64c.008.094.02.187.052.277.055.167.109.334.165.5.003.009.019.013.03.02.037-.018.046-.058.062-.09.072-.148.143-.295.212-.443.03-.062.072-.12.041-.196-.006-.014.004-.037.01-.054.033-.108.066-.216.103-.322.058-.168.092-.34.102-.516.01-.156.022-.313.044-.467.032-.224.064-.447.048-.674-.005-.07-.003-.138-.003-.207 0-.018.01-.035.016-.053l.015-.01c.01.001.028.003.03.01a.172.172 0 0 1 .024.069c.007.308.02.616-.047.92-.013.06-.015.124-.02.187a5.309 5.309 0 0 1-.046.43c-.015.095-.056.188-.039.29.053-.058.08-.13.114-.197.064-.122.121-.248.198-.364.068-.105.114-.224.17-.337.027-.2.108-.386.148-.583.06-.287.07-.573-.008-.859-.039-.146-.076-.292-.116-.438a3.696 3.696 0 0 1-.111-.611c-.026-.25-.034-.502-.048-.753-.021-.397.074-.773.215-1.139.048-.123.112-.24.173-.357.046-.09.089-.183.151-.26.188-.235.416-.418.686-.55.054-.028.092.006.144.009.022-.026.049-.053.07-.084.127-.183.286-.331.47-.455.073-.048.083-.05.192-.018-.004.024-.002.052-.014.072-.07.128-.108.266-.148.405-.067.237-.122.474-.103.723.006.081.008.163.011.244a.073.073 0 0 1-.007.037c-.005.01-.015.021-.025.023-.01.001-.025-.007-.028-.014a.242.242 0 0 1-.016-.073c-.006-.151-.012-.302-.014-.452 0-.057.006-.113.018-.169.021-.104.048-.207.071-.312.004-.017 0-.036-.027-.043a.36.36 0 0 0-.039.033c-.123.137-.2.304-.276.47-.051.113-.113.225-.132.352-.03.211-.064.423-.01.636.01.036.007.075.013.112.02.112.035.224.063.334.059.231.101.466.128.704.011.093-.001.188-.003.282l-.005.018c-.01.014-.024.026-.036.04-.01-.014-.032-.027-.032-.04 0-.075.014-.152.003-.226-.038-.261-.066-.525-.144-.779-.075-.242-.077-.495-.1-.745 0-.013 0-.025.002-.038.03-.244.087-.48.172-.711.03-.08.087-.137.127-.207a.874.874 0 0 1 .313-.344.107.107 0 0 0 .051-.075c.013-.052.021-.105.034-.17-.043.035-.07.061-.102.08a1.147 1.147 0 0 0-.356.382c-.02.032-.042.062-.065.092a1.626 1.626 0 0 0-.223.456 1.6 1.6 0 0 0-.07.234c-.016.086-.02.174-.028.262-.016.188-.026.377.015.563.008.037.01.075.017.112a.692.692 0 0 1-.012.262c-.003.015-.021.028-.036.046-.01-.023-.025-.04-.024-.056a1.712 1.712 0 0 0-.043-.41.71.71 0 0 1-.015-.112c-.015-.44.044-.865.264-1.256.012-.021.019-.045.027-.067-.043-.03-.078-.007-.109.01a2.083 2.083 0 0 0-.327.221c-.204.168-.327.395-.456.617-.074.126-.113.266-.162.403a2.588 2.588 0 0 0-.149 1c.012.276.025.552.072.826.025.143.046.285.087.425.077.259.15.519.177.79.008.068.01.137.005.206-.01.15-.033.298-.07.444-.006.025-.03.05-.006.084a.306.306 0 0 0 .092-.097c.076-.13.154-.259.234-.387.074-.117.147-.234.225-.347.093-.134.193-.264.288-.396.032-.046.071-.091.03-.154-.009-.012-.003-.037.002-.054.045-.153.044-.31.06-.466.029-.279.003-.553-.08-.82a1.035 1.035 0 0 1-.04-.26c0-.008.016-.017.025-.024.237.506.217 1.035.129 1.576a.466.466 0 0 0 .171-.295c.02-.1.024-.21.082-.3.008 0 .017-.002.02.002.04.057.003.122.006.188a.11.11 0 0 0 .052-.087c.038-.28.075-.56.059-.844a1.13 1.13 0 0 0-.059-.333c-.06-.16-.077-.33-.121-.494a.29.29 0 0 1-.01-.094c.017-.23-.001-.466.087-.688.007-.017.003-.037.007-.056.003-.018.01-.033.038-.025.003.016.011.036.007.051-.045.153-.044.311-.054.467-.011.156.006.312.046.467.04.157.073.317.116.475.013.055.02.111.022.168.01.214.008.427-.028.64-.006.034-.02.074.005.108.029.01.05-.001.065-.024a.53.53 0 0 0 .081-.19c.046-.215.085-.431.054-.653-.017-.118-.027-.238-.044-.356a1.507 1.507 0 0 1-.02-.394c.005-.043.001-.088.001-.132a3.44 3.44 0 0 1 .086-.708c.047-.222.118-.437.197-.648.134-.355.324-.679.595-.95a.874.874 0 0 1 .275-.197c.119-.05.213-.131.305-.217.041-.04.076-.084.116-.124.013-.013.03-.027.047-.028a.141.141 0 0 1 .071.014c.026.012.027.039.02.065a.155.155 0 0 1-.015.034 2.747 2.747 0 0 0-.26.543c-.008.02-.023.038-.035.056l-.04-.035c0-.064.034-.119.055-.177.022-.062.071-.117.051-.206-.108.07-.2.143-.308.19a.772.772 0 0 0-.238.182 2.64 2.64 0 0 0-.492.752c-.115.247-.19.507-.251.77a3.23 3.23 0 0 0-.042 1.347c.035.188.032.376.04.564a.254.254 0 0 1-.025.11c-.014.034-.025.07-.038.104.033.013.055.004.07-.017.038-.05.07-.104.11-.153.16-.194.321-.385.482-.579.024-.029.05-.057.066-.09.172-.335.267-.69.27-1.068a4.05 4.05 0 0 1 .063-.656c.023-.129.054-.259.115-.377.064-.124.127-.247.196-.367.028-.048.068-.09.106-.13.015-.016.037-.034.063-.006-.006.017-.009.038-.02.052-.11.14-.18.3-.26.457a1.08 1.08 0 0 0-.077.212c-.057.2-.072.407-.093.613-.017.169.009.338-.031.507-.026.11-.046.22-.08.328a.56.56 0 0 0-.031.192c.062-.09.133-.156.156-.235.025-.082.077-.141.11-.214.032-.069.073-.134.093-.206.043-.145.085-.289.112-.438.054-.296.12-.591.183-.886.023-.11.047-.221.092-.326.114-.267.25-.52.436-.746.177-.22.4-.378.667-.472.065-.023.13-.045.195-.07.221-.09.452-.096.686-.086.027.001.044.02.051.052-.046.05-.111.051-.172.052-.262-.001-.512.054-.75.166-.017.008-.035.014-.052.02a1.182 1.182 0 0 0-.53.382c-.043.053-.079.113-.124.165-.141.164-.226.359-.31.555-.086.204-.123.421-.167.636-.048.228-.084.457-.129.685-.022.11-.045.221-.098.324-.029.055-.047.115-.07.176a.159.159 0 0 0 .097-.063c.083-.094.165-.19.252-.28.232-.239.466-.475.701-.711.11-.112.233-.213.334-.333.129-.155.24-.322.332-.502.067-.128.131-.257.208-.38.118-.187.281-.337.44-.487a.281.281 0 0 1 .1-.053c.029-.01.043.012.048.044-.012.01-.024.025-.038.036-.242.203-.458.429-.603.716-.065.128-.128.26-.217.375-.014.019-.022.044-.031.064.023.016.04.009.054-.001.169-.113.318-.246.45-.4.143-.167.292-.329.445-.486.138-.142.3-.247.487-.315a4.22 4.22 0 0 1 .36-.114.663.663 0 0 0 .307-.175c.006-.006.022-.004.034-.004.02.024.01.046-.008.064a.686.686 0 0 1-.285.18c-.1.035-.203.066-.304.1-.095.033-.193.06-.278.118a1.79 1.79 0 0 0-.387.328c-.072.087-.15.17-.226.253-.02.021-.048.039-.03.075.068-.013.14-.045.201-.033.082.017.136-.012.189-.056.078-.064.15-.134.226-.2a.35.35 0 0 1 .06-.044c.006-.003.02.006.028.012l.003.017c-.013.022-.022.046-.04.063a2.622 2.622 0 0 1-.43.335c-.022.014-.046.03-.069.031-.134.007-.234.086-.335.16-.148.106-.294.215-.44.325a3.32 3.32 0 0 0-.19.154c-.108.096-.215.192-.32.29-.098.09-.193.18-.288.272-.019.015-.022.032-.013.053.18-.106.369-.189.569-.248.327-.1.625-.26.927-.415.066-.034.122-.086.184-.128.005-.004.022.005.032.01l.004.018c-.01.022-.017.05-.034.063-.06.047-.12.093-.185.13-.27.148-.547.285-.84.382a3.228 3.228 0 0 0-1.114.622c-.035.03-.079.056-.102.118.134-.072.24-.167.382-.186l.008.017c.004.022-.005.036-.025.044a2.57 2.57 0 0 0-.527.362c-.01.008-.02.02-.03.021-.08.003-.119.064-.164.114-.24.266-.48.53-.715.8-.051.059-.117.114-.137.204.067-.019.113-.06.158-.1.153-.133.318-.248.495-.346.168-.096.342-.184.525-.253.218-.082.433-.171.656-.237.307-.09.618-.168.933-.23.114-.024.231-.044.327-.124.014.038.004.063-.016.077-.042.027-.086.055-.133.07a5.35 5.35 0 0 1-.345.098c-.194.049-.39.092-.586.14-.08.02-.158.044-.234.074-.239.095-.486.169-.72.278-.086.04-.173.077-.255.123-.23.128-.451.271-.656.44-.136.112-.277.217-.412.33a.93.93 0 0 0-.143.149c-.13.17-.257.341-.382.513-.133.183-.256.373-.396.55a7.17 7.17 0 0 0-.549.834c-.108.185-.21.373-.314.56-.01.016-.016.034-.027.049-.11.133-.167.295-.249.444a.194.194 0 0 0-.02.052c-.003.019-.026.038-.003.063.031-.025.06-.049.09-.071.12-.092.237-.185.36-.274.066-.047.138-.086.209-.127a2.43 2.43 0 0 1 .653-.286c.214-.052.431-.093.648-.125.218-.033.429-.099.645-.14.03-.005.06-.02.09-.03.136-.052.26-.127.38-.206.079-.052.156-.107.236-.156.032-.02.06-.008.063.046-.141.102-.286.198-.435.288a1.628 1.628 0 0 1-.563.208c-.062.011-.123.025-.185.038-.29.059-.579.117-.869.178-.06.013-.12.035-.18.054-.2.064-.377.171-.553.282-.285.178-.54.389-.737.664-.018.026-.035.06-.06.07-.073.03-.098.094-.129.156l-.499 1.017c-.025.051-.046.105-.08.15-.052.065-.087.138-.122.212-.063.13-.11.267-.167.4-.077.179-.137.363-.197.576.107-.184.228-.326.357-.458.22-.227.46-.428.723-.604.205-.136.416-.26.658-.317a.22.22 0 0 1 .074-.003c.007.001.013.019.017.03l-.006.017c-.021.012-.043.025-.066.031-.184.052-.35.134-.513.235-.263.163-.5.36-.729.566-.056.05-.115.101-.158.161-.11.152-.253.28-.318.46-.026-.012-.044-.027-.06-.025a.053.053 0 0 0-.041.03 4.592 4.592 0 0 0-.094.268c-.009.03-.028.067.01.099.044-.037.087-.073.131-.106.006-.004.026.002.03.009.006.007.008.027.003.034-.029.033-.06.063-.091.095a.994.994 0 0 0-.263.426c.037.03.103-.064.122.04-.041.048-.083.103-.13.154a.437.437 0 0 0-.1.18c-.029.095-.059.19-.082.289-.009.037-.03.078-.007.13.036-.033.069-.062.1-.092.123-.118.256-.223.4-.314.185-.118.377-.228.59-.295a.982.982 0 0 0 .176-.067c.1-.054.21-.084.318-.118.149-.046.293-.108.447-.14.03-.005.059-.022.089-.032.065-.022.13-.049.197-.062a.746.746 0 0 0 .195-.067l.423-.209a.6.6 0 0 0 .155-.106c.072-.07.153-.13.23-.193.015-.012.03-.02.048-.011.011.043-.014.072-.042.098-.137.129-.279.252-.45.339a3.834 3.834 0 0 1-.693.29c-.35.099-.7.201-1.028.363a.168.168 0 0 1-.035.013c-.258.06-.468.218-.68.36a2.822 2.822 0 0 0-.539.499c-.016.017-.028.039-.017.065.029.003.05-.012.065-.032.089-.118.205-.202.329-.28.198-.121.4-.234.606-.344a2.38 2.38 0 0 1 .382-.16c.22-.072.442-.142.663-.211.09-.029.18-.058.271-.08.105-.023.206-.058.302-.106.212-.11.42-.228.63-.342.078-.042.145-.098.215-.152.11-.085.195-.195.297-.288.151-.138.26-.304.365-.476.075-.123.155-.242.23-.358.038.005.063.01.07.039-.038.065-.073.131-.112.194-.13.207-.257.418-.423.6-.16.177-.323.354-.523.488-.246.165-.51.3-.783.412-.256.105-.524.18-.788.26a5.125 5.125 0 0 0-.812.303 4.31 4.31 0 0 0-.965.652c-.1.09-.125.174-.101.336.122-.238.3-.423.532-.555.239-.14.488-.261.755-.34.126-.037.26-.062.39-.06.137.003.275.01.412.01.194 0 .54-.036.748-.076.078-.014.158-.049.239-.018.012.026.01.05-.01.074-.043.061-.085.124-.131.183a.947.947 0 0 1-.47.332c-.227.075-.458.138-.687.206a3.073 3.073 0 0 0-.814.344 5.66 5.66 0 0 0-.671.517 1.55 1.55 0 0 0-.172.175c-.124.149-.245.301-.365.454-.018.024-.026.057-.034.087-.004.017.001.037.004.078.1-.14.17-.262.264-.36.235-.244.458-.499.752-.681.31-.192.625-.349.992-.388a.899.899 0 0 1 .28.006c.216.044.429.1.626.2.096.049.197.08.3.11a.586.586 0 0 0 .353-.008c.03-.01.06-.023.09-.027.026-.004.046.014.053.05a.52.52 0 0 1-.256.095.951.951 0 0 1-.492-.1c-.2-.091-.409-.16-.625-.203a1.337 1.337 0 0 0-.56.013c-.225.047-.424.158-.618.272-.323.19-.582.457-.831.732-.105.116-.189.252-.297.365-.064.066-.078.138-.092.217-.003.017.007.035.034.04.043-.059.086-.12.131-.179.154-.2.328-.382.506-.559.238-.234.492-.451.784-.615.211-.119.437-.193.68-.206.025 0 .05.005.073.015.008.003.018.018.018.029a.036.036 0 0 1-.014.03c-.052.03-.11.026-.165.034-.202.028-.39.095-.565.2a2.448 2.448 0 0 0-.57.43.911.911 0 0 1-.11.102c-.131.1-.234.228-.347.345-.016.018-.032.039-.026.067a.909.909 0 0 0 .173-.143c.105-.108.215-.21.324-.314a.669.669 0 0 1 .103-.082c.122-.077.245-.153.371-.224.228-.128.469-.215.732-.233.208-.013.412-.045.59-.167a.036.036 0 0 1 .034-.002c.01.005.014.02.023.034a.542.542 0 0 1-.335.187c-.13.022-.257.054-.39.061-.067.004-.135.024-.201.044-.332.098-.618.279-.885.491-.012.01-.025.026-.005.042.059-.007.105-.043.154-.069.264-.138.54-.243.837-.278.274-.032.549-.07.824-.085.144-.01.284-.04.42-.09.088-.032.178-.062.254-.121a.133.133 0 0 1 .051-.023l.027.013c.004.01.002.028-.005.034-.09.068-.173.146-.28.19a.192.192 0 0 0-.078.047 1.33 1.33 0 0 1-.43.328c-.054.028-.112.053-.152.102.062.061.063.082.006.128l-.178.139c-.14.11-.291.198-.455.266-.137.057-.29.085-.438.107-.28.039-.56.072-.842.099a1.28 1.28 0 0 0-.698.278c-.008.226-.028.459-.02.69.01.353-.027.704-.007 1.056.009.163.013.325.042.486.015.087.02.175.025.263.003.061-.038.089-.1.07-.041-.013-.088-.017-.125-.067-.008-.119-.022-.25-.025-.381a21.384 21.384 0 0 1 .015-1.507 1.6 1.6 0 0 0 .001-.094c.005-.045-.014-.076-.057-.091-.125-.057-.245-.123-.385-.147a3.155 3.155 0 0 1-.474-.118 1.693 1.693 0 0 1-.622-.378c-.222-.207-.387-.46-.538-.723-.128-.223-.244-.454-.385-.67-.03-.045-.063-.091-.07-.146.02-.017.038-.016.05 0 .039.05.074.101.112.151.015.02.03.045.05.053.125.05.216.145.321.221.167.12.317.263.496.372.194.118.388.23.61.285.024.007.045.021.069.03.107.04.196.111.292.169.104.062.191.142.27.233.086.1.168.203.227.322.009.018.02.031.042.028.02-.014.011-.033.008-.049-.042-.201-.163-.353-.317-.477a5.033 5.033 0 0 0-.694-.482c-.039-.021-.078-.042-.112-.07-.018-.014-.05-.033-.027-.072a.46.46 0 0 1 .054.022c.23.127.458.26.667.421.045.035.088.07.155.077a1.08 1.08 0 0 1-.1-.207.225.225 0 0 0-.057-.095c-.101-.094-.193-.196-.302-.284a7.22 7.22 0 0 1-.508-.446c-.144-.14-.271-.296-.401-.45-.036-.041-.056-.097-.086-.145-.03-.047-.064-.093-.094-.14-.027-.043-.055-.085-.076-.13a2.829 2.829 0 0 1-.203-.564c-.004-.019-.011-.023-.025-.01-.004.011-.013.023-.012.033.014.157.02.314.083.462.037.087.072.174.114.258.125.25.285.474.505.648.188.148.354.32.527.483.014.013.02.028.009.046-.035.01-.06-.01-.084-.03-.179-.15-.362-.293-.533-.45-.238-.22-.29-.281-.435-.538-.132-.235-.257-.476-.25-.76 0-.024-.014-.049-.014-.073 0-.074-.014-.148.021-.214l.068-.004c.004-.062.006-.125.014-.187a.386.386 0 0 1 .033-.107c.008-.015.03-.019.051-.01.02.049.002.098-.001.147-.006.086-.009.171.041.247a.214.214 0 0 0-.009.088c.011.11.064.204.1.304.15.412.429.736.732 1.038.178.176.375.333.558.504.146.135.294.273.353.476a.21.21 0 0 0 .039.064.273.273 0 0 1 .068.153c.002.034.02.057.04.082.035.04.065.085.117.106.022-.043.031-.09.008-.114-.053-.055-.049-.127-.074-.19-.029-.069-.053-.143-.099-.201a2.942 2.942 0 0 0-.439-.463 8.868 8.868 0 0 1-.244-.207.681.681 0 0 1-.102-.109c-.081-.112-.16-.226-.237-.34a1.134 1.134 0 0 1-.093-.163 2.133 2.133 0 0 1-.203-.912c.002-.126-.004-.252.007-.377.012-.137.038-.273.06-.41a.05.05 0 0 1 .036-.036c.014-.003.03.009.046.016.028-.064.011-.133.016-.2.005-.08.011-.162.02-.243 0-.01.014-.017.025-.029.014.01.033.017.042.03.04.058.052.125.06.196.029.24.093.47.224.675.099.152.182.315.3.456.064.078.117.163.16.254.006.014.009.039-.02.042l-.018-.006a1.182 1.182 0 0 1-.041-.062c-.011-.015-.02-.032-.03-.047l-.218-.285a.534.534 0 0 1-.022-.03c-.062-.095-.121-.191-.185-.285-.032-.046-.042-.105-.09-.14-.003-.003-.012.002-.028.006.023.058.043.116.068.172.046.103.1.203.141.308.119.301.288.572.486.826l.172.224c.162.206.27.439.339.69.008.032.008.07.06.091 0-.105.038-.203-.024-.297-.013-.02-.017-.048-.02-.072a1.42 1.42 0 0 0-.232-.552c-.037-.055-.065-.115-.098-.175.04-.01.056.01.07.03.053.08.102.16.157.237a.88.88 0 0 1 .16.378c.004.02.004.049.044.05.017-.086.046-.17.042-.258a1.298 1.298 0 0 0-.093-.46c-.035-.08-.07-.162-.098-.245a.732.732 0 0 0-.103-.2 6.099 6.099 0 0 1-.405-.657 2.583 2.583 0 0 1-.216-.601.606.606 0 0 1-.006-.263c.003-.021.006-.048.049-.045 0 .163.036.322.093.476.128.351.315.67.535.97.043.062.08.127.107.197.057.133.111.267.168.4.006.012.004.04.035.028.025-.04.009-.084.003-.126-.022-.163-.078-.317-.129-.473a1.075 1.075 0 0 0-.234-.405c-.156-.17-.248-.376-.327-.59a.856.856 0 0 1-.04-.259c0-.019.005-.036.014-.053a.035.035 0 0 1 .03-.018c.013.003.022.01.026.022.006.031.008.062.007.093 0 .083.016.163.049.239.083.198.183.385.334.542a.92.92 0 0 1 .224.408c.02.08.047.157.072.235.007.023.013.047.04.056.008-.008.022-.015.025-.025.027-.09.052-.181.076-.272a.112.112 0 0 0-.003-.055.6.6 0 0 1-.01-.242.726.726 0 0 0-.009-.226c-.06-.324-.17-.63-.332-.918a35.907 35.907 0 0 1-.39-.71 3.954 3.954 0 0 1-.329-.882 2.798 2.798 0 0 1-.092-.895c.002-.025.006-.05 0-.075-.014-.069-.003-.137-.001-.206.005-.158.042-.311.073-.465.044-.203.114-.398.21-.583l-.002.003zm.976 7.7c.376-.075.759-.092 1.138-.14.182-.024.359-.062.523-.143.09-.044.176-.098.26-.152.073-.047.143-.1.216-.15a.194.194 0 0 0 .076-.097c-.035.01-.07.018-.103.03-.183.064-.371.11-.565.137-.279.037-.554.105-.83.162-.118.024-.222.085-.33.133-.138.06-.276.12-.403.187-.001.03.005.036.018.033zm-.197-.033c.223-.14.46-.253.706-.348.205-.078.417-.135.634-.17.197-.033.393-.075.593-.098.176-.02.338-.093.495-.17.118-.057.228-.133.34-.202.01-.006.014-.02.036-.051-.195-.01-.368.016-.542.03-.169.015-.337.036-.505.059a1.936 1.936 0 0 0-.505.142 6.74 6.74 0 0 0-.723.362c-.08.046-.166.085-.234.154a.109.109 0 0 1-.104.038l.005-.094c-.105.117-.209.23-.289.39.048-.02.072-.028.092-.042zm-.469.526a1.558 1.558 0 0 0-.901-.754c-.078-.026-.157-.045-.22-.1a.108.108 0 0 0-.032-.02c-.3-.118-.527-.336-.764-.542a1.169 1.169 0 0 0-.23-.16c.029.08.052.156.101.223.053.07.099.146.137.225.135.275.324.51.55.71.169.15.371.256.588.326.108.033.217.06.327.079.17.032.34.072.486.184.011-.07-.014-.122-.042-.171zm-.207-1.448c-.105-.107-.2-.224-.303-.333a2.225 2.225 0 0 1-.548-.956c-.03-.109-.047-.22-.05-.334 0-.008.015-.017.029-.032.032.058.026.122.044.178.02.06.037.12.055.18.01.037.016.075.033.108.126.253.25.508.447.718.195.21.39.417.57.647.01-.021.021-.033.02-.041a1.228 1.228 0 0 0-.127-.334 4.322 4.322 0 0 0-.391-.574 3.286 3.286 0 0 1-.46-.776c-.042-.098-.092-.193-.132-.292a2.84 2.84 0 0 1-.162-.502c-.007-.034-.007-.07-.037-.095a2.949 2.949 0 0 0-.005 1.284c.045.212.132.406.26.581l.142.2c.064.094.141.176.23.246.08.061.155.129.23.195.173.15.322.318.432.518.006.01.017.017.026.025.017 0 .024-.008.02-.023a1.3 1.3 0 0 0-.323-.588zm.746-.562c-.004.074-.061.142-.02.223.238-.365.57-.612.963-.782.086-.037.175-.068.264-.1.042-.014.086-.02.127.005a.047.047 0 0 1 .022.028c.001.008-.009.025-.016.027-.054.017-.11.027-.163.045-.185.063-.356.151-.526.25a1.754 1.754 0 0 0-.503.446 3.676 3.676 0 0 0-.224.325c-.03.047-.044.104-.063.156-.006.019 0 .038.03.063.254-.367.587-.644.937-.9.303-.221.637-.377 1-.469.25-.066.495-.142.739-.226a.834.834 0 0 0 .397-.275c.016-.02.025-.043.036-.065l-.001-.02c-.017-.028-.044-.018-.065-.01-.14.04-.283.05-.427.063-.25.021-.5.026-.752.012a.944.944 0 0 0-.334.049 3.299 3.299 0 0 0-.85.4 1.19 1.19 0 0 0-.251.224c-.006.008-.004.023-.008.044.068-.04.129-.08.193-.113.129-.064.26-.125.39-.188a.492.492 0 0 1 .07-.027 3.37 3.37 0 0 1 .908-.148c.26-.003.512-.036.74-.177a.08.08 0 0 1 .036-.007l.016.009c.005.01.013.026.009.033-.011.022-.023.048-.043.06a.943.943 0 0 1-.347.14c-.161.022-.322.053-.487.041a.463.463 0 0 0-.093.004c-.35.047-.698.1-1.011.278-.077.043-.157.08-.232.125-.164.097-.297.23-.413.38-.018.025-.046.052-.048.078z"/><path d="M58.915 90.803a2.585 2.585 0 0 1-.3.455 3.65 3.65 0 0 1-.522.516 3.274 3.274 0 0 1-.646.422c-.283.134-.57.267-.87.362-.054.017-.108.03-.161.05-.272.1-.539.21-.804.326a3.123 3.123 0 0 0-.574.323c-.168.121-.325.259-.486.389-.003.002 0 .012.001.022.158-.076.315-.15.47-.228.204-.101.419-.17.644-.205.192-.031.386-.043.581-.004.197.038.396.07.599.063.018 0 .039 0 .055.009.015.008.032.026.033.04 0 .014-.017.037-.031.04a.616.616 0 0 1-.243.007c-.2-.025-.398-.06-.599-.07a2 2 0 0 0-.916.18c-.225.1-.442.213-.654.338-.248.148-.496.295-.705.499l-.324.315-.135.131c-.007.006-.02.005-.03.007l-.013-.015c-.012-.027.002-.046.018-.067.225-.282.48-.533.776-.739a.586.586 0 0 0 .15-.141c.077-.11.179-.194.28-.278.088-.072.178-.14.263-.214.256-.218.538-.393.846-.525.277-.12.551-.246.842-.328.037-.01.073-.021.108-.034.188-.074.373-.15.561-.223.255-.096.486-.236.71-.388.166-.113.316-.248.462-.386.231-.218.408-.477.567-.75.012-.021.04-.047.008-.085l-.18.044c-.172.036-.344.075-.52.087-.2.014-.402.023-.602.009-.405-.028-.783.084-1.164.192-.152.043-.288.125-.432.187-.154.066-.277.17-.401.276-.034.028-.063.061-.097.09a.189.189 0 0 1-.049.027l-.017-.005c-.006-.009-.014-.024-.011-.03.015-.027.03-.055.053-.077.068-.065.137-.13.209-.19.139-.119.27-.245.423-.347.284-.19.594-.327.909-.454.128-.052.26-.096.383-.158.23-.116.456-.237.68-.365.228-.132.465-.25.667-.424.085-.073.171-.148.254-.225.29-.27.564-.554.74-.916.012-.024.053-.039.028-.077-.052-.006-.077.038-.11.063a1.944 1.944 0 0 1-.466.282c-.175.068-.359.117-.54.167-.23.062-.464.111-.693.177-.311.088-.601.221-.87.4l-.174.114c-.018-.042-.004-.07.022-.09.106-.076.211-.157.324-.225a3.42 3.42 0 0 1 .78-.329 1.6 1.6 0 0 1 .256-.064 1.36 1.36 0 0 0 .22-.05c.162-.05.324-.096.486-.146.114-.036.232-.066.332-.133.181-.124.362-.25.533-.387a.794.794 0 0 0 .26-.342c.019-.053.044-.104.065-.156.007-.021.021-.03.043-.028.029.005.04.029.036.056-.006.037-.01.075-.024.11a1.2 1.2 0 0 1-.225.344c-.048.054-.089.1-.1.173-.004.03-.023.058-.037.086a2.98 2.98 0 0 1-.19.324 3.731 3.731 0 0 1-.733.806 4.698 4.698 0 0 1-.412.327c-.14.096-.29.175-.437.259-.3.173-.609.329-.927.467-.207.088-.413.183-.62.276-.02.009-.05.017-.034.055a3.34 3.34 0 0 1 1.115-.15c.302.015.602-.002.9-.05.143-.023.281-.063.414-.122l.081-.038c.054.1.059.107.018.157-.052.065-.089.137-.127.21zm-5.842 4.783a3.627 3.627 0 0 1 1.093-.724c.143-.064.294-.106.44-.16.195-.073.397-.12.597-.174.311-.08.611-.191.9-.333.364-.183.688-.412.958-.718a.676.676 0 0 1 .068-.066c.013-.012.031-.024.05-.01.02.014.022.03.007.048l-.125.178c.024.09-.005.177-.045.264-.056.12-.106.243-.16.363-.12.266-.266.514-.485.712-.075.067-.154.129-.229.197a2.58 2.58 0 0 1-1.06.592 5.72 5.72 0 0 1-.422.103 4.05 4.05 0 0 0-.631.19 2.496 2.496 0 0 0-.67.38c-.034.027-.063.064-.113.062.001-.012-.002-.028.004-.035.069-.083.147-.155.235-.217a3.15 3.15 0 0 1 1.104-.467 5.55 5.55 0 0 0 .673-.181c.148-.054.29-.121.424-.204.293-.176.542-.403.768-.658.033-.037.063-.078.095-.117.124-.154.192-.338.28-.512a1.68 1.68 0 0 0 .12-.358c-.087.064-.161.112-.225.17-.213.192-.464.322-.72.442a5.81 5.81 0 0 1-.928.314c-.121.033-.244.061-.364.101a5.014 5.014 0 0 0-.8.332c-.212.114-.41.242-.596.394-.24.193-.462.405-.665.638-.03-.08.009-.118.041-.153.126-.132.253-.264.381-.393zm5.164-7.7a.642.642 0 0 0 .211-.058c.029-.013.057-.029.087-.034.206-.033.398-.116.6-.165.134-.034.263-.084.385-.15a.672.672 0 0 1 .086-.038c.26-.091.478-.248.674-.437a.69.69 0 0 1 .087-.07c.007-.005.026-.002.032.005a.035.035 0 0 1 .003.034 1.133 1.133 0 0 1-.239.24c-.116.085-.232.17-.363.233-.187.09-.374.182-.572.244-.342.107-.688.203-1.028.312-.15.048-.298.107-.434.185a3.732 3.732 0 0 0-.717.517l-.296.28c-.023-.036-.034-.058-.01-.081.057-.058.118-.113.172-.173.255-.287.58-.479.902-.674a.717.717 0 0 1 .139-.06c.055-.02.054-.083.095-.112l.077-.055c.19-.138.396-.243.619-.315.283-.089.55-.212.801-.37a2.4 2.4 0 0 0 .381-.273c.265-.247.463-.547.632-.861a4.18 4.18 0 0 1 .402-.636c.07-.088.143-.176.239-.239.016-.01.033-.02.052-.006 0 .062 0 .062-.02.08-.154.141-.285.301-.393.48-.07.113-.13.229-.193.345a3.86 3.86 0 0 1-.364.57c-.184.233-.381.448-.641.602a3.956 3.956 0 0 1-.761.371c-.222.074-.437.16-.642.271-.013.008-.014.02-.003.037zm-4.924.716a1.372 1.372 0 0 0-.232.669c-.015.259.011.513.077.764.008.03.013.063.028.09.073.133.114.279.177.416.12.257.133.532.156.807 0 .005-.016.014-.025.018l-.016-.006c-.008-.03-.02-.061-.02-.091a1.626 1.626 0 0 0-.088-.462 4.404 4.404 0 0 0-.21-.523 1.115 1.115 0 0 1-.083-.21 2.218 2.218 0 0 1-.068-.858c.01-.072.03-.146.005-.221a.326.326 0 0 0-.032.023 1.555 1.555 0 0 0-.38.766c-.025.148-.05.298-.061.447-.013.164-.001.326.035.486.06.251.13.499.2.746.074.262.107.53.12.8.005.118 0 .237-.002.356 0 .023-.012.035-.034.038-.03-.052-.022-.109-.023-.165a4.091 4.091 0 0 0-.151-1.041c-.075-.26-.143-.522-.214-.782a.897.897 0 0 1-.017-.093 2.061 2.061 0 0 1 .011-.562c.02-.15.051-.298.095-.442.073-.253.201-.474.384-.663a.183.183 0 0 1 .058-.046c.088-.036.132-.113.176-.189.026-.043.048-.089.074-.132a.472.472 0 0 1 .178-.164c.01-.007.032.004.049.005a.293.293 0 0 1-.014.052c-.005.01-.017.018-.025.027-.044.047-.094.088-.128.14zm-2.87 7.097c.055.162.129.313.23.45.195.263.385.529.56.805.183.292.29.61.302.958-.014.003-.031.01-.035.006-.01-.013-.023-.031-.024-.048-.025-.378-.202-.698-.403-1.004-.184-.284-.387-.556-.583-.832-.005-.008-.02-.01-.03-.015-.03.027-.02.068-.028.103a1.91 1.91 0 0 0-.049.692c.017.15.048.297.093.442.034.109.073.212.134.308.114.174.236.341.369.5.028.034.057.069.077.107.086.168.17.337.253.506.01.022.017.048-.022.058-.014-.02-.03-.04-.043-.06a4.878 4.878 0 0 0-.452-.67c-.093-.11-.173-.23-.255-.35a.742.742 0 0 1-.086-.166c-.165-.46-.23-.926-.094-1.405-.01-.07.035-.114.074-.15-.025-.079-.05-.15-.069-.223a.336.336 0 0 1-.013-.11c.002-.026.026-.041.056-.032l.03.01c-.02.04-.005.082.008.12zm-.01-.121.005-.007.005.004-.003.005-.006-.002zm1.302-4.062c-.029.02-.044.011-.054-.008-.024-.047-.008-.099-.01-.148-.003-.043.019-.088-.028-.149-.014.05-.027.079-.032.109-.044.266-.086.53-.072.803.014.26.06.51.142.755.047.136.075.28.126.414.048.128.095.258.135.39.063.21.131.418.196.628.01.03.017.06.022.092.019.117.037.235.051.353.006.047.014.096-.005.141-.022-.001-.041.002-.045-.004a.18.18 0 0 1-.027-.068 3.811 3.811 0 0 0-.17-.77 29.104 29.104 0 0 0-.14-.428c-.047-.143-.103-.283-.145-.427-.039-.132-.064-.269-.123-.395-.022-.044-.025-.097-.035-.146-.011-.055-.017-.112-.032-.166a.7.7 0 0 1-.028-.223c.002-.05 0-.1-.007-.15-.032-.272.026-.538.06-.805.004-.024.016-.047.026-.07l.136-.304c.092.043.1.048.085.1-.016.057-.015.112-.016.168-.002.105-.007.21-.01.309z"/><path d="M52.284 96.824c-.003-.068.031-.109.06-.148.11-.153.227-.3.37-.425.195-.169.407-.314.635-.435.237-.129.497-.21.774-.214.273-.002.537-.052.792-.149.323-.123.648-.242.922-.462.02-.018.036-.014.047.009a.042.042 0 0 1 0 .035c-.02.05-.064.076-.105.106-.13.091-.274.153-.417.217-.247.11-.488.23-.756.282-.136.027-.271.054-.41.053-.045 0-.089.006-.132.008-.178.009-.349.05-.51.124-.249.109-.473.261-.687.429a2.42 2.42 0 0 0-.463.467c-.029.04-.056.084-.12.103zm5.668-5.315a1.7 1.7 0 0 0 .262-.215l.3-.306c.025.003.034.021.032.039a.193.193 0 0 1-.061.115c-.12.12-.23.25-.366.35-.188.138-.38.27-.57.403a.615.615 0 0 1-.08.05 7.31 7.31 0 0 1-1.329.532c-.33.089-.64.222-.933.398-.016.01-.035.017-.053 0-.003-.01-.011-.026-.007-.032a.189.189 0 0 1 .052-.053c.31-.183.635-.333.987-.416.074-.017.149-.034.216-.067.114-.055.235-.089.351-.136.291-.117.585-.232.846-.411.118-.081.233-.17.352-.25zm-6.627.87c.025.026.02.058.012.088-.015.061-.036.12-.05.182-.04.173-.062.347-.048.524.015.169.036.337.061.504.023.15.072.293.124.434.078.213.169.42.299.609.05.071.094.147.15.215a.917.917 0 0 1 .165.295c.012.036.026.071.04.106.09.231.132.471.132.719 0 .009-.012.02-.02.028l-.014-.001c-.009-.016-.022-.033-.022-.05a2.112 2.112 0 0 0-.13-.568 2.037 2.037 0 0 0-.26-.52 2.878 2.878 0 0 1-.303-.498 3.61 3.61 0 0 1-.298-1.145 1.528 1.528 0 0 1 .024-.543c.01-.037.01-.075.01-.113 0-.008-.008-.016-.014-.024a30.4 30.4 0 0 1 .1-.22c.008-.016.019-.03.042-.021zm2.018-2.75c.02.111.052.22.081.328.077.292.207.565.308.849.068.189.13.38.184.572a.36.36 0 0 1 .01.093c0 .088.001.176-.006.263-.007.1-.022.2-.037.298-.007.04-.03.07-.09.061l.036-.346c.017-.17 0-.336-.053-.499a12.674 12.674 0 0 0-.214-.602c-.11-.293-.224-.584-.28-.895-.03-.173-.067-.347-.046-.523.018-.155.053-.308.083-.461.004-.016.021-.03.035-.048.01.02.027.04.023.053-.042.128-.022.262-.048.39-.033.158-.015.314.015.468zm7.217-4.566c-.176.005-.35.027-.525.045-.198.02-.377.1-.54.204a2.31 2.31 0 0 0-.513.466c-.048.058-.09.12-.136.18-.011.014-.025.024-.047.012.002-.017.001-.037.01-.052.157-.293.376-.53.656-.71.188-.122.393-.193.615-.214.206-.02.412-.035.618-.052.138-.01.274-.027.403-.081.029-.012.058-.023.09-.013.022.018.028.04.017.079-.208.083-.424.129-.648.136zm-3.462 1.041a.212.212 0 0 1-.008.003l.005-.008.004.004-.001.001zm.596-.47c.034-.029.067-.059.113-.063l.017.004c.004.01.011.025.007.034a.125.125 0 0 1-.033.045c-.19.163-.381.326-.575.486a.918.918 0 0 0-.233.268 1.855 1.855 0 0 0-.213.678c-.02.156-.03.312-.049.468-.021.174-.047.347-.072.521-.004.03-.016.06-.048.076-.034-.018-.03-.048-.027-.079.034-.28.072-.56.1-.84.016-.157.043-.31.083-.462.063-.228.15-.44.309-.617.012-.014.017-.033.025-.05.087-.031.153-.095.222-.153.126-.104.25-.21.374-.316zm-4.385 5.82c-.052-.16-.099-.322-.177-.473-.037-.072-.064-.15-.095-.225-.084-.209-.166-.764-.142-.98.002-.019.024-.026.053-.018.002.04.002.083.007.125.021.18.03.364.07.54.04.179.103.35.186.513.088.168.122.355.184.533a.257.257 0 0 1 .013.073c.01.25.024.502-.026.75-.02.099-.035.197-.053.295-.004.022-.023.03-.04.03-.01 0-.021-.015-.024-.026a.33.33 0 0 1 .008-.148c.056-.265.07-.534.063-.804a.648.648 0 0 0-.027-.185zm.741 2.973c-.075.046-.151.09-.215.151-.018.018-.04.028-.07.017.005-.017.006-.039.017-.05.039-.04.078-.08.123-.113.126-.092.26-.174.382-.271.125-.1.269-.16.413-.222a3.457 3.457 0 0 1 .998-.264c.093-.01.188-.019.278-.043.122-.032.246-.022.369-.045 0 .021.006.04 0 .044-.025.017-.052.037-.081.042-.16.03-.32.061-.482.078a3.614 3.614 0 0 0-.5.088c-.376.091-.732.227-1.043.464-.06.046-.124.085-.189.124zm-1.744-4.308a.04.04 0 0 1 .034.005c.007.006.013.024.01.031-.025.051-.044.107-.08.149a.459.459 0 0 0-.084.165c-.028.09-.066.176-.104.261-.047.104-.073.214-.1.323l-.03.127a2.247 2.247 0 0 0-.071.839c.028.23.049.462.107.687.006.022.016.05-.028.072-.08-.223-.103-.447-.142-.669a1.925 1.925 0 0 1-.014-.598c.014-.111.04-.221.061-.332.048-.247.141-.48.228-.716.035-.093.086-.18.133-.27.017-.031.041-.063.08-.074zm4.472 1.152a2.94 2.94 0 0 0-.953.333c-.075.043-.159.074-.231.124a.07.07 0 0 1-.073.01c-.016-.037.005-.059.033-.075.376-.218.763-.408 1.199-.474.192-.03.382-.079.577-.064a.914.914 0 0 0 .33-.05c.108-.03.213-.077.318-.116a.438.438 0 0 1 .072-.023.033.033 0 0 1 .03.012c.014.02.01.037-.011.05a.502.502 0 0 1-.098.052c-.089.034-.178.061-.266.096a.83.83 0 0 1-.33.061c-.202-.004-.4.028-.597.064z"/><path d="M52.743 96.562c.27-.237.569-.433.865-.632a.448.448 0 0 1 .179-.08c.025.02.025.041.013.054a.366.366 0 0 1-.073.057 7.444 7.444 0 0 0-.9.646c-.207.174-.39.37-.552.585-.074.1-.143.206-.218.314-.048-.048-.034-.083-.013-.116.077-.114.15-.23.232-.34.136-.182.298-.34.467-.488zm2.32-2.122c-.105.018-.208.044-.312.066a.054.054 0 0 1-.037-.003c-.009-.005-.013-.018-.017-.029l.007-.016a.489.489 0 0 1 .07-.024c.396-.093.792-.19 1.162-.369.17-.081.348-.145.5-.26l.3-.228c.028-.02.054-.055.097-.032l.004.019c-.012.022-.022.045-.038.062a1.96 1.96 0 0 1-.468.347c-.398.22-.817.389-1.268.467zm-1.465-5.493a2.504 2.504 0 0 0-.027.449c0 .075.006.15.021.223.05.251.09.505.163.751l-.005.018c-.052.02-.07-.018-.079-.054a35.195 35.195 0 0 1-.154-.638.976.976 0 0 1-.024-.186 2.843 2.843 0 0 1 .163-1.09c.048-.13.126-.244.204-.357.015-.02.041-.028.073-.017 0 .066-.043.115-.078.163-.161.221-.21.48-.257.739v-.001zm6.435-1.363c-.197.18-.42.316-.658.433a1.75 1.75 0 0 1-.686.189c-.076.004-.15.017-.224.026-.088.012-.175.024-.262.034-.027.002-.047-.013-.056-.045.013-.01.028-.025.044-.028.149-.023.297-.053.447-.065.351-.03.675-.14.97-.332.144-.09.277-.194.415-.292.031-.022.063-.043.094-.062.018-.011.044 0 .043.018 0 .012.001.029-.006.034-.04.032-.084.057-.12.09zm.067-1.257c-.285.261-.638.364-1.008.425l-.017-.004c-.016-.026-.015-.052.014-.061.077-.025.155-.048.235-.067.287-.066.545-.193.76-.395a2.052 2.052 0 0 0 .485-.64c.029-.058.06-.11.128-.128a.088.088 0 0 1-.01.073c-.05.095-.096.191-.151.283-.117.195-.27.36-.436.514zm-9.685 9.129a1.48 1.48 0 0 1-.067-.633c.002-.036.005-.077.05-.094.022-.008.033.027.028.09-.034.312.033.6.2.865.116.187.252.358.4.521.09.097.162.21.222.328.012.024.028.054.002.081-.008 0-.018 0-.02-.003a2.694 2.694 0 0 0-.367-.474 2.12 2.12 0 0 1-.384-.532c-.006-.013-.023-.02-.037-.03.018-.044-.013-.08-.027-.12zm1.043-2.74c-.002.032.001.07-.007.106a.8.8 0 0 0-.003.318c.033.204.067.408.143.603.057.146.102.297.151.446.048.143.103.282.19.407.018.026.038.051.033.086l-.009.011-.018.003c-.015-.01-.035-.017-.044-.03a1.38 1.38 0 0 1-.184-.35 8.642 8.642 0 0 0-.178-.515 3.15 3.15 0 0 1-.171-.731.727.727 0 0 1 .044-.35c.006-.018.029-.02.054-.005z"/><path d="m54.19 94.54-.01-.01-.002-.018c.007-.01.012-.023.023-.029.247-.152.511-.262.793-.332.17-.043.336-.097.503-.149.101-.03.204-.056.306-.084.024-.009.038 0 .042.025.005.022-.008.034-.026.043l-.017.007c-.167.055-.332.111-.5.162-.185.056-.374.103-.558.161a2.287 2.287 0 0 0-.414.178c-.043.024-.086.052-.14.047zm-3.302.637c-.091-.214-.135-.444-.206-.664-.005-.017-.003-.037-.004-.056-.01-.125-.01-.25 0-.376.014-.155.01-.312.047-.465.022-.09.043-.182.133-.236a.58.58 0 0 1-.016.071c-.088.26-.067.533-.094.8-.003.037.006.075.009.113.015.188.058.37.115.55.023.072.044.145.062.217.007.025-.003.05-.033.058l-.013-.012zm6.777-4.207a2.774 2.774 0 0 0-1.071.143c-.036.013-.072.03-.108.031-.116.003-.218.052-.324.09-.046.017-.09.035-.133.05-.018-.026-.007-.044.008-.053.103-.06.21-.113.327-.14.14-.032.283-.06.419-.106.315-.103.634-.121.953-.088.018.026.018.047 0 .056a.144.144 0 0 1-.071.017zm.737-.098c.044-.036.09-.07.157-.07.006.052-.023.068-.048.086-.146.109-.301.206-.435.328-.199.18-.434.294-.666.417a.187.187 0 0 1-.07.024c-.028.002-.064.004-.059-.044a2.01 2.01 0 0 0 .617-.351c.164-.136.339-.257.504-.39zm-.64-2.572a.263.263 0 0 1 .163-.032c.01.001.02.016.022.027a.033.033 0 0 1-.01.032.21.21 0 0 1-.065.034c-.13.033-.244.096-.353.173-.128.09-.26.173-.39.26-.037-.02-.046-.051-.014-.074.148-.106.298-.209.45-.31.062-.041.13-.074.197-.11zm-4.03 3.731c.03.252.013.5-.052.745a.358.358 0 0 1-.043.103c-.014.02-.035.053-.078.017.098-.296.135-.599.11-.91.025 0 .034-.003.036 0 .01.015.026.029.027.046zm-4.537 5.63-.001.003-.004-.005.001-.004.004.007z"/><path d="M49.236 97.46c.028.101.049.191.078.278.03.09.066.177.108.261.046.09.1.174.157.257.051.078.11.152.166.228-.041.023-.065 0-.082-.023a3.48 3.48 0 0 1-.158-.21c-.113-.167-.227-.334-.28-.532-.004-.02-.019-.038-.03-.057.036-.057-.02-.132.04-.202h.001zm1.631 3.371c-.159-.219-.385-.34-.64-.418a1.283 1.283 0 0 1-.513-.3c-.004-.005.003-.02.005-.03.022-.014.033.005.048.014.13.086.268.166.42.204.166.042.315.118.463.196a.65.65 0 0 1 .254.267c.018.03.012.06-.037.067zm-.775-.414c.093.032.175.095.262.143.038.02.08.034.12.054a.312.312 0 0 1 .063.04c.007.01.009.02.005.032-.004.009-.017.02-.027.02a.421.421 0 0 1-.192-.068 3.899 3.899 0 0 0-.418-.212.751.751 0 0 1-.116-.062c-.026-.016-.036-.039-.028-.068.017.003.037.003.052.01.091.043.184.078.279.112v-.001zm-.61-.48c-.015-.009-.033-.016-.046-.028a8.817 8.817 0 0 1-.196-.192c-.006-.007-.007-.028-.001-.033.012-.014.03-.019.047-.004.076.07.152.14.227.213.006.006.007.025.002.034-.004.006-.02.006-.033.01z"/></g></g></g></g></g></g></g></g></g></g><clipPath id="r"><path transform="matrix(.24 0 0 .24 9.84 40.08)" d="M13.893 94.563h547.3v384.373h-547.3z" fill-rule="evenodd"/></clipPath><g clip-path="url(#r)"><path d="m81.322 117.135-.18-41.162c15.706-13.2 42.183-7.406 52.622 3.225-8.288-6.597-33.18-13.83-49.343-1.4l-3.099 39.337m-4.938 0 .18-41.162c-15.705-13.2-42.182-7.406-52.622 3.225 8.288-6.597 33.18-13.83 49.344-1.4l3.098 39.337" fill="#009736"/></g><clipPath id="s"><path transform="matrix(.24 0 0 .24 9.84 40.08)" d="M297.87 217.316h263.274v246.947H297.87z" fill-rule="evenodd"/></clipPath><g clip-path="url(#s)"><path d="M81.359 139.43c9.386-6.587 22.333-7.622 33.452-4.807 11.118 2.814 21.02 9.24 29.703 16.728l-7.46-59.024 4.568 52.031s-12.897-10.66-30.4-12.826c-21.028-2.602-29.863 7.898-29.863 7.898" fill="#009736"/></g><clipPath id="t"><path transform="matrix(.24 0 0 .24 9.84 40.08)" d="M13.893 94.563h547.3v384.373h-547.3z" fill-rule="evenodd"/></clipPath><g clip-path="url(#t)"><path d="M76.347 139.43c-9.385-6.587-22.332-7.622-33.452-4.807-11.118 2.814-21.02 9.24-29.703 16.728l7.46-59.024-4.568 52.031s12.897-10.66 30.4-12.826c21.028-2.602 29.863 7.898 29.863 7.898" fill="#009736"/></g><clipPath id="u"><path transform="matrix(.24 0 0 .24 9.84 40.08)" d="M.69.087h573.69v573.69H.69z"/></clipPath><g clip-path="url(#u)"><clipPath id="v"><path transform="matrix(.24 0 0 .24 9.84 40.08)" d="M.69.087h573.69v573.69H.69z"/></clipPath><g clip-path="url(#v)"><clipPath id="w"><path transform="matrix(.24 0 0 .24 9.84 40.08)" d="M.69.087h573.69v573.69H.69z"/></clipPath><g clip-path="url(#w)"><clipPath id="x"><path transform="matrix(.24 0 0 .24 9.84 40.08)" d="M23.638 408.555h526.265v71.902H23.638z"/></clipPath><g clip-path="url(#x)"><clipPath id="y"><path transform="matrix(.24 0 0 .24 9.84 40.08)" d="M25.113 409.895h524.532v69.04H25.114v-69.04z"/></clipPath><g clip-path="url(#y)"><path d="M106.76 138.55c-13.277-.36-22.332 5.652-26.056 8.707a2.895 2.895 0 0 1-1.851.663 2.895 2.895 0 0 1-1.851-.663c-3.723-3.055-12.779-9.067-26.055-8.707-16.496.448-30.436 11.957-34.924 16.478h4.359c5.725-5.336 16.933-12.96 30.842-12.915 9.61.032 16.91 3.47 21.585 6.62.388.26.691.597.91 1.009.22.412.33.851.33 1.318a2.806 2.806 0 0 0 2.807 2.805h3.994a2.806 2.806 0 0 0 2.808-2.805c0-.467.11-.906.329-1.318.22-.412.523-.749.91-1.009 4.676-3.15 11.975-6.588 21.586-6.62 13.908-.046 26.69 7.818 33.13 12.915h2.07c-4.488-4.52-18.428-16.03-34.924-16.478" fill="#ff0800"/></g></g></g></g></g><clipPath id="z"><path transform="matrix(.24 0 0 .24 9.84 40.08)" d="M55.107.087H574.38v345.714H55.107z" fill-rule="evenodd"/></clipPath><g clip-path="url(#z)"><path d="M37.221 115.08H27.157v5.865a6.218 6.218 0 0 0-2.248.674 6.218 6.218 0 0 0-1.843 1.453V112.98h1.636v-11.346h7.91c.277.001.55.037.818.11.818.217 1.2.817 1.2 1.69v9.52h2.619v2.127m-6.82-2.128v-8.973c0-.628-.545-.955-1.663-.955v9.955h1.664v-.027z" fill="#1c1d1c"/></g><clipPath id="A"><path transform="matrix(.24 0 0 .24 9.84 40.08)" d="M107.599.087H574.38V312.45H107.599z" fill-rule="evenodd"/></clipPath><g clip-path="url(#A)"><path d="M35.664 115.068v-2.1h2.563V91.884c1.622-.198 2.986-.898 4.092-2.1v23.184h2.618v2.1h-9.273z" fill="#1c1d1c"/></g><clipPath id="B"><path transform="matrix(.24 0 0 .24 9.84 40.08)" d="M162.09.087h412.29V347.3H162.09z" fill-rule="evenodd"/></clipPath><g clip-path="url(#B)"><path d="M53.242 119.995c0 .6-.164.982-.464 1.146l-4.036 2.29c.01-.284.073-.557.19-.817.193-.225.42-.407.682-.546l3.628-2.073z" fill="#1c1d1c"/></g><clipPath id="C"><path transform="matrix(.24 0 0 .24 9.84 40.08)" d="M139.949.087H574.38V312.45H139.949z" fill-rule="evenodd"/></clipPath><g clip-path="url(#C)"><path d="M58.102 115.068H43.428v-2.1h5.864a4.244 4.244 0 0 0-1.41-1.594 4.244 4.244 0 0 0-2-.725v-7.527c0-1.091 1.719-1.61 5.128-1.61 3.219 0 4.828.546 4.828 1.61v7.527a4.63 4.63 0 0 0-2.004.754 4.63 4.63 0 0 0-1.46 1.565h5.728v2.1m-6.437-2.1v-9.546c0-.3-.273-.464-.819-.464-.545 0-.818.164-.818.464v9.546h1.637z" fill="#1c1d1c"/></g><clipPath id="D"><path transform="matrix(.24 0 0 .24 9.84 40.08)" d="M194.662.087H574.38V312.45H194.66z" fill-rule="evenodd"/></clipPath><g clip-path="url(#D)"><path d="M56.559 115.068v-2.1h2.564v-20.92c1.63-.196 2.994-.905 4.09-2.128v25.148H56.56z" fill="#1c1d1c"/></g><clipPath id="E"><path transform="matrix(.24 0 0 .24 9.84 40.08)" d="M227.956.087H574.38v323.407H227.956z" fill-rule="evenodd"/></clipPath><g clip-path="url(#E)"><path d="M68.668 116.191c.245.641.654 1.15 1.227 1.528-3.545 0-5.346-.9-5.346-2.673V91.889c1.639-.18 3.012-.88 4.119-2.1v26.402z" fill="#1c1d1c"/></g><clipPath id="F"><path transform="matrix(.24 0 0 .24 9.84 40.08)" d="M310.437.087h263.944V312.45H310.437z" fill-rule="evenodd"/></clipPath><g clip-path="url(#F)"><path d="M92.664 96.903v1.418c0 .491-.246.737-.737.737H90.51c-.49 0-.71-.273-.71-.737v-1.418c0-.464.22-.71.71-.71h1.418c.491 0 .737.246.737.71m-3.355 0v1.418c0 .491-.273.737-.736.737h-1.446c-.464 0-.71-.273-.71-.737v-1.418c0-.464.246-.71.71-.71h1.446c.49 0 .736.246.736.71m7.582 18.165H84.345V103.34c0-1.364 1.09-2.019 3.218-2.019H94.3v11.647h2.591v2.1m-6.764-2.1v-10.092c-.365 0-.71.081-1.036.246-.382.19-.628.436-.628.709v9.137h1.664z" fill="#1c1d1c"/></g><clipPath id="G"><path transform="matrix(.24 0 0 .24 9.84 40.08)" d="M354.994.087H574.38v332.174H354.994z" fill-rule="evenodd"/></clipPath><g clip-path="url(#G)"><path d="M95.038 115.077v-2.1h2.428v-9.383c1.718-.273 3.11-.954 4.118-2.127v13.61h-6.546m3.819 4.037c0 .436-.273.709-.791.709h-1.391c-.491 0-.736-.246-.736-.71v-1.472c0-.464.245-.71.736-.71h1.418c.491.028.764.273.764.737v1.446m3.11 0c-.028.436-.273.709-.737.709h-1.446c-.49 0-.736-.246-.736-.71v-1.472c0-.464.273-.71.736-.71h1.446c.464.028.71.273.71.737v1.446h.026z" fill="#1c1d1c"/></g><clipPath id="H"><path transform="matrix(.24 0 0 .24 9.84 40.08)" d="M387.734.087H574.38v325.348H387.734z" fill-rule="evenodd"/></clipPath><g clip-path="url(#H)"><path d="M111.76 101.383v-.109 14.32c.028 1.309-1.145 2.127-3.573 2.481a19.958 19.958 0 0 1-5.29-.763c3.19.109 4.772-.6 4.718-2.128v-11.81a6.437 6.437 0 0 0 2.276-.704 6.437 6.437 0 0 0 1.87-1.478v.218-.027z" fill="#1c1d1c"/></g><clipPath id="I"><path transform="matrix(.24 0 0 .24 9.84 40.08)" d="M430.127.087h144.254V312.45H430.127z" fill-rule="evenodd"/></clipPath><g clip-path="url(#I)"><path d="M113.07 115.068V89.811a6.492 6.492 0 0 0 1.878 1.446c.714.366 1.47.594 2.268.682v21.002h2.537v2.127h-6.682z" fill="#1c1d1c"/></g><clipPath id="J"><path transform="matrix(.24 0 0 .24 9.84 40.08)" d="M450.714.087h123.667v312.308H450.714z" fill-rule="evenodd"/></clipPath><g clip-path="url(#J)"><path d="m130.53 101.526.028-.109v11.538h1.664v-9.41a6.492 6.492 0 0 0 2.283-.678c.72-.367 1.35-.85 1.89-1.45v13.638H118.01v-2.1h2.537v-9.438a6.355 6.355 0 0 0 2.273-.673 6.355 6.355 0 0 0 1.873-1.454v11.565h1.69v-9.438a6.465 6.465 0 0 0 2.27-.68 6.465 6.465 0 0 0 1.877-1.447v.136z" fill="#1c1d1c"/></g><clipPath id="K"><path transform="matrix(.24 0 0 .24 9.84 40.08)" d="M.69.087h573.69v573.69H.69z"/></clipPath><g clip-path="url(#K)"><clipPath id="L"><path transform="matrix(.24 0 0 .24 9.84 40.08)" d="M.69.087h573.69v573.69H.69z"/></clipPath><g clip-path="url(#L)"><clipPath id="M"><path transform="matrix(.24 0 0 .24 9.84 40.08)" d="M.69.087h573.69v573.69H.69z"/></clipPath><g clip-path="url(#M)"><clipPath id="N"><path transform="matrix(.24 0 0 .24 9.84 40.08)" d="M.69.087h573.69v585.164H.69z"/></clipPath><g clip-path="url(#N)"><clipPath id="O"><path transform="matrix(.24 0 0 .24 9.84 40.08)" d="M.69.087h573.69v573.69H.69z"/></clipPath><g clip-path="url(#O)"><clipPath id="P"><path transform="matrix(.24 0 0 .24 9.84 40.08)" d="M.69.087h573.69v573.69H.69z"/></clipPath><g clip-path="url(#P)"><clipPath id="Q"><path transform="matrix(.24 0 0 .24 9.84 40.08)" d="M416.807 171.43h76.492v74.961h-76.492z"/></clipPath><g clip-path="url(#Q)"><clipPath id="R"><path transform="matrix(.24 0 0 .24 9.84 40.08)" d="m418.309 175.236 71.08-2.867 2.866 71.08-71.08 2.867-2.866-71.08z"/></clipPath><g clip-path="url(#R)"><clipPath id="S"><path transform="matrix(.24 0 0 .24 9.84 40.08)" d="M416.807 171.43h76.492v74.961h-76.492z"/></clipPath><g clip-path="url(#S)"><clipPath id="T"><path transform="matrix(.24 0 0 .24 9.84 40.08)" d="m418.309 175.236 71.08-2.867 2.866 71.08-71.08 2.867-2.866-71.08z"/></clipPath><g clip-path="url(#T)"><clipPath id="U"><path transform="matrix(.24 0 0 .24 9.84 40.08)" d="M416.807 171.43h76.492v74.961h-76.492z"/></clipPath><g clip-path="url(#U)"><clipPath id="V"><path transform="matrix(.24 0 0 .24 9.84 40.08)" d="m418.309 175.236 71.08-2.867 2.866 71.08-71.08 2.867-2.866-71.08z"/></clipPath><g clip-path="url(#V)"><path stroke-width=".55514592" fill="none" stroke="#000" d="M111.148 83.31a.68.68 0 0 1 .097.125l.048.08a2.597 2.597 0 0 1 .28.596l.083.246c.018.055.035.113.051.175l.048.176c.015.052.027.108.037.167.014.076.026.132.037.168.026.08.045.162.059.245l.034.205.05.249c.006.028.012.063.016.107.004.036.01.072.016.107"/><path stroke-width=".55514592" fill="none" stroke="#6eb192" d="M112.004 85.956a.18.18 0 0 0 .02.103"/><path stroke-width=".55514592" fill="none" stroke="#817c63" d="M112.023 86.059c.015.071.033.143.054.213.008.028.017.089.029.183.004.04.013.081.025.125.031.115.054.232.066.35a1.196 1.196 0 0 0 .037.18c.024.07.04.124.047.159.02.097.043.192.07.287.006.02.019.071.038.153.013.057.031.114.054.173.032.08.077.205.136.373a.066.066 0 0 1 .002.018c0 .007.002.013.006.019l.013.022.06.157c.011.03.023.068.035.112.01.037.02.075.033.112.013.045.02.087.018.128a.1.1 0 0 0 .005.039.174.174 0 0 1 .01.036l.012.084a.527.527 0 0 1-.002-.097c-.002.014.001.025.01.033a.012.012 0 0 1 .004.01.226.226 0 0 0 .006.064.311.311 0 0 1 .012.061c.002.047.007.093.014.14"/><path stroke-width=".55514592" fill="none" stroke="#4ab68a" d="M112.817 89.193c-.002.017-.005.017-.01-.002-.002-.004-.002-.004-.002 0l.005.2"/><path stroke-width=".55514592" fill="none" stroke="#817c63" d="M112.81 89.39a.338.338 0 0 0-.026.142c.001.05.002.08 0 .09a1.013 1.013 0 0 1-.022.137.913.913 0 0 1-.04.116 1.38 1.38 0 0 0-.042.117"/><path stroke-width=".55514592" fill="none" stroke="#4ab68a" d="M112.68 89.992a.126.126 0 0 0-.024.054"/><path stroke-width=".55514592" fill="none" stroke="#817c63" d="M112.656 90.046a.037.037 0 0 0-.005.018"/><path stroke-width=".55514592" fill="none" stroke="#4ab68a" d="m112.65 90.064-.02.065"/><path stroke-width=".55514592" fill="none" stroke="#817c63" d="m112.63 90.13-.03.118"/><path stroke-width=".55514592" fill="none" stroke="#4ab68a" d="M112.6 90.248a.178.178 0 0 0-.02.064"/><path stroke-width=".55514592" fill="none" stroke="#817c63" d="M112.58 90.312a3.075 3.075 0 0 0-.063.276"/><path stroke-width=".55514592" fill="none" stroke="#4ab68a" d="M112.517 90.588c0-.028-.003-.028-.008.002a.026.026 0 0 1-.002.007.076.076 0 0 0-.006.05"/><path stroke-width=".55514592" fill="none" stroke="#817c63" d="M112.501 90.648a.093.093 0 0 0-.005.05c-.004-.012-.006-.002-.002.028a2.696 2.696 0 0 0-.035.221"/><path stroke-width=".55514592" fill="none" stroke="#4ab68a" d="M112.46 90.947a.246.246 0 0 0-.017.092"/><path stroke-width=".55514592" fill="none" stroke="#817c63" d="M112.443 91.04a.193.193 0 0 0-.009.08.144.144 0 0 1-.004.062"/><path stroke-width=".55514592" fill="none" stroke="#4ab68a" d="M112.43 91.182a3.403 3.403 0 0 0-.009.157 2.048 2.048 0 0 1-.01.157 4.862 4.862 0 0 0-.028.623.017.017 0 0 1-.003.01.024.024 0 0 0-.005.016l.005.1"/><path stroke-width=".55514592" fill="none" stroke="#817c63" d="M112.38 92.245a.103.103 0 0 1 0 .04.409.409 0 0 0-.008.04.652.652 0 0 1-.016.099"/><path stroke-width=".55514592" fill="none" stroke="#6eb192" d="M112.356 92.424c-.003-.02-.005-.022-.007-.007a7.62 7.62 0 0 0-.018.212"/><path stroke-width=".55514592" fill="none" stroke="#817c63" d="M112.331 92.63a.357.357 0 0 1-.019.07.3.3 0 0 0-.01.049.41.41 0 0 1-.009.048 2.49 2.49 0 0 0-.051.26c-.002.01-.003.01-.005-.002 0-.002 0-.002 0 0-.013.049-.026.113-.04.193a1 1 0 0 1-.032.121"/><path stroke-width=".55514592" fill="none" stroke="#4ab68a" d="M112.165 93.37a.124.124 0 0 0-.02.08"/><path stroke-width=".55514592" fill="none" stroke="#817c63" d="m112.145 93.45-.01.039"/><path stroke-width=".55514592" fill="none" stroke="#4ab68a" d="M112.134 93.489a.107.107 0 0 1-.011.04.058.058 0 0 0-.005.043"/><path stroke-width=".55514592" fill="none" stroke="#817c63" d="m112.118 93.572-.021.066"/><path stroke-width=".55514592" fill="none" stroke="#4ab68a" d="M112.097 93.637c-.002-.034-.004-.039-.004-.015 0 .003 0 .005-.002.007a.487.487 0 0 0-.025.102"/><path stroke-width=".55514592" fill="none" stroke="#817c63" d="m112.066 93.731-.036.11"/><path stroke-width=".55514592" fill="none" stroke="#6eb192" d="m112.03 93.84-.039.115"/><path stroke-width=".55514592" fill="none" stroke="#817c63" d="m111.991 93.955-.042.146"/><path stroke-width=".55514592" fill="none" stroke="#4ab68a" d="M111.95 94.1a.161.161 0 0 0-.024.07"/><path stroke-width=".55514592" fill="none" stroke="#817c63" d="M111.926 94.17a3.91 3.91 0 0 0-.05.143 32.96 32.96 0 0 1-.228.59.844.844 0 0 1-.055.111.041.041 0 0 0-.007.023c0 .013.008.019.022.018a.498.498 0 0 0 .204-.05"/><path stroke-width=".55514592" fill="none" stroke="#14b46d" d="M111.812 95.004a.513.513 0 0 1 .127-.012l.196.007c.065.001.13.005.197.01.12.01.24.017.36.023.063.003.125.009.187.018.081.012.141.02.18.023l.263.021c.076.007.152.017.227.03.048.01.13.014.245.014.194 0 .39-.005.584-.013.108-.005.187-.007.235-.006.13.003.278.015.442.036.219.028.412.07.579.128.133.046.317.115.548.205a9.9 9.9 0 0 0 1.042.34c.127.033.255.058.386.073l.222.024c.122.012.244.017.366.013a3.754 3.754 0 0 1 .587.027c.141.014.282.02.424.017l.38-.006c.054 0 .12.003.201.01.12.01.262.019.427.028.08.003.158.011.234.022l.354.048c.081.01.16.022.233.034l.255.042a3.035 3.035 0 0 0 .432.04c.32-.004.703-.024 1.146-.058.13-.01.297-.015.5-.015.137 0 .279-.014.428-.044l.167-.033c.097-.016.194-.026.292-.03l.228-.009c.076-.004.152-.003.228.004.068.008.134.022.2.04l.093.024c.032.008.064.019.095.032.227.092.436.215.628.366l.063.05c.135.105.27.208.407.309.028.02.068.044.12.073.02.01.039.015.057.014a.014.014 0 0 0 .01-.005.18.18 0 0 0 .035-.05c.065-.148.125-.277.18-.387.138-.274.238-.558.299-.85a.927.927 0 0 0 .017-.128 5.24 5.24 0 0 0 .013-.322 2.74 2.74 0 0 0-.008-.236 4.824 4.824 0 0 0-.049-.407l-.01-.048a.281.281 0 0 1-.005-.085c.001-.01 0-.018-.003-.026a.108.108 0 0 1-.008-.024.166.166 0 0 0-.043-.09.022.022 0 0 1-.005-.024c.008-.024.001-.045-.02-.066"/><path stroke-width=".55514592" fill="none" stroke="#59d3a8" d="M126.78 94.176a1.022 1.022 0 0 0-.016-.164.114.114 0 0 1-.002-.046"/><path stroke-width=".55514592" fill="none" stroke="#4ab68a" d="M126.762 93.966a.154.154 0 0 0-.014-.112"/><path stroke-width=".55514592" fill="none" stroke="#59d3a8" d="M126.748 93.854a1.91 1.91 0 0 0-.034-.136.068.068 0 0 0-.046-.05.009.009 0 0 1-.006-.007l-.001-.028c0-.01 0-.022.004-.033a.16.16 0 0 0 .001-.067"/><path stroke-width=".55514592" fill="none" stroke="#85edcb" d="M126.666 93.533c.01-.072.014-.145.015-.218-.013-.24-.022-.479-.026-.719-.001-.062-.003-.124-.007-.186a.363.363 0 0 1 .015-.144c.027-.073.05-.147.066-.224.01-.047.02-.117.028-.21.007-.088.016-.175.029-.26a.678.678 0 0 0 0-.182 7.645 7.645 0 0 0-.1-.609 2.7 2.7 0 0 1-.037-.223 2.838 2.838 0 0 0-.058-.254.512.512 0 0 1-.016-.107l-.005-.12"/><path stroke-width=".55514592" fill="none" stroke="#4ab68a" d="M126.57 90.077a.068.068 0 0 1 .022-.048"/><path stroke-width=".55514592" fill="none" stroke="#147b59" d="M126.592 90.03c.015-.017.018-.034.007-.052a.986.986 0 0 1-.11-.22 2.003 2.003 0 0 1-.063-.176l-.038-.122a1.074 1.074 0 0 1-.038-.168 3.15 3.15 0 0 1-.03-.582.935.935 0 0 1 .03-.205c.02-.072.042-.142.067-.212.05-.127.127-.312.233-.554.057-.132.112-.264.165-.396a.571.571 0 0 0 .032-.111c.004-.019-.004-.032-.021-.038-.12-.046-.24-.09-.361-.133a1.959 1.959 0 0 1-.257-.113c-.16-.082-.322-.16-.485-.234a1.767 1.767 0 0 0-.47-.127.605.605 0 0 1-.08-.014 1.3 1.3 0 0 0-.23-.044 4.047 4.047 0 0 1-.249-.028 1.624 1.624 0 0 0-.173-.018 5.01 5.01 0 0 0-.426.003 14.73 14.73 0 0 1-.592.016 2.481 2.481 0 0 1-.264-.01l-.153-.022c-.07-.01-.14-.014-.21-.013a1.692 1.692 0 0 1-.377-.04 2.613 2.613 0 0 0-.16-.022 1.12 1.12 0 0 1-.235-.04.916.916 0 0 0-.22-.03 1.463 1.463 0 0 1-.158-.023 1.369 1.369 0 0 0-.159-.02 2.437 2.437 0 0 1-.26-.023 2.803 2.803 0 0 1-.43-.127 17.512 17.512 0 0 0-.327-.124 4.778 4.778 0 0 0-.546-.16 3.367 3.367 0 0 1-.28-.076 1.52 1.52 0 0 1-.535-.309 1.192 1.192 0 0 0-.45-.251 9.938 9.938 0 0 0-.576-.155l-.54-.129a2.587 2.587 0 0 0-.134-.027 3.151 3.151 0 0 1-.134-.027 7.911 7.911 0 0 0-.2-.042 40.919 40.919 0 0 1-.59-.114 3.692 3.692 0 0 0-.115-.02 1.858 1.858 0 0 1-.115-.023l-.122-.028-.54-.114a1.59 1.59 0 0 0-.188-.04 2.092 2.092 0 0 1-.14-.028 23.404 23.404 0 0 1-.376-.088 3.569 3.569 0 0 0-.153-.033 1.747 1.747 0 0 1-.142-.035 2.41 2.41 0 0 0-.142-.036 10.18 10.18 0 0 1-.377-.09c-.454-.119-.83-.217-1.13-.298a7.388 7.388 0 0 1-.227-.064l-.55-.168-.094-.032a1.04 1.04 0 0 0-.204-.046.43.43 0 0 1-.129-.038c-.105-.048-.21-.098-.315-.148"/><path stroke-width=".55514592" fill="none" stroke="#817c63" d="m111.506 83.389-.044-.024"/><path stroke-width=".55514592" fill="none" stroke="#6eb192" d="M111.462 83.365a.608.608 0 0 0-.105-.078.256.256 0 0 1-.047-.037.26.26 0 0 0-.095-.059"/><path stroke-width=".55514592" fill="none" stroke="#4ab68a" d="M111.215 83.191a.552.552 0 0 0-.114-.073"/><path stroke-width=".55514592" fill="none" stroke="#6eb192" d="M111.101 83.118a.188.188 0 0 0-.078-.044c-.014-.004-.025-.005-.033-.001-.012.005-.018.016-.017.034a.104.104 0 0 0 .029.079c.045.045.094.086.146.123"/><path stroke-width=".55514592" fill="none" stroke="#a88a83" d="M111.101 83.118c.02.019.037.043.052.072.003.005.007.007.012.007l.05-.006"/><path stroke-width=".55514592" fill="none" stroke="#df505c" d="M111.462 83.365a.417.417 0 0 1-.175-.058.171.171 0 0 0-.066-.02.024.024 0 0 1-.01-.005c-.025-.016-.047-.014-.066.009-.002.002-.002.005 0 .009a.018.018 0 0 1 .003.01"/><path stroke-width=".55514592" fill="none" stroke="#851a23" d="m111.506 83.389-.03-.001c-.004 0-.006.002-.006.006l-.002.08c0 .003.001.006.005.009a.61.61 0 0 0 .053.032c.023.013.05.034.08.062.02.019.041.035.063.05a.357.357 0 0 1 .062.056c.017.02.034.039.05.054l.054.05c.04.04.08.079.123.115"/><path stroke-width=".55514592" fill="none" stroke="#b01d26" d="M111.958 83.902a.54.54 0 0 0 .08.078"/><path stroke-width=".55514592" fill="none" stroke="#851a23" d="m112.039 83.98.131.125"/><path stroke-width=".55514592" fill="none" stroke="#b01d26" d="M112.17 84.105c.023.033.05.06.082.083"/><path stroke-width=".55514592" fill="none" stroke="#851a23" d="M112.252 84.188c.049.05.1.1.153.146.04.036.082.074.124.115.034.034.076.072.124.116.092.083.254.241.489.474l.17.163c.075.072.148.146.22.221"/><path stroke-width=".55514592" fill="none" stroke="#b01d26" d="M113.532 85.423c.093.102.19.199.292.292"/><path stroke-width=".55514592" fill="none" stroke="#851a23" d="M113.824 85.715c.077.088.13.148.16.18.198.202.39.41.577.622l.152.18c.237.294.381.474.43.54a76 76 0 0 0 .617.808c.004.006.014.011.027.015l.044.013"/><path stroke-width=".55514592" fill="none" stroke="#f68c95" d="m115.83 88.073-.03.002c-.003 0-.005.002-.006.006a.075.075 0 0 0 .001.03.05.05 0 0 0 .018.023.283.283 0 0 1 .033.031 125.893 125.893 0 0 0 .506.584c.256.282.509.567.758.855l.167.198c.122.145.24.294.351.448l.024.03c.011.014.02.028.027.043.005.011.003.02-.007.027-.102.068-.2.13-.292.187a4.136 4.136 0 0 0-.393.273 5.456 5.456 0 0 1-.336.246 2.943 2.943 0 0 1-.222.133c-.089.048-.168.094-.238.138-.073.048-.139.103-.199.167-.052.058-.101.12-.148.182a3.592 3.592 0 0 1-.317.36"/><path stroke-width=".55514592" fill="none" stroke="#df505c" d="M115.527 92.036c-.027.028-.023.04.01.036"/><path stroke-width=".55514592" fill="none" stroke="#855337" d="M115.538 92.072a.126.126 0 0 1-.053.02.01.01 0 0 0-.008.006.167.167 0 0 1-.026.038.214.214 0 0 0-.028.035.69.69 0 0 1-.058.085"/><path stroke-width=".55514592" fill="none" stroke="#b01d26" d="M115.365 92.256a.583.583 0 0 0-.077.106l-.032.051a.214.214 0 0 0-.026.057"/><path stroke-width=".55514592" fill="none" stroke="#855337" d="M115.23 92.47a2.268 2.268 0 0 0-.138.18.455.455 0 0 1-.134.114"/><path stroke-width=".55514592" fill="none" stroke="#b01d26" d="M114.958 92.764a.057.057 0 0 0-.054.04"/><path stroke-width=".55514592" fill="none" stroke="#855337" d="M114.904 92.804a.032.032 0 0 1-.023.016.023.023 0 0 0-.011.004 1.25 1.25 0 0 0-.057.048 1.16 1.16 0 0 1-.056.048.57.57 0 0 0-.05.044.568.568 0 0 1-.048.045l-.081.063a.565.565 0 0 0-.074.072l-.062.07a.617.617 0 0 0-.053.077.65.65 0 0 1-.31.264"/><path stroke-width=".55514592" fill="none" stroke="#b03d3b" d="M114.08 93.555a.135.135 0 0 0-.064.025.02.02 0 0 1-.011.004.068.068 0 0 0-.051.025"/><path stroke-width=".55514592" fill="none" stroke="#855337" d="M113.954 93.61a.76.76 0 0 0-.093.044.112.112 0 0 1-.039.012.095.095 0 0 0-.04.013.092.092 0 0 1-.037.016.02.02 0 0 0-.01.004.123.123 0 0 1-.057.024c-.015.002-.015.004 0 .005.002 0 .002 0 .002.002l-.001.003c-.001.003-.004.004-.007.005a.308.308 0 0 0-.131.053.032.032 0 0 1-.011.004.019.019 0 0 0-.016.016c0 .003-.002.005-.006.006a.05.05 0 0 0-.038.02.019.019 0 0 1-.009.006l-.03.01a.019.019 0 0 0-.008.007.027.027 0 0 1-.02.01.139.139 0 0 0-.171.082.187.187 0 0 1-.05.029.028.028 0 0 0-.009.006.063.063 0 0 1-.032.018.012.012 0 0 0-.009.006c-.006.01-.015.015-.029.017a.12.12 0 0 0-.054.022.047.047 0 0 1-.01.004.01.01 0 0 0-.008.008c-.001.004-.003.007-.006.008l-.1.043c-.005.001-.005.004 0 .006.007.005.002.007-.016.006a.084.084 0 0 0-.063.025.078.078 0 0 1-.034.02c-.018.005-.029.012-.032.021a.022.022 0 0 1-.005.01.27.27 0 0 1-.066.047.512.512 0 0 1-.026.007.033.033 0 0 0-.022.018c-.002.002 0 .003.002.003.037-.001.037 0 .001.003.021.002.02.005-.002.008-.019.002-.04.015-.064.039"/><path stroke-width=".55514592" fill="none" stroke="#b03d3b" d="M112.598 94.326c-.021-.005-.039 0-.051.018a.015.015 0 0 1-.009.005.092.092 0 0 0-.04.02.196.196 0 0 1-.071.035.03.03 0 0 0-.01.005c-.016.012-.015.016.004.013a.067.067 0 0 0 .01-.003.049.049 0 0 1 .024-.002"/><path stroke-width=".55514592" fill="none" stroke="#855337" d="m112.455 94.417-.043.023a.021.021 0 0 1-.012.002c-.005 0-.01.001-.012.005a.031.031 0 0 1-.007.008l-.057.027-.01.006-.002.008c0 .002 0 .002.002.003.007 0 .007.001.001.003a.377.377 0 0 1-.096.044.014.014 0 0 0-.009.007l-.028.055a.02.02 0 0 0-.001.011.02.02 0 0 1-.01.02.09.09 0 0 1-.047.016.014.014 0 0 0-.011.004l-.02.022a.01.01 0 0 1-.01.003c-.01 0-.015.002-.015.01a.025.025 0 0 1-.003.011.07.07 0 0 1-.034.028.013.013 0 0 0-.007.007.1.1 0 0 1-.044.054.439.439 0 0 0-.029.022.16.16 0 0 1-.033.018.168.168 0 0 0-.058.052.086.086 0 0 1-.036.027c-.004.002-.006.004-.007.008l-.005.083"/><path stroke-width=".55514592" fill="none" stroke="#bb5554" d="M111.926 94.17a.09.09 0 0 0 .023-.07"/><path stroke-width=".55514592" fill="none" stroke="#df505c" d="M111.991 93.955c.004.017.008.016.013-.002a.891.891 0 0 1 .016-.061l.008-.018a.047.047 0 0 0 .002-.033"/><path stroke-width=".55514592" fill="none" stroke="#bb5554" d="M112.066 93.731c.02-.028.03-.059.03-.094m.022-.065a.116.116 0 0 0 .016-.083m.011-.04a.049.049 0 0 0 .016-.044l.001-.012.003-.024"/><path stroke-width=".55514592" fill="none" stroke="#df505c" d="M112.331 92.63a.148.148 0 0 0 .014-.082c0-.004.001-.007.004-.01a.02.02 0 0 0 .004-.014.17.17 0 0 1 0-.018.258.258 0 0 0 .003-.082"/><path stroke-width=".55514592" fill="none" stroke="#bb5554" d="M112.38 92.245a.344.344 0 0 0 .026-.145l-.005-.278c.001-.002.002-.002.003.001a2.2 2.2 0 0 0 .01-.15.52.52 0 0 1 .004-.054.417.417 0 0 0 .003-.052.9.9 0 0 1 .001-.08c.01-.101.012-.203.008-.305m.013-.143a.127.127 0 0 0 .016-.092m.042-.3c.007-.015.01-.014.01.003 0 .007 0 .007 0 0l.006-.062m.062-.276a.062.062 0 0 0 .02-.064m.031-.119c.008.02.012.02.012 0 0-.002 0-.005.002-.007a.1.1 0 0 0 .007-.058m.005-.018.001.01c.001.009.003.009.005 0l.018-.064m.13-.601a.403.403 0 0 0 .007-.198"/><path stroke-width=".55514592" fill="none" stroke="#df505c" d="m112.023 86.059-.014-.153c-.001-.018-.002-.019-.003-.003a.676.676 0 0 0-.002.053"/><path stroke-width=".55514592" fill="none" stroke="#5daa7c" d="M126.35 93.69c.082.015.165.024.249.026m.104.09a.51.51 0 0 1 .014.056l.002.03c.001.011.005.021.011.03a.015.015 0 0 1 .004.01c0 .017.002.03.005.04.014.044.02.09.015.137a.84.84 0 0 0 .017.149c0 .004.002.008.005.01.011.01.016.008.014-.007a.084.084 0 0 1 0-.013.282.282 0 0 0-.01-.072"/><path stroke-width=".55514592" fill="none" stroke="#437545" d="M112.455 94.417a.484.484 0 0 0 .077-.047.216.216 0 0 1 .035-.018.072.072 0 0 0 .031-.026m1.356-.716a.16.16 0 0 0 .068-.02.028.028 0 0 1 .01-.004.054.054 0 0 0 .048-.031"/><path stroke-width=".55514592" fill="none" stroke="#435530" d="m114.904 92.804.054-.04m.272-.294a.164.164 0 0 0 .037-.047l.024-.043c.025-.04.05-.081.074-.124"/><path stroke-width=".55514592" fill="none" stroke="#728866" d="M115.538 92.072a.336.336 0 0 1 .087-.028"/><path stroke-width=".55514592" fill="none" stroke="#4e544a" d="m126.592 90.03-.072-.005"/><path stroke-width=".55514592" fill="none" stroke="#898b8b" d="M126.52 90.025c-.027-.018-.048-.027-.064-.026-.25.005-.498.003-.748-.007a3.345 3.345 0 0 1-.438-.042c-.178-.032-.358-.06-.537-.085a10.994 10.994 0 0 0-.654-.038l-.33-.016a1.86 1.86 0 0 1-.54-.103 5.564 5.564 0 0 0-.278-.094 2.693 2.693 0 0 0-.478-.093c-.171-.02-.343-.042-.514-.065a3.441 3.441 0 0 1-.233-.038 3.614 3.614 0 0 1-.537-.155c-.125-.046-.25-.092-.376-.135a4.527 4.527 0 0 0-.879-.213l-.14-.02a6.099 6.099 0 0 1-.606-.114 27.624 27.624 0 0 1-.198-.044 202.382 202.382 0 0 1-1.655-.39c-.264-.06-.528-.116-.793-.171a4.215 4.215 0 0 0-.469-.073 1.879 1.879 0 0 1-.222-.03"/><path stroke-width=".55514592" fill="none" stroke="#431c1c" d="M113.824 85.715a.388.388 0 0 0-.065-.078l-.051-.047a8 8 0 0 1-.15-.153c-.008-.01-.017-.014-.026-.014m-1.28-1.235a.233.233 0 0 0-.082-.083m-.131-.125a.173.173 0 0 0-.08-.078"/><path stroke-width=".55514592" fill="none" stroke="#bfc5bc" d="M126.52 90.025a.057.057 0 0 1 .05.052"/><path stroke-width=".55514592" fill="none" stroke="#cee2da" d="M126.666 93.533a.283.283 0 0 0-.01.142c.001.004.004.006.008.006.018.001.03.01.037.027.003.005.001.008-.004.01-.012.005-.016.015-.01.03a.164.164 0 0 1 .016.059"/><path stroke-width=".55514592" fill="none" stroke="#89c49f" d="M126.703 93.807a.033.033 0 0 1-.014-.029.017.017 0 0 0-.004-.01l-.022-.032a.021.021 0 0 0-.009-.007.14.14 0 0 0-.055-.013"/><path stroke-width=".55514592" fill="none" stroke="#cee2da" d="M126.599 93.716c.029-.004.03-.007.006-.01a.556.556 0 0 0-.046-.003.403.403 0 0 1-.046-.005.803.803 0 0 0-.163-.008"/><path stroke-width=".55514592" fill="none" stroke="#89c49f" d="M126.35 93.69a15.373 15.373 0 0 0-.382-.03c-.25-.012-.499-.028-.747-.05l-.893-.088a2.054 2.054 0 0 1-.271-.05 5.393 5.393 0 0 1-.226-.067 2.933 2.933 0 0 0-.4-.092 8.03 8.03 0 0 0-.323-.048 3.579 3.579 0 0 1-.625-.149 1.925 1.925 0 0 1-.513-.253 2.145 2.145 0 0 0-.08-.054 6.88 6.88 0 0 1-.08-.053 1.066 1.066 0 0 0-.532-.181 4.398 4.398 0 0 0-.422-.01.797.797 0 0 1-.129-.007 4.481 4.481 0 0 0-.564-.045c-.18-.003-.36-.02-.538-.05a1.688 1.688 0 0 0-.104-.012 1.245 1.245 0 0 1-.105-.014c-.164-.028-.327-.06-.49-.095-.303-.07-.61-.126-.917-.17a3.21 3.21 0 0 0-.235-.023 8.612 8.612 0 0 1-.364-.03 5.784 5.784 0 0 0-.362-.044l-.373-.01a1.257 1.257 0 0 1-.138-.01 8.258 8.258 0 0 1-.137-.02 2.366 2.366 0 0 0-.207-.023c-.19-.01-.38 0-.568.032"/><path stroke-width=".55514592" fill="none" stroke="#e3c1c3" d="M115.625 92.044c-.023 0-.045.002-.068.004a.208.208 0 0 0-.014.004c-.01.003-.015-.003-.016-.016"/><path stroke-width=".55514592" fill="none" stroke="#93ab99" d="M126.748 93.854a.314.314 0 0 0 .014.112"/><path stroke-width=".55514592" fill="none" stroke="#4ab68a" d="M112.785 89.022c0-.011-.002-.015-.004-.011a1.124 1.124 0 0 0 .004.01"/><path stroke-width=".55514592" fill="none" stroke="#fafcfc" d="M118.772 89.838c.006 0 .008-.003.008-.009-.003-.018-.014-.028-.033-.03-.003 0-.006-.003-.01-.006l-.021-.024a.031.031 0 0 1-.007-.01.12.12 0 0 1 .002-.056c0-.004 0-.008-.003-.012-.014-.023-.032-.032-.051-.029a.027.027 0 0 0-.024.02.059.059 0 0 0-.002.034c0 .004 0 .008-.002.011-.029.049-.01.076.056.083.01 0 .018.005.025.012.01.012.031.017.062.016"/><path d="M111.101 83.118c.02.019.037.043.052.072.003.005.007.007.012.007l.05-.006a.27.27 0 0 1 .095.06c.014.013.03.025.047.036a.62.62 0 0 1 .105.078.417.417 0 0 1-.175-.058.171.171 0 0 0-.066-.02.024.024 0 0 1-.01-.005c-.025-.016-.047-.014-.066.009-.002.002-.002.005 0 .009a.018.018 0 0 1 .003.01 1.25 1.25 0 0 1-.147-.124.104.104 0 0 1-.028-.08c0-.017.005-.028.017-.033.008-.004.018-.003.033 0 .03.01.056.024.078.045z" fill="#cc858a"/><path d="M111.101 83.118c.042.02.08.044.114.073l-.05.006c-.005 0-.009-.002-.012-.007a.286.286 0 0 0-.052-.072z" fill="#848e7b"/><path d="m111.462 83.365.044.024-.03-.001c-.004 0-.006.002-.006.006l-.002.08c0 .003.001.006.005.009a.61.61 0 0 0 .053.032c.023.013.05.034.08.062.02.019.041.035.063.05a.357.357 0 0 1 .062.056c.017.02.034.039.05.054l.054.05c.04.04.08.079.123.115a.54.54 0 0 0 .08.078l.133.125c.022.033.049.06.08.083.05.05.101.1.154.146.04.036.082.074.124.115l.124.116c.092.083.254.241.489.474l.17.163c.075.072.148.146.22.221.093.102.19.199.292.292.077.088.13.148.16.18.198.202.39.41.577.622l.152.18c.237.294.381.474.43.54a76 76 0 0 0 .617.808c.004.006.014.011.027.015l.044.013-.03.002c-.004 0-.006.002-.007.006a.075.075 0 0 0 .001.03.05.05 0 0 0 .018.023.283.283 0 0 1 .033.031 125.893 125.893 0 0 0 .506.584c.256.282.509.567.758.855l.167.198c.122.145.24.294.351.448l.024.03c.011.014.02.028.027.043.005.011.003.02-.007.027a9.48 9.48 0 0 1-.292.187 4.136 4.136 0 0 0-.393.273 5.456 5.456 0 0 1-.336.246 3.237 3.237 0 0 1-.222.133c-.089.048-.168.094-.238.138-.073.048-.139.103-.199.167-.052.058-.101.12-.148.182a3.592 3.592 0 0 1-.317.36c-.027.028-.023.04.01.036a.126.126 0 0 1-.052.02.01.01 0 0 0-.008.006.166.166 0 0 1-.027.038.214.214 0 0 0-.027.035.69.69 0 0 1-.058.085.581.581 0 0 0-.077.106l-.032.051a.214.214 0 0 0-.026.057 2.264 2.264 0 0 0-.138.18.455.455 0 0 1-.134.114.057.057 0 0 0-.054.04.032.032 0 0 1-.023.016.023.023 0 0 0-.011.004l-.057.048a1.15 1.15 0 0 1-.056.048.57.57 0 0 0-.05.044.567.567 0 0 1-.048.045l-.081.063a.566.566 0 0 0-.074.071l-.062.071a.62.62 0 0 0-.053.077.65.65 0 0 1-.31.264.135.135 0 0 0-.063.025.02.02 0 0 1-.011.004.068.068 0 0 0-.051.025.889.889 0 0 0-.093.044.112.112 0 0 1-.039.013.095.095 0 0 0-.04.013.092.092 0 0 1-.037.016.02.02 0 0 0-.01.004.123.123 0 0 1-.057.024c-.015.002-.015.004 0 .005.002 0 .002 0 .002.002l-.001.003c-.001.003-.004.004-.007.005a.308.308 0 0 0-.131.053.032.032 0 0 1-.011.004.019.019 0 0 0-.016.016c0 .003-.002.005-.006.006a.05.05 0 0 0-.038.02.02.02 0 0 1-.009.006l-.03.01a.019.019 0 0 0-.008.007.027.027 0 0 1-.02.01.139.139 0 0 0-.171.082.187.187 0 0 1-.05.029.028.028 0 0 0-.009.006.063.063 0 0 1-.032.018.012.012 0 0 0-.009.006c-.006.01-.015.015-.029.017a.12.12 0 0 0-.054.022.046.046 0 0 1-.01.004.01.01 0 0 0-.008.008c-.001.004-.003.007-.006.008l-.1.043c-.005.001-.005.004 0 .006.007.005.002.007-.016.006h-.011a.084.084 0 0 0-.051.024.078.078 0 0 1-.035.02c-.018.006-.029.013-.032.022a.022.022 0 0 1-.005.01.27.27 0 0 1-.066.047.51.51 0 0 1-.026.007.033.033 0 0 0-.022.018c-.002.002-.001.003.002.003.037-.001.037 0 .001.003.021.002.02.005-.002.008-.019.002-.04.015-.064.039-.021-.005-.039 0-.051.018a.015.015 0 0 1-.009.005.092.092 0 0 0-.04.02.196.196 0 0 1-.071.035.029.029 0 0 0-.01.005c-.016.012-.015.016.004.013a.068.068 0 0 0 .01-.003.049.049 0 0 1 .024-.002l-.044.023a.02.02 0 0 1-.01.002c-.006 0-.01.001-.013.005a.031.031 0 0 1-.007.008l-.057.027-.01.006-.002.008c0 .002 0 .002.002.003.007 0 .007.001.001.003a.377.377 0 0 1-.096.044.013.013 0 0 0-.009.007l-.028.055a.02.02 0 0 0-.001.011.02.02 0 0 1-.01.02.09.09 0 0 1-.047.016.014.014 0 0 0-.011.004l-.02.022a.01.01 0 0 1-.01.003c-.01 0-.015.002-.015.01a.026.026 0 0 1-.003.011.07.07 0 0 1-.034.028.013.013 0 0 0-.007.007.1.1 0 0 1-.044.054.44.44 0 0 0-.029.022.16.16 0 0 1-.033.018.168.168 0 0 0-.058.051.086.086 0 0 1-.036.028c-.004.002-.006.004-.007.008l-.005.083a.501.501 0 0 1-.204.052c-.014 0-.022-.006-.022-.019 0-.008.002-.016.007-.023a.917.917 0 0 0 .056-.11c.078-.196.154-.393.228-.59.015-.049.031-.097.05-.145a.09.09 0 0 0 .022-.068l.042-.146c.004.017.008.016.013-.002a.896.896 0 0 1 .016-.061l.008-.018a.047.047 0 0 0 .002-.033l.036-.11c.02-.028.03-.059.03-.094l.022-.065a.116.116 0 0 0 .016-.083l.01-.04a.049.049 0 0 0 .017-.044l.001-.012.003-.024a1.04 1.04 0 0 0 .031-.121 3.18 3.18 0 0 1 .041-.193c.002.011.003.012.005.002.012-.088.03-.174.051-.26a.411.411 0 0 0 .01-.048.3.3 0 0 1 .01-.05.357.357 0 0 0 .018-.07.148.148 0 0 0 .014-.081c0-.004 0-.007.004-.01a.02.02 0 0 0 .004-.014.17.17 0 0 1 0-.018.258.258 0 0 0 .003-.082.664.664 0 0 0 .016-.1l.007-.038a.103.103 0 0 0 0-.04.344.344 0 0 0 .027-.146l-.005-.278c.001-.002.002-.002.003.001.005-.05.008-.1.01-.15 0-.014.002-.031.004-.054a.416.416 0 0 0 .003-.052l.001-.08c.01-.101.012-.203.008-.305a.144.144 0 0 0 .004-.063.193.193 0 0 1 .009-.08.127.127 0 0 0 .016-.092l.009-.045a.34.34 0 0 0 .004-.046.476.476 0 0 1 .022-.13c-.004-.03-.002-.04.002-.029a.093.093 0 0 1 .005-.05c.007-.015.01-.014.01.003 0 .007 0 .007 0 0l.006-.062c.016-.093.037-.186.062-.276a.062.062 0 0 0 .02-.064l.031-.119c.008.02.012.02.012 0 0-.002 0-.005.002-.007a.1.1 0 0 0 .007-.058c0-.007.002-.013.005-.019l.001.012c.001.007.003.007.005 0l.018-.065c.012-.039.026-.078.041-.117a.914.914 0 0 0 .04-.116.961.961 0 0 0 .024-.137v-.09a.338.338 0 0 1 .025-.141.403.403 0 0 0 .007-.198 1.655 1.655 0 0 1-.014-.14.383.383 0 0 0-.011-.061.226.226 0 0 1-.007-.064.012.012 0 0 0-.004-.01c-.009-.008-.012-.019-.01-.033a.527.527 0 0 0 .002.105 1.934 1.934 0 0 1-.011-.092.175.175 0 0 0-.01-.036.1.1 0 0 1-.006-.038.38.38 0 0 0-.018-.129 2.84 2.84 0 0 1-.033-.112 1.31 1.31 0 0 0-.035-.112 6.783 6.783 0 0 0-.06-.158l-.013-.021a.037.037 0 0 1-.006-.019c0-.006 0-.012-.002-.018a11.774 11.774 0 0 0-.136-.373 1.303 1.303 0 0 1-.054-.173 5.202 5.202 0 0 0-.038-.153 4.21 4.21 0 0 1-.07-.287 1.572 1.572 0 0 0-.047-.16 1.206 1.206 0 0 1-.037-.179 2.22 2.22 0 0 0-.066-.35.873.873 0 0 1-.025-.125 1.452 1.452 0 0 0-.03-.183 2.896 2.896 0 0 1-.053-.213l-.014-.153c-.001-.018-.002-.019-.003-.003a.667.667 0 0 0-.002.053 1.245 1.245 0 0 1-.016-.107 1.172 1.172 0 0 0-.015-.107 29.595 29.595 0 0 1-.05-.249l-.035-.205a1.833 1.833 0 0 0-.059-.245 1.462 1.462 0 0 1-.037-.168 1.722 1.722 0 0 0-.037-.167 10.383 10.383 0 0 1-.048-.176 2.523 2.523 0 0 0-.051-.175 27.76 27.76 0 0 1-.083-.246 2.605 2.605 0 0 0-.28-.596 25.625 25.625 0 0 1-.048-.08.7.7 0 0 0-.097-.126c0-.003 0-.006-.002-.009-.003-.004-.003-.007 0-.01.018-.021.04-.024.065-.008a.024.024 0 0 0 .01.004.18.18 0 0 1 .067.02.417.417 0 0 0 .174.06z" fill="#f21b2d"/><path d="M111.506 83.389c.047.023.152.073.315.147.045.021.088.034.129.04l.042.004c.055.01.11.023.162.04l.095.033.55.168c.075.022.15.044.226.064.3.08.676.18 1.13.297.137.036.263.066.377.091l.142.036c.055.016.102.028.142.035.058.011.11.022.154.033.124.03.25.06.375.088a2.3 2.3 0 0 0 .14.028c.032.005.064.011.095.018l.093.022.54.114.122.028c.038.009.076.016.115.022l.114.02c.197.04.394.078.591.115l.2.042c.044.01.089.02.134.027l.134.027.54.129c.208.05.4.1.577.155.167.05.316.134.45.251.16.141.339.245.534.309.069.023.163.048.28.075.191.045.373.098.546.16l.328.125c.14.053.283.096.43.127.035.007.122.015.26.024.052.003.104.01.158.019.08.015.134.022.159.023a.96.96 0 0 1 .22.03c.07.02.149.034.234.04a2.035 2.035 0 0 1 .16.023 1.7 1.7 0 0 0 .376.039c.071-.001.142.003.211.013l.153.021c.088.009.176.013.264.011.228-.002.425-.007.592-.015a5.05 5.05 0 0 1 .426-.004c.044.001.102.007.173.018.073.011.156.02.25.028.066.006.143.02.228.044a.62.62 0 0 0 .081.014l.081.011c.135.024.264.063.389.116.163.074.325.152.485.234.087.046.173.083.257.113.124.043.244.088.36.133.019.006.025.02.022.038a.578.578 0 0 1-.032.11c-.053.133-.108.265-.165.397-.106.242-.184.427-.233.554a2.473 2.473 0 0 0-.067.212.941.941 0 0 0-.03.205 3.076 3.076 0 0 0 .03.583c.009.056.021.112.038.167l.038.122c.018.06.039.119.063.177.01.025.026.059.05.1.018.033.034.066.05.1l.01.02c.01.017.008.034-.007.05l-.072-.004c-.027-.018-.048-.027-.064-.026-.25.005-.498.003-.748-.007a3.343 3.343 0 0 1-.438-.042c-.178-.032-.357-.06-.537-.085a10.996 10.996 0 0 0-.654-.038l-.33-.016a1.86 1.86 0 0 1-.54-.103 5.564 5.564 0 0 0-.278-.094 2.694 2.694 0 0 0-.478-.094c-.171-.02-.343-.041-.514-.065a3.444 3.444 0 0 1-.233-.037 3.615 3.615 0 0 1-.537-.155 19.87 19.87 0 0 0-.376-.135 4.527 4.527 0 0 0-.879-.213l-.14-.02a6.1 6.1 0 0 1-.606-.114 28.029 28.029 0 0 1-.198-.044 186.61 186.61 0 0 1-1.655-.39 48.29 48.29 0 0 0-.793-.171 4.215 4.215 0 0 0-.469-.073 1.879 1.879 0 0 1-.222-.03l-.044-.013a.051.051 0 0 1-.028-.016 77.73 77.73 0 0 1-.616-.808 29.687 29.687 0 0 0-.582-.719c-.187-.212-.38-.42-.576-.623a4.647 4.647 0 0 1-.161-.18.388.388 0 0 0-.065-.077l-.051-.048-.15-.152c-.008-.01-.017-.014-.026-.014a5.954 5.954 0 0 0-.22-.221l-.17-.163a19.337 19.337 0 0 0-.737-.705 2.764 2.764 0 0 1-.153-.146.233.233 0 0 0-.082-.083l-.131-.125a.173.173 0 0 0-.08-.078 1.886 1.886 0 0 1-.124-.114l-.053-.051a.742.742 0 0 1-.051-.054.339.339 0 0 0-.061-.055.624.624 0 0 1-.064-.051.437.437 0 0 0-.08-.062.574.574 0 0 1-.053-.032.011.011 0 0 1-.005-.01l.002-.08c0-.003.002-.006.006-.005h.03z" fill="#181919"/><path d="M111.958 83.902a.176.176 0 0 1 .08.078.5.5 0 0 1-.08-.078zm.212.203c.034.02.062.049.082.083a.318.318 0 0 1-.082-.083zm1.362 1.318c.009 0 .018.005.027.014.02.023.07.074.149.153l.051.047a.385.385 0 0 1 .065.078 4.544 4.544 0 0 1-.292-.292z" fill="#6e1f1e"/><path d="M112.023 86.059a.18.18 0 0 1-.019-.103l.001-.053c.002-.016.003-.015.004.003l.014.153z" fill="#cc858a"/><path d="M115.83 88.073c.053.012.127.021.223.03.134.012.29.036.47.073a45.349 45.349 0 0 1 1.021.224c.475.114.95.227 1.425.337l.397.088c.087.02.223.043.407.07l.141.02c.3.042.593.112.88.213l.375.135c.175.066.354.117.537.155.06.012.138.025.233.038.26.034.43.056.514.064.17.019.33.05.478.094.065.02.157.05.278.094.163.059.342.093.54.103l.33.016c.35.014.567.027.654.038.123.016.302.044.537.085.126.022.272.036.438.042.25.01.499.012.748.007.016 0 .037.008.064.026a.057.057 0 0 1 .05.052l.006.12a.521.521 0 0 0 .015.106c.034.135.054.22.058.255.01.075.021.15.037.224.039.186.072.39.1.608a.663.663 0 0 1 0 .181 4.728 4.728 0 0 0-.03.26c-.005.071-.014.141-.027.211-.017.076-.039.151-.066.224a.363.363 0 0 0-.015.144c.004.062.006.124.007.186.004.24.013.48.026.72-.001.072-.006.145-.015.217a.283.283 0 0 0-.01.142c.001.004.004.006.008.006.018.001.03.01.037.027.003.005.001.008-.004.01-.012.005-.016.015-.01.03a.164.164 0 0 1 .016.059.033.033 0 0 1-.014-.029.017.017 0 0 0-.004-.01l-.022-.032a.021.021 0 0 0-.009-.007.14.14 0 0 0-.055-.013c.029-.004.03-.007.006-.01a.558.558 0 0 0-.046-.003.404.404 0 0 1-.046-.005.803.803 0 0 0-.163-.008 15.32 15.32 0 0 0-.382-.03c-.25-.012-.499-.028-.747-.05l-.893-.088a2.05 2.05 0 0 1-.271-.05 5.381 5.381 0 0 1-.226-.067 2.933 2.933 0 0 0-.4-.092 8.054 8.054 0 0 0-.323-.048 3.58 3.58 0 0 1-.625-.149 1.925 1.925 0 0 1-.513-.253 2.147 2.147 0 0 0-.08-.054 6.944 6.944 0 0 1-.08-.053 1.066 1.066 0 0 0-.532-.181 4.396 4.396 0 0 0-.422-.01.794.794 0 0 1-.129-.007 4.482 4.482 0 0 0-.564-.045c-.18-.003-.36-.02-.538-.05a1.68 1.68 0 0 0-.105-.012 1.246 1.246 0 0 1-.104-.014 12.8 12.8 0 0 1-.49-.095c-.303-.07-.61-.126-.917-.17a3.22 3.22 0 0 0-.235-.023 8.612 8.612 0 0 1-.364-.03 5.783 5.783 0 0 0-.362-.044c-.124-.004-.249-.008-.373-.01a1.257 1.257 0 0 1-.138-.01 8.27 8.27 0 0 1-.137-.02 2.367 2.367 0 0 0-.207-.023c-.19-.01-.38 0-.568.032-.023 0-.045.002-.068.004a.195.195 0 0 0-.014.004c-.01.003-.015-.003-.016-.016a3.59 3.59 0 0 0 .317-.36c.072-.094.122-.154.148-.182.066-.069.132-.124.2-.167.07-.044.148-.09.237-.138.07-.037.144-.081.222-.133.08-.053.193-.135.335-.246.126-.099.257-.19.393-.273.099-.06.196-.123.293-.187.01-.006.012-.016.007-.027a.212.212 0 0 0-.027-.042l-.024-.031a7.995 7.995 0 0 0-.351-.448 27.82 27.82 0 0 1-.167-.198 47.02 47.02 0 0 0-.758-.855c-.055-.06-.107-.12-.157-.177l-.35-.407a.315.315 0 0 0-.032-.031.049.049 0 0 1-.018-.023.075.075 0 0 1-.001-.03c0-.004.003-.006.007-.006l.03-.002zm2.942 1.765c.006 0 .008-.003.008-.009-.003-.018-.014-.028-.033-.03-.003 0-.006-.003-.01-.006l-.02-.024a.032.032 0 0 1-.008-.01.12.12 0 0 1 .002-.056c0-.004 0-.008-.003-.012-.014-.023-.032-.032-.051-.029a.027.027 0 0 0-.024.02.059.059 0 0 0-.002.034c0 .004 0 .008-.002.011-.029.049-.01.076.056.083.01 0 .018.005.025.012.01.012.031.017.062.016z" fill="#fafcfc"/><path d="M112.785 89.022c.004.033.005.067.005.1a1.918 1.918 0 0 0-.01-.105l.001-.006c.002-.004.003 0 .004.01zm.032.17a.403.403 0 0 1-.007.199l-.005-.2c0-.004 0-.004.002 0 .005.019.008.019.01.002z" fill="#848e7b"/><path d="M118.772 89.838c-.031 0-.052-.004-.062-.016a.035.035 0 0 0-.025-.012c-.066-.007-.084-.034-.056-.083a.014.014 0 0 0 .002-.011.059.059 0 0 1 .002-.034.027.027 0 0 1 .024-.02c.02-.003.037.006.051.03.003.003.003.007.003.011a.12.12 0 0 0-.002.057.031.031 0 0 0 .007.009l.022.024c.003.003.006.005.009.005.019.003.03.013.033.031 0 .006-.002.009-.008.01z" fill="#fafcfc"/><path d="m112.68 89.992-.018.065c-.002.007-.004.007-.005 0l-.001-.011a.126.126 0 0 1 .024-.054zm-.03.072a.1.1 0 0 1-.006.058.017.017 0 0 0-.002.008c0 .02-.004.02-.012 0l.02-.067zm-.05.184a.062.062 0 0 1-.02.064.178.178 0 0 1 .02-.064zm-.083.34-.005.062c-.001.007-.001.007-.001 0 0-.017-.003-.018-.01-.002a.076.076 0 0 1 .006-.052l.002-.006c.005-.03.008-.03.008-.002zm14.003-.563.072.005a.068.068 0 0 0-.022.047.057.057 0 0 0-.05-.052zm-14.06.922a.131.131 0 0 1-.017.092c0-.032.005-.062.016-.092zm-.03.235c.004.102.001.204-.008.306a.876.876 0 0 0-.001.079c0 .017-.001.035-.003.052a.597.597 0 0 0-.004.053c-.002.05-.005.1-.01.151 0-.003-.002-.004-.003-.001-.007.108-.016.216-.026.324 0-.007 0-.012.005-.017a.018.018 0 0 0 .003-.01 4.892 4.892 0 0 1 .028-.623c.005-.05.009-.102.01-.157l.009-.158z" fill="#848e7b"/><path d="M126.35 93.69c.082.015.165.024.249.026a.14.14 0 0 1 .055.013.02.02 0 0 1 .009.007l.022.032a.018.018 0 0 1 .004.01c0 .012.005.021.014.029a.513.513 0 0 1 .014.055l.002.03c.001.011.005.021.011.03a.015.015 0 0 1 .004.01c0 .017.002.03.005.04.014.044.02.09.015.137a.84.84 0 0 0 .017.149c0 .004.002.008.005.01.011.01.016.008.014-.007a.083.083 0 0 1 0-.013.283.283 0 0 0-.01-.072c.021.02.028.041.02.065a.022.022 0 0 0 .005.024.166.166 0 0 1 .044.09c0 .006.003.014.006.024a.048.048 0 0 1 .004.025.282.282 0 0 0 .005.086l.01.048c.022.135.039.271.05.408.005.077.008.155.007.235 0 .107-.005.215-.013.322a.942.942 0 0 1-.017.127c-.062.297-.162.58-.299.851-.055.11-.115.24-.18.387a.18.18 0 0 1-.035.05.014.014 0 0 1-.01.005.102.102 0 0 1-.057-.014 1.044 1.044 0 0 1-.12-.073 22.194 22.194 0 0 1-.47-.359 2.575 2.575 0 0 0-.628-.367.77.77 0 0 0-.095-.031 23.53 23.53 0 0 1-.092-.024 1.352 1.352 0 0 0-.201-.04 1.518 1.518 0 0 0-.228-.003l-.228.008a2.457 2.457 0 0 0-.292.03l-.167.033c-.141.028-.284.043-.427.044a7 7 0 0 0-.501.015c-.381.031-.763.05-1.146.058a3.034 3.034 0 0 1-.433-.04l-.254-.042a8.09 8.09 0 0 0-.233-.034 62.958 62.958 0 0 1-.354-.048 2.736 2.736 0 0 0-.234-.022 14.646 14.646 0 0 1-.427-.029 2.128 2.128 0 0 0-.2-.01l-.38.007a3.582 3.582 0 0 1-.425-.017l-.235-.023a3.773 3.773 0 0 0-.352-.004c-.122.003-.244 0-.366-.013a22.896 22.896 0 0 1-.222-.024c-.13-.015-.26-.04-.386-.074a9.926 9.926 0 0 1-1.042-.339c-.181-.072-.364-.14-.548-.205a2.859 2.859 0 0 0-.579-.128 4.42 4.42 0 0 0-.442-.036c-.078 0-.157.002-.235.006-.195.008-.39.013-.584.013-.115 0-.197-.004-.245-.013a2.201 2.201 0 0 0-.227-.03l-.263-.022a2.89 2.89 0 0 1-.18-.023 1.83 1.83 0 0 0-.187-.018c-.12-.006-.24-.013-.36-.023a3.6 3.6 0 0 0-.197-.01 17.712 17.712 0 0 1-.196-.007.524.524 0 0 0-.127.012l.005-.083c0-.004.003-.006.007-.008a.086.086 0 0 0 .036-.028.168.168 0 0 1 .058-.05.16.16 0 0 0 .033-.02.646.646 0 0 1 .03-.02.1.1 0 0 0 .043-.055.013.013 0 0 1 .007-.007.07.07 0 0 0 .034-.028.025.025 0 0 0 .002-.01c.001-.009.006-.012.015-.01a.01.01 0 0 0 .01-.004l.021-.022a.015.015 0 0 1 .01-.004.09.09 0 0 0 .048-.015.02.02 0 0 0 .01-.02l.001-.012.028-.055a.013.013 0 0 1 .01-.008.378.378 0 0 0 .095-.043c.006-.002.006-.002 0-.003-.003 0-.003-.001-.003-.003l.003-.008c0-.002.004-.003.01-.006l.056-.027a.031.031 0 0 0 .007-.008c.003-.004.007-.006.012-.005a.02.02 0 0 0 .011-.002l.044-.023a.484.484 0 0 0 .077-.047.216.216 0 0 1 .035-.018.072.072 0 0 0 .031-.026c.024-.024.045-.037.064-.04.022-.002.023-.005.002-.007.036-.003.036-.005-.001-.003-.003 0-.004-.001-.003-.003a.033.033 0 0 1 .023-.019l.026-.006a.27.27 0 0 0 .066-.047.022.022 0 0 0 .005-.01c.003-.009.014-.016.032-.022a.078.078 0 0 0 .035-.02.083.083 0 0 1 .062-.024c.018.002.023 0 .015-.006-.004-.003-.004-.005 0-.006l.1-.043c.004-.001.006-.004.007-.008a.01.01 0 0 1 .008-.008.048.048 0 0 0 .01-.005.12.12 0 0 1 .054-.022c.014 0 .023-.006.03-.016a.012.012 0 0 1 .008-.006.063.063 0 0 0 .033-.018.028.028 0 0 1 .009-.006.187.187 0 0 0 .05-.029.138.138 0 0 1 .04-.023.678.678 0 0 0 .131-.058.027.027 0 0 0 .019-.011.019.019 0 0 1 .008-.007l.03-.01a.019.019 0 0 0 .01-.007.05.05 0 0 1 .037-.02c.004 0 .006-.002.006-.005a.019.019 0 0 1 .016-.016.033.033 0 0 0 .01-.004.308.308 0 0 1 .132-.053c.003-.001.006-.002.007-.005v-.003c.001-.001 0-.002-.001-.002-.015-.001-.015-.003 0-.005a.123.123 0 0 0 .056-.024.02.02 0 0 1 .01-.004.092.092 0 0 0 .038-.016.095.095 0 0 1 .04-.013.112.112 0 0 0 .039-.013.886.886 0 0 1 .093-.044.16.16 0 0 0 .067-.02.028.028 0 0 1 .012-.003.054.054 0 0 0 .047-.031.65.65 0 0 0 .309-.264.619.619 0 0 1 .053-.077c.02-.023.04-.047.062-.07a.543.543 0 0 1 .074-.072l.08-.063a.62.62 0 0 0 .05-.045.57.57 0 0 1 .049-.044.936.936 0 0 0 .056-.048l.057-.048a.023.023 0 0 1 .01-.004.032.032 0 0 0 .024-.016l.054-.04a.455.455 0 0 0 .134-.115 2.406 2.406 0 0 1 .175-.226l.024-.043c.025-.04.05-.081.074-.124a.782.782 0 0 0 .058-.085.215.215 0 0 1 .027-.035.166.166 0 0 0 .026-.038.01.01 0 0 1 .009-.006.126.126 0 0 0 .053-.02.336.336 0 0 1 .087-.028 2.305 2.305 0 0 1 .774-.01c.046.008.092.014.138.02.044.006.09.01.138.01l.373.01c.037.002.158.017.362.045.045.007.166.016.364.03.085.006.164.014.234.023.309.045.615.1.918.17.101.022.264.054.49.095.032.006.067.01.104.014.046.005.081.009.105.013.179.029.358.046.539.05a4.5 4.5 0 0 1 .564.044.776.776 0 0 0 .127.007c.141-.004.282 0 .423.01.194.014.371.074.532.181a7.12 7.12 0 0 0 .16.106c.158.11.33.195.513.254.234.075.442.125.625.15.108.013.215.029.322.047.136.021.27.052.4.092.12.037.195.06.227.067.107.026.198.042.271.05l.893.088c.171.017.42.033.748.05.046.002.173.012.381.03z" fill="#188b41"/><path d="M115.527 92.036c.001.013.007.019.016.016a.336.336 0 0 0-.005.02c-.034.004-.038-.008-.011-.036z" fill="#cc858a"/><path d="M115.365 92.256a2.51 2.51 0 0 1-.074.124.8.8 0 0 0-.024.043.165.165 0 0 1-.037.047.213.213 0 0 1 .026-.056l.033-.052a.566.566 0 0 1 .076-.106z" fill="#6e1f1e"/><path d="M112.356 92.424a.268.268 0 0 1-.002.082.17.17 0 0 0 0 .018.02.02 0 0 1-.006.014.014.014 0 0 0-.003.01.147.147 0 0 1-.014.081c.006-.071.011-.142.019-.212 0-.015.003-.012.006.007z" fill="#cc858a"/><path d="m114.958 92.764-.054.04a.057.057 0 0 1 .054-.04z" fill="#6e1f1e"/><path d="m112.165 93.37-.003.023a.09.09 0 0 0 0 .012.049.049 0 0 1-.017.045.124.124 0 0 1 .02-.08zm-.031.119c.005.03 0 .057-.016.083a.058.058 0 0 1 .005-.044.107.107 0 0 0 .01-.04zm-.037.148c0 .035-.01.066-.03.094a.487.487 0 0 1 .026-.109c0-.024.002-.019.003.015z" fill="#848e7b"/><path d="M114.08 93.555a.054.054 0 0 1-.047.031.028.028 0 0 0-.011.003.16.16 0 0 1-.068.02.068.068 0 0 1 .051-.025.02.02 0 0 0 .011-.004.135.135 0 0 1 .064-.025z" fill="#6e5e48"/><path d="M112.03 93.84a.047.047 0 0 1-.002.034.353.353 0 0 0-.024.079c-.005.018-.009.019-.013.002l.04-.114z" fill="#cc858a"/><path d="M111.95 94.1a.09.09 0 0 1-.024.07.161.161 0 0 1 .023-.07z" fill="#848e7b"/><path d="M126.666 93.533a.16.16 0 0 1-.001.068.123.123 0 0 0-.004.032v.028c0 .004.003.006.007.007.024.009.04.025.046.05.013.045.024.09.034.136a.314.314 0 0 0 .014.112.114.114 0 0 0 .002.046c.009.047.015.101.017.164a.282.282 0 0 1 .008.072l.001.013c.002.015-.003.017-.014.007a.016.016 0 0 1-.005-.01.883.883 0 0 1-.017-.15.33.33 0 0 0-.015-.137.122.122 0 0 1-.004-.039.018.018 0 0 0-.004-.01.049.049 0 0 1-.011-.03l-.002-.03a1.017 1.017 0 0 0-.015-.055.164.164 0 0 0-.015-.06c-.007-.014-.003-.024.01-.03.004 0 .006-.004.003-.01a.041.041 0 0 0-.037-.026c-.004 0-.007-.002-.008-.006a.283.283 0 0 1 .01-.142zm-.316.157c.055-.003.11 0 .163.008a1 1 0 0 1 .092.008c.024.004.023.007-.006.01a1.587 1.587 0 0 1-.249-.026z" fill="#a2c8b7"/><path d="M112.598 94.326a.072.072 0 0 1-.03.026.217.217 0 0 0-.036.018.496.496 0 0 1-.077.047.046.046 0 0 0-.023.002.066.066 0 0 1-.011.004c-.019.002-.02-.002-.004-.014a.03.03 0 0 1 .01-.005.196.196 0 0 0 .071-.035.092.092 0 0 1 .04-.02.015.015 0 0 0 .01-.005c.011-.017.029-.023.05-.019z" fill="#6e5e48"/><path d="M126.748 93.854a.16.16 0 0 1 .014.112.314.314 0 0 1-.014-.112z" fill="#848e7b"/></g></g></g></g></g></g></g></g></g></g></g></g></g></g><clipPath id="W"><path transform="scale(.24)" d="M395 704.206h263.333v203.77H395z" fill-rule="evenodd"/></clipPath><g clip-path="url(#W)"><path d="M94.944 217.914h62.912v-48.806l-.199.594-10.054 27.918-52.66 20.294z" fill="#d9c179"/><path d="M116.844 217.914h41.012v-48.806l-.298 1.09-8.96 28.016-31.754 19.7z" fill="#bca164"/><path d="M128.988 217.914h28.868v-48.806l-3.982 15.345-.1.099-1.194 4.455-.1.693-1.592 5.94-.299.99-.597 2.475-21.004 18.81z" fill="#3c4f75"/><path d="m149.295 200.392-19.909 17.522h28.47v-15.047l-7.466-3.465-1.095.99zM150.39 196.53l.2.1.497.198 6.77 3.168v-3.267l-5.974-2.772-.199-.1-.796 1.783-.498.89zm2.09-6.83.1-.693h.1l.597.297 4.58 2.178v3.267l-5.476-2.574-.199-.1.299-2.375zm1.295-5.148v-.099l.697.297 3.384 1.584v3.267l-4.18-1.98-.399-.198.498-2.871z" fill="#2b3c56"/><path d="M128.49 217.914h1.494l19.311-17.522 1.095-.99v-.198l.697-2.376.796-2.871.498-1.683.797-2.97.497-1.683.797-2.871 3.384-12.078v-3.663l-.199.693-.1.495-8.063 28.61-21.004 19.107z" fill="#f9f5dc"/></g><clipPath id="X"><path transform="scale(.24)" d="M0 649.624h263.333v259.503H0z" fill-rule="evenodd"/></clipPath><g clip-path="url(#X)"><path d="M17.45 218.208H0v-57.892l10.376 34.338.189.567.094.568.094.095.283 1.23 3.49 11.54 2.925 9.554z" fill="#404654"/><path d="M8.773 199.194 0 195.221V164.1l7.263 29.135h.095l.094.568.094.473.095.094.283 1.23.849 3.594z" fill="#2c323d"/><path d="M57.823 218.208H0v-27.527l7.546 3.595 3.113 1.513 47.164 22.42z" fill="#404654"/><path d="M55.465 218.208H0v-12.865l14.527 3.311 40.844 9.554h.094z" fill="#2c323d"/><path d="M58.767 218.208H55.37l-44.335-21.095-3.112-1.513L0 191.816v-1.608l7.452 3.595 3.113 1.418 48.202 22.987z" fill="#bca164"/><path d="M59.804 218.208h-2.17l-45.088-21.473-1.132-.568-.66-.283-3.113-1.514L0 190.775v-1.04l7.263 3.5 3.019 1.419.283.19 49.24 23.364zm-48.202-24.595L0 155.964v3.217l10.47 33.96.378 1.23 50.182 23.932h2.17l-51.598-24.69z" fill="#d9c179"/></g><clipPath id="Y"><path transform="scale(.24)" d="M0 1.127h263.333V203.77H0z" fill-rule="evenodd"/></clipPath><g clip-path="url(#Y)"><path d="M63.056.27H.144v48.806l.199-.594 10.054-27.917L63.057.27z" fill="#d9c179"/><path d="M41.156.27H.144v48.806l.298-1.089 8.96-28.016L41.156.27z" fill="#bca164"/><path d="M29.012.27H.144v48.806l3.982-15.344.1-.1 1.194-4.454.1-.693 1.592-5.94.299-.99.597-2.475L29.012.27z" fill="#3c4f75"/><path d="M8.705 17.793 28.614.27H.144v15.048l7.466 3.465 1.095-.99zM7.61 21.654l-.2-.1-.497-.197-6.77-3.168v3.267l5.974 2.772.199.099.796-1.782.498-.891zm-2.09 6.83-.1.694h-.1l-.597-.297-4.58-2.178v-3.267L5.62 26.01l.199.099-.299 2.376zm-1.295 5.149v.099l-.697-.297L.144 31.85v-3.267l4.18 1.98.399.198-.498 2.87z" fill="#2b3c56"/><path d="M29.51.27h-1.494L8.705 17.793l-1.095.99v.198l-.697 2.376-.796 2.87-.498 1.684-.797 2.97-.497 1.683-.797 2.87L.144 45.513v3.663l.199-.693.1-.495 8.063-28.61L29.51.27z" fill="#f9f5dc"/></g><clipPath id="Z"><path transform="scale(.24)" d="M395 0h263.333v259.464H395z" fill-rule="evenodd"/></clipPath><g clip-path="url(#Z)"><path d="M140.55-.027H158v57.892l-10.376-34.338-.189-.567-.094-.568-.094-.095-.283-1.23-3.49-11.54-2.925-9.554z" fill="#404654"/><path d="M149.227 18.987 158 22.96V54.08l-7.263-29.135h-.095l-.094-.568-.094-.472-.095-.095-.283-1.23-.849-3.594z" fill="#2c323d"/><path d="M100.177-.027H158V27.5l-7.546-3.594-3.113-1.514-47.164-22.42z" fill="#404654"/><path d="M102.535-.027H158v12.865l-14.527-3.311L102.63-.027h-.094z" fill="#2c323d"/><path d="M99.233-.027h3.396l44.335 21.095 3.112 1.513L158 26.365v1.608l-7.452-3.595-3.113-1.418L99.233-.027z" fill="#bca164"/><path d="M98.196-.027h2.17l45.088 21.473 1.132.568.66.283 3.113 1.514L158 27.406v1.04l-7.263-3.5-3.019-1.419-.283-.19L98.195-.026zm48.202 24.595L158 62.217V59l-10.47-33.96-.378-1.23L96.97-.121H94.8l51.598 24.69z" fill="#d9c179"/></g><clipPath id="aa"><path transform="scale(.24)" d="M98.75 92.645h460.833v112.858H98.75z" fill-rule="evenodd"/></clipPath><g clip-path="url(#aa)"><path d="M120.028 45.457H32.276c2.074-6.666 4.146-13.332 6.218-20h87.752l-6.218 20z" fill="#d9c179"/><path d="m39.085 25.476-7.922 23.779h-5.661c.317-.98.635-1.96.955-2.94H23.7l3.882-11.973c.91.025 1.823.049 2.732.077l2.32-7.127a3.925 3.925 0 0 1 1.519-1.434 3.9 3.9 0 0 1 2.031-.466l2.901.084zM134.29 25.093c-1.179 3.861-2.36 7.72-3.54 11.58l-2.654-.021-1.943 6.35a5.346 5.346 0 0 1-1.535 1.593 5.316 5.316 0 0 1-2.041.841l-2.827-.02 7.25-23.01 5.489-.105-.872 2.844 2.674-.052z" fill="#bca164"/></g></svg>