<svg xmlns="http://www.w3.org/2000/svg" width="210" height="290" viewBox="0 0 157.5 217.5"><clipPath id="a"><path transform="scale(.24)" d="M0 0h658.333v909.127H0z" fill-rule="evenodd"/></clipPath><g clip-path="url(#a)"><path d="M0 0h158v218.19H0z" fill="#fff"/></g><clipPath id="b"><path transform="scale(.24)" d="M0 0h658.333v909.127H0z" fill-rule="evenodd"/></clipPath><g clip-path="url(#b)"><path d="M0 0h158v218.19H0z" fill="#fff"/></g><clipPath id="c"><path transform="scale(.24)" d="M0 0h658.333v909.127H0z" fill-rule="evenodd"/></clipPath><g opacity=".028" clip-path="url(#c)"><clipPath id="d"><path transform="matrix(.24 0 0 .24 2.16 32.16)" d="M0 0h644v644H0z" fill-rule="evenodd"/></clipPath><g clip-path="url(#d)"><clipPath id="e"><path transform="matrix(.24 0 0 .24 2.16 32.16)" d="M.377.774h639.524v639.524H.377z" fill-rule="evenodd"/></clipPath><g clip-path="url(#e)"><path d="M2.25 32.346h153.486V188.9H2.25z" fill="#fff"/></g><clipPath id="f"><path transform="matrix(.24 0 0 .24 2.16 32.16)" d="M.377.774h639.524v639.524H.377z" fill-rule="evenodd"/></clipPath><g clip-path="url(#f)"><path d="M2.25 32.346h153.486V185.83H2.25z" fill="#fff"/></g><clipPath id="g"><path transform="matrix(.24 0 0 .24 2.16 32.16)" d="M.377.774h639.524v639.524H.377z"/></clipPath><g clip-path="url(#g)"><clipPath id="h"><path transform="matrix(.24 0 0 .24 2.16 32.16)" d="M.377.774h639.524v639.524H.377z"/></clipPath><g clip-path="url(#h)"><clipPath id="i"><path transform="matrix(.24 0 0 .24 2.16 32.16)" d="M.377.774h639.524v639.524H.377z"/></clipPath><g clip-path="url(#i)"><clipPath id="j"><path transform="matrix(.24 0 0 .24 2.16 32.16)" d="M.377.774h639.524v652.314H.377z"/></clipPath><g clip-path="url(#j)"><clipPath id="k"><path transform="matrix(.24 0 0 .24 2.16 32.16)" d="M.377.774h639.524v639.524H.377z"/></clipPath><g clip-path="url(#k)"><clipPath id="l"><path transform="matrix(.24 0 0 .24 2.16 32.16)" d="M.377.774h639.524v639.524H.377z"/></clipPath><g clip-path="url(#l)"><clipPath id="m"><path transform="matrix(.24 0 0 .24 2.16 32.16)" d="M170.917 195.189h69.92v102.324h-69.92z"/></clipPath><g clip-path="url(#m)"><clipPath id="n"><path transform="matrix(.24 0 0 .24 2.16 32.16)" d="m212.857 196.489 27.701 13.227-41.886 87.72-27.701-13.227 41.886-87.72z"/></clipPath><g clip-path="url(#n)"><clipPath id="o"><path transform="matrix(.24 0 0 .24 2.16 32.16)" d="M170.917 195.189h69.92v102.324h-69.92z"/></clipPath><g clip-path="url(#o)"><clipPath id="p"><path transform="matrix(.24 0 0 .24 2.16 32.16)" d="M240.522 209.699 212.82 196.47l-41.887 87.72 27.701 13.228 41.887-87.72z"/></clipPath><g clip-path="url(#p)" fill="#009736"><path d="M47.688 90.947c.108-.212.24-.411.363-.616a.122.122 0 0 1 .025-.033.065.065 0 0 1 .078-.014c.045.016.063.049.047.1-.052.164-.087.33-.05.503l.003.005-.002.004-.003-.01c-.053.068-.012.169-.082.239-.011-.023-.027-.04-.027-.058 0-.07.009-.14.01-.21.002-.09.023-.183-.012-.286-.031.05-.05.087-.076.12-.209.275-.309.596-.394.921-.094.364-.098.735-.086 1.106.008.268.054.531.127.788.067.236.14.472.254.69.17.322.35.64.528.958.18.32.312.657.365 1.023.005.032-.002.07.046.096.03-.072.062-.14.088-.212.009-.025.012-.061 0-.081-.04-.067-.025-.137-.026-.206a3.789 3.789 0 0 0-.088-.772 1.558 1.558 0 0 1-.024-.166c-.001-.01.012-.021.026-.043.057.096.05.204.078.3.028.1.039.206.064.308.023.097.01.2.046.306.07-.113.146-.21.056-.336-.016-.023 0-.068 0-.103-.002-.21.015-.422-.035-.628-.074-.298-.135-.601-.298-.869-.015-.024-.022-.051-.031-.078-.007-.021-.007-.041.029-.053.014.016.035.034.048.056.043.072.092.142.122.22.073.197.14.397.204.597.072.23.062.47.072.72.058-.058.071-.118.09-.175.02-.06.036-.122.062-.179.131-.287.21-.594.328-.886a.154.154 0 0 0 .014-.06c-.004-.154.006-.307-.007-.462-.031-.368-.162-.71-.28-1.054-.064-.186-.114-.374-.166-.563-.006-.019-.002-.028.013-.029.026.002.039.02.044.039.09.31.252.594.324.91.12.26.157.536.175.817 0 .019.016.036.03.065.08-.167.169-.318.222-.474-.06-.176-.112-.344-.174-.508a2.734 2.734 0 0 1-.157-.884c-.008-.233.03-.461.039-.692.006-.154.029-.307.042-.46.004-.041.001-.084.002-.126a5.135 5.135 0 0 0-.048-.648 2.129 2.129 0 0 0-.065-.33c-.029-.101-.067-.199-.1-.299a7.686 7.686 0 0 1-.078-.239l.018-.03c.01-.004.03-.002.036.006.054.067.067.152.101.229.087.192.138.394.171.603.06.383.071.767.033 1.153-.015.146-.034.292-.041.438-.011.238-.005.475.017.713.008.104.022.208.057.31l.184.556c.003.01.021.014.033.021.042-.02.052-.063.07-.1.08-.164.159-.328.236-.493.033-.069.08-.134.046-.219-.006-.016.004-.04.01-.06.038-.12.075-.24.115-.359a2.11 2.11 0 0 0 .115-.575c.01-.174.024-.348.048-.52.036-.25.071-.498.054-.752-.005-.077-.004-.154-.003-.23 0-.02.01-.04.018-.06l.016-.01c.012.001.031.002.035.01a.192.192 0 0 1 .026.077c.008.344.02.687-.053 1.026-.015.068-.016.138-.022.208-.013.16-.025.32-.051.48-.017.106-.063.21-.044.323.06-.065.089-.145.127-.22.072-.136.135-.276.22-.406.077-.116.128-.25.19-.375.03-.223.12-.43.166-.65.066-.32.077-.639-.01-.957-.043-.163-.084-.326-.129-.488a4.12 4.12 0 0 1-.124-.682c-.029-.279-.038-.56-.053-.84-.024-.441.083-.86.24-1.268.053-.138.124-.268.192-.4.051-.098.1-.203.169-.289.209-.261.463-.466.764-.614.06-.03.103.008.161.01.025-.028.055-.058.078-.092.141-.204.32-.37.524-.508.08-.054.092-.055.213-.02-.004.027-.002.058-.014.08-.078.143-.12.297-.165.452-.075.264-.137.528-.115.806.007.09.009.182.012.272a.082.082 0 0 1-.008.041c-.006.011-.017.024-.028.025-.01.002-.028-.007-.031-.015a.27.27 0 0 1-.018-.082 17.227 17.227 0 0 1-.016-.503c0-.064.007-.126.02-.188.024-.116.054-.232.08-.348.004-.02 0-.04-.03-.049a.402.402 0 0 0-.043.037c-.138.154-.224.34-.308.524-.058.126-.127.251-.147.393-.033.235-.072.471-.011.709.01.04.007.084.014.125.022.124.039.25.07.372.065.258.113.52.143.785.012.103-.002.21-.004.315l-.005.02c-.012.015-.027.029-.04.043-.012-.015-.036-.029-.036-.044 0-.084.016-.17.003-.251-.043-.292-.073-.586-.16-.869-.084-.27-.087-.552-.11-.83a.2.2 0 0 1 0-.043c.033-.271.097-.536.192-.793.033-.089.097-.152.141-.23a.975.975 0 0 1 .35-.384.12.12 0 0 0 .057-.084c.014-.057.023-.116.038-.188-.049.038-.079.067-.114.089-.172.106-.292.259-.397.425-.023.035-.047.07-.073.103-.116.153-.185.33-.249.508a1.784 1.784 0 0 0-.077.261c-.018.096-.024.194-.032.292-.017.21-.028.42.017.628.009.041.012.083.02.125a.772.772 0 0 1-.015.292c-.003.017-.023.03-.039.05-.011-.025-.028-.043-.027-.061a1.909 1.909 0 0 0-.048-.458.792.792 0 0 1-.017-.125c-.016-.49.05-.964.295-1.4.013-.023.02-.05.03-.074-.049-.033-.087-.009-.122.01-.129.071-.25.154-.364.247-.228.188-.365.44-.51.688-.081.14-.125.297-.179.45-.129.36-.184.731-.166 1.114.013.308.027.616.08.92.028.16.051.319.097.474.086.289.168.579.198.88.008.077.01.154.005.23a2.74 2.74 0 0 1-.078.496c-.007.028-.033.056-.007.093a.341.341 0 0 0 .102-.108c.085-.144.172-.288.262-.43.081-.131.163-.262.25-.388.104-.15.216-.294.322-.442.035-.05.079-.1.033-.17-.01-.014-.004-.042.002-.061.05-.17.05-.346.066-.52.033-.31.004-.616-.087-.915a1.154 1.154 0 0 1-.045-.29c0-.008.017-.017.027-.026.264.564.242 1.154.143 1.757a.52.52 0 0 0 .191-.329c.023-.111.027-.233.092-.335.008.001.019-.001.021.003.045.064.004.136.008.21a.122.122 0 0 0 .058-.097c.043-.312.083-.625.065-.941a1.26 1.26 0 0 0-.065-.372c-.067-.178-.086-.368-.135-.55a.324.324 0 0 1-.01-.104c.017-.258-.002-.52.096-.767.007-.019.004-.042.007-.063.004-.02.012-.037.043-.028.003.018.012.04.008.057-.05.171-.05.347-.061.521-.012.174.007.348.052.52.045.176.081.354.129.53a.875.875 0 0 1 .025.187c.01.238.009.476-.032.713-.006.039-.021.083.006.121.032.012.055-.002.072-.027a.59.59 0 0 0 .091-.211c.05-.24.095-.481.06-.729-.02-.13-.03-.265-.049-.396a1.68 1.68 0 0 1-.022-.44c.006-.048 0-.098.001-.147.004-.266.036-.53.095-.79a5.1 5.1 0 0 1 .22-.721c.15-.397.36-.757.663-1.06a.974.974 0 0 1 .307-.219c.133-.056.238-.146.34-.242.046-.044.085-.093.13-.138.014-.014.034-.03.052-.032a.157.157 0 0 1 .08.016c.028.014.03.043.02.072a.173.173 0 0 1-.015.04c-.12.19-.216.392-.291.604-.008.023-.025.042-.039.063l-.045-.04c0-.07.04-.132.062-.196.025-.07.08-.132.057-.23-.12.077-.223.16-.344.211a.86.86 0 0 0-.265.204c-.237.243-.406.53-.548.837-.128.276-.21.566-.28.858a3.601 3.601 0 0 0-.046 1.502c.038.21.035.419.043.629a.284.284 0 0 1-.026.122c-.017.039-.03.078-.043.117.036.014.06.005.078-.02.042-.056.078-.115.123-.17.178-.216.358-.43.537-.645.027-.032.055-.064.074-.101.19-.374.296-.77.3-1.19.004-.246.028-.49.07-.731.026-.144.06-.289.129-.421.07-.138.142-.275.218-.409.03-.053.076-.1.119-.146.016-.016.04-.036.07-.005-.008.018-.01.041-.022.057-.123.155-.2.336-.29.51a1.204 1.204 0 0 0-.087.236c-.063.224-.08.454-.103.684-.019.188.01.377-.035.564-.029.123-.05.246-.089.366a.624.624 0 0 0-.034.214c.07-.1.147-.173.174-.262.027-.09.086-.157.122-.238.036-.077.081-.15.104-.23.047-.161.094-.321.125-.488.06-.33.133-.659.203-.987.026-.123.053-.247.103-.364.127-.298.279-.58.486-.831.198-.246.446-.422.744-.527.073-.026.146-.05.217-.079.247-.099.504-.106.765-.095.03.002.049.023.057.058-.052.055-.124.057-.192.058-.293-.001-.57.06-.835.185-.02.009-.04.015-.06.023a1.317 1.317 0 0 0-.59.425c-.048.06-.087.127-.138.184-.157.183-.252.4-.345.619-.096.227-.137.47-.187.71-.053.253-.094.509-.144.763a1.29 1.29 0 0 1-.11.36c-.03.062-.05.129-.077.197a.177.177 0 0 0 .108-.07c.093-.105.184-.212.281-.313.259-.266.52-.53.782-.792.123-.125.26-.238.372-.371.144-.173.267-.36.37-.56.075-.142.147-.287.232-.423.132-.209.313-.376.491-.544a.313.313 0 0 1 .11-.058c.033-.012.05.013.054.048-.013.013-.027.028-.042.041-.27.227-.51.478-.672.797-.073.144-.143.29-.242.419-.016.021-.024.049-.035.072.026.017.045.009.061-.002a2.46 2.46 0 0 0 .501-.446c.16-.186.325-.366.497-.541.154-.159.334-.276.542-.352.131-.049.266-.09.401-.127a.74.74 0 0 0 .343-.195c.006-.007.025-.004.038-.005.022.027.01.052-.009.072a.765.765 0 0 1-.318.2c-.112.04-.226.074-.34.113-.105.037-.215.067-.308.13a1.996 1.996 0 0 0-.432.367c-.08.097-.168.188-.253.281-.021.024-.053.044-.033.084.076-.014.156-.05.225-.036.091.018.15-.015.21-.063.087-.072.168-.15.252-.224a.39.39 0 0 1 .067-.048c.006-.003.022.006.031.013l.003.02c-.013.024-.024.05-.044.07a2.923 2.923 0 0 1-.48.373c-.024.015-.05.033-.076.035-.15.007-.26.095-.374.177-.165.119-.327.24-.49.362a3.7 3.7 0 0 0-.212.173c-.12.106-.24.214-.358.323-.108.1-.214.202-.32.303-.02.016-.025.036-.014.06.2-.119.41-.211.633-.277.365-.112.698-.29 1.034-.463.074-.037.136-.096.205-.143.007-.004.025.006.036.012l.005.02c-.012.024-.019.055-.038.07a1.58 1.58 0 0 1-.207.144 5.666 5.666 0 0 1-.936.427 3.598 3.598 0 0 0-1.241.693c-.04.033-.089.063-.114.132.149-.081.267-.187.426-.208l.009.019c.004.024-.006.04-.029.05-.216.104-.404.25-.587.403-.011.009-.022.023-.034.023-.089.004-.132.071-.182.128-.267.296-.536.59-.797.891-.058.065-.131.127-.153.228.074-.022.126-.068.176-.113.17-.147.354-.275.551-.384.189-.108.382-.205.586-.283.243-.09.483-.19.731-.264.343-.101.69-.187 1.04-.257.128-.026.258-.049.365-.138.016.042.005.07-.018.086-.047.03-.096.062-.148.078-.127.041-.255.077-.384.11-.217.054-.436.102-.654.155-.089.022-.176.05-.26.083-.267.106-.543.188-.804.31-.095.044-.192.086-.283.137a4.84 4.84 0 0 0-.732.491c-.151.124-.308.242-.46.367-.059.05-.112.105-.158.166-.145.19-.287.381-.427.573-.148.203-.285.416-.441.613-.232.293-.424.61-.612.93-.12.205-.233.415-.35.623-.01.018-.017.039-.03.055-.123.148-.186.329-.277.495a.216.216 0 0 0-.023.059c-.004.02-.03.041-.003.07.034-.029.067-.055.1-.08.133-.103.265-.207.401-.305.074-.053.155-.096.233-.142.23-.137.47-.254.729-.318a8.05 8.05 0 0 1 .722-.14c.242-.036.478-.11.719-.155.033-.007.066-.023.099-.035.152-.057.29-.14.425-.23.087-.057.173-.118.263-.173.036-.022.066-.008.07.052-.157.113-.319.22-.485.32a1.815 1.815 0 0 1-.627.232c-.07.013-.138.028-.207.042-.323.066-.645.131-.968.2-.068.014-.134.038-.201.06a2.79 2.79 0 0 0-.617.313c-.318.2-.602.434-.821.74-.02.03-.039.068-.067.08-.082.032-.11.103-.144.172l-.556 1.135c-.028.056-.052.117-.09.166-.057.073-.096.155-.136.236-.07.146-.122.298-.186.446-.086.2-.152.405-.219.642.119-.204.254-.362.398-.51.244-.253.513-.477.806-.673.228-.152.463-.29.733-.354a.246.246 0 0 1 .082-.002c.008 0 .015.02.02.032l-.007.02c-.024.013-.048.027-.074.035-.204.057-.39.15-.571.261a5.833 5.833 0 0 0-.813.631c-.063.056-.128.113-.176.18-.122.17-.282.312-.355.513-.029-.014-.048-.03-.066-.029a.059.059 0 0 0-.047.035 5.12 5.12 0 0 0-.104.297c-.01.034-.031.075.01.111.05-.04.098-.08.148-.118.006-.005.028.002.033.01.006.007.009.03.003.037-.032.037-.067.071-.102.106-.133.137-.241.29-.293.475.042.035.115-.07.136.045-.046.054-.092.115-.144.172a.488.488 0 0 0-.112.2c-.032.107-.066.213-.091.322-.01.042-.035.088-.008.145.04-.037.077-.068.11-.102a2.78 2.78 0 0 1 .447-.35 2.82 2.82 0 0 1 .657-.329c.067-.02.135-.042.196-.075.113-.06.235-.093.355-.13.166-.052.327-.121.5-.156.033-.007.064-.025.097-.037.073-.024.146-.054.221-.068a.832.832 0 0 0 .217-.076c.158-.077.315-.154.472-.233.063-.03.12-.07.172-.117.08-.078.17-.145.257-.216.016-.013.032-.023.053-.012.013.048-.016.08-.046.109a2.18 2.18 0 0 1-.502.378c-.25.125-.499.248-.772.324-.39.11-.78.224-1.146.404a.188.188 0 0 1-.04.014c-.287.068-.522.244-.758.402-.226.151-.42.35-.6.556-.018.02-.032.043-.02.072.033.004.056-.013.073-.035.099-.131.228-.226.366-.311.221-.137.447-.262.676-.385.137-.071.278-.13.426-.177.245-.08.492-.16.739-.237.1-.031.2-.064.302-.088.118-.026.23-.065.337-.119.236-.122.468-.253.702-.38.087-.048.162-.11.24-.17.122-.095.217-.218.33-.321a2.32 2.32 0 0 0 .408-.531c.083-.137.173-.27.256-.4.042.006.07.011.077.044-.042.073-.08.147-.124.217-.145.23-.286.466-.47.669-.18.197-.362.394-.585.543a4.87 4.87 0 0 1-.873.46c-.284.117-.583.2-.878.29a5.713 5.713 0 0 0-.905.337c-.391.194-.75.436-1.076.727-.11.1-.139.194-.112.375.136-.265.334-.472.593-.62.266-.155.544-.29.842-.378.14-.04.29-.069.434-.066.153.003.306.01.46.011.216 0 .602-.04.834-.085.086-.016.175-.055.266-.02.014.029.01.056-.01.081-.05.07-.096.139-.148.205a1.056 1.056 0 0 1-.523.37c-.254.084-.51.154-.766.23-.318.092-.626.202-.908.383-.266.17-.51.369-.748.577-.069.06-.132.124-.191.194a22.23 22.23 0 0 0-.407.507c-.02.026-.029.063-.037.097-.005.018 0 .04.004.086.112-.155.188-.292.294-.4.262-.272.51-.557.839-.76.344-.214.695-.388 1.105-.432.106-.012.21-.015.313.006.24.05.477.111.697.223.107.055.22.09.335.122a.654.654 0 0 0 .393-.008c.033-.012.066-.026.1-.03.03-.004.051.015.06.056a.58.58 0 0 1-.287.106 1.06 1.06 0 0 1-.548-.11 3.196 3.196 0 0 0-.696-.228 1.49 1.49 0 0 0-.624.014c-.252.052-.474.177-.69.304-.36.21-.649.509-.926.816-.117.129-.21.28-.331.406-.07.074-.087.154-.103.242-.003.02.008.04.038.044l.147-.199a6.07 6.07 0 0 1 .564-.623c.265-.261.548-.503.874-.686.235-.132.487-.215.758-.229.028 0 .055.006.08.017.01.003.02.02.021.032a.04.04 0 0 1-.016.033c-.057.033-.122.03-.184.038a1.656 1.656 0 0 0-.63.223c-.23.135-.45.283-.634.48-.038.042-.08.08-.124.114-.146.111-.26.253-.386.384-.019.02-.036.043-.03.074.071-.045.135-.098.193-.159.117-.12.24-.235.362-.35a.746.746 0 0 1 .115-.091c.136-.086.273-.171.413-.25.254-.142.523-.24.816-.26.233-.014.46-.05.658-.186a.04.04 0 0 1 .038-.002c.01.005.015.021.025.037a.604.604 0 0 1-.373.21c-.144.024-.286.06-.434.068-.076.004-.152.027-.225.049-.37.108-.688.31-.987.547-.013.01-.028.029-.005.046.066-.007.117-.047.172-.076.294-.154.601-.271.933-.31.306-.036.611-.08.918-.095.161-.01.317-.044.468-.101.099-.036.199-.069.283-.135a.149.149 0 0 1 .058-.025l.03.015c.004.01.002.031-.006.038-.1.075-.193.162-.312.21a.214.214 0 0 0-.087.054c-.13.162-.3.268-.48.365-.06.032-.124.06-.17.115.07.067.072.09.008.141l-.199.156c-.155.121-.324.22-.507.296a2.022 2.022 0 0 1-.488.12c-.312.043-.625.08-.94.11a1.428 1.428 0 0 0-.777.31c-.009.252-.03.511-.023.77.011.392-.03.783-.007 1.176.01.182.015.362.047.542.017.097.023.195.028.293.003.068-.043.1-.112.078-.046-.015-.098-.019-.14-.075-.008-.132-.023-.278-.027-.425-.014-.56-.009-1.12.016-1.68.002-.034.003-.069.002-.104.006-.05-.016-.084-.063-.102-.14-.063-.274-.136-.43-.164a3.517 3.517 0 0 1-.528-.13 1.888 1.888 0 0 1-.694-.422c-.247-.23-.431-.513-.6-.807-.142-.248-.27-.505-.428-.746-.033-.05-.071-.102-.079-.163.023-.019.043-.018.057 0 .042.055.082.113.124.169.016.021.033.05.056.059.139.054.24.162.358.246.186.135.353.293.553.414.216.132.432.256.68.319.026.007.05.023.076.032.12.045.219.125.326.189.116.07.213.158.3.26.096.112.188.227.254.36.01.019.023.034.047.03.021-.016.012-.037.008-.054-.046-.225-.18-.394-.353-.533a5.61 5.61 0 0 0-.774-.537c-.043-.023-.087-.046-.124-.077-.02-.016-.057-.038-.03-.08.02.006.04.014.06.024.257.142.51.289.744.47.05.038.098.077.172.085a1.204 1.204 0 0 1-.11-.23.251.251 0 0 0-.065-.107c-.112-.105-.215-.219-.336-.316a8.048 8.048 0 0 1-.567-.497c-.16-.157-.302-.331-.447-.501-.04-.048-.062-.11-.095-.163-.033-.053-.072-.103-.105-.157-.03-.047-.062-.094-.085-.144a3.153 3.153 0 0 1-.226-.629c-.005-.02-.013-.025-.028-.01-.005.012-.015.025-.014.036.015.175.024.35.093.514.04.097.08.195.128.289.139.278.317.528.562.722.21.165.394.356.588.538.015.014.022.032.01.052-.04.01-.068-.013-.095-.035-.198-.165-.403-.325-.593-.5-.266-.245-.323-.314-.485-.6-.147-.262-.287-.53-.279-.847 0-.027-.015-.055-.015-.082 0-.082-.016-.165.023-.239l.075-.004c.005-.069.008-.139.017-.208a.43.43 0 0 1 .036-.12c.009-.016.034-.02.057-.01.023.053.002.108-.001.163-.006.096-.01.191.046.276a.238.238 0 0 0-.01.098c.012.122.071.227.112.338.167.46.477.82.815 1.157.198.197.418.372.622.562.163.151.327.305.394.53.008.027.026.05.043.072a.305.305 0 0 1 .075.17c.003.04.022.065.045.092.04.045.072.095.131.119.025-.048.035-.101.009-.128-.06-.061-.055-.141-.083-.21-.032-.078-.06-.161-.11-.225a3.28 3.28 0 0 0-.489-.517 9.885 9.885 0 0 1-.272-.23.76.76 0 0 1-.115-.122 12.79 12.79 0 0 1-.263-.38 1.264 1.264 0 0 1-.104-.18 2.378 2.378 0 0 1-.227-1.017c.002-.14-.003-.281.009-.42.013-.153.041-.305.066-.457a.056.056 0 0 1 .04-.041c.016-.003.034.01.052.019.03-.072.012-.149.017-.223.006-.09.013-.182.022-.272.001-.01.017-.019.029-.032.015.011.037.019.047.033.045.066.057.14.067.219.032.267.103.524.25.752.109.17.202.352.333.509.072.087.13.181.178.283.007.016.01.043-.022.047l-.02-.007a1.317 1.317 0 0 1-.046-.069c-.012-.017-.02-.036-.034-.053l-.242-.317a.595.595 0 0 1-.024-.034c-.069-.106-.136-.213-.207-.317-.035-.051-.046-.118-.1-.157-.003-.003-.013.003-.03.008.025.064.047.129.075.19.05.116.112.227.158.345.131.335.32.637.54.92.066.083.128.168.193.25.18.23.3.489.377.77.01.035.009.078.068.1-.001-.117.042-.225-.028-.33-.014-.023-.018-.054-.022-.081a1.583 1.583 0 0 0-.258-.615c-.041-.061-.073-.129-.11-.195.045-.012.063.01.079.034.058.088.113.177.174.263.091.128.156.266.18.421.003.023.004.055.048.056.02-.096.05-.189.047-.288a1.446 1.446 0 0 0-.104-.512c-.038-.09-.078-.18-.11-.273a.816.816 0 0 0-.114-.224 6.799 6.799 0 0 1-.452-.731c-.116-.21-.18-.44-.24-.67a.676.676 0 0 1-.007-.293c.004-.024.007-.054.055-.051 0 .182.04.359.103.53.143.392.351.748.596 1.083.05.068.089.141.12.219l.187.445c.007.014.005.046.039.032.029-.045.01-.094.004-.14-.025-.182-.087-.354-.144-.528-.054-.17-.14-.32-.26-.451-.175-.19-.277-.42-.365-.657a.954.954 0 0 1-.046-.29c0-.02.006-.04.017-.059a.039.039 0 0 1 .033-.02.036.036 0 0 1 .03.025.517.517 0 0 1 .007.103c0 .093.017.182.054.266.093.221.205.43.372.605.123.129.205.282.25.455.023.088.053.175.08.262.009.025.015.052.045.063.01-.01.025-.017.028-.029.03-.1.058-.202.084-.303a.125.125 0 0 0-.003-.061.668.668 0 0 1-.01-.27.81.81 0 0 0-.01-.252 3.305 3.305 0 0 0-.37-1.024 40.028 40.028 0 0 1-.436-.791 4.407 4.407 0 0 1-.366-.983 3.119 3.119 0 0 1-.102-.997c.001-.028.006-.057 0-.084-.017-.077-.005-.153-.002-.23.006-.176.047-.347.082-.518.048-.227.126-.444.233-.65l-.002.004zm1.088 8.585c.419-.085.846-.103 1.27-.157.202-.026.399-.07.582-.16.1-.049.196-.11.29-.168.082-.053.159-.113.24-.168a.216.216 0 0 0 .085-.108c-.038.01-.077.02-.114.033a3.259 3.259 0 0 1-.63.152c-.311.043-.618.118-.926.181-.131.027-.247.095-.369.149-.153.067-.306.133-.447.209-.002.032.005.039.02.037zm-.22-.038c.249-.156.514-.282.787-.387.23-.088.465-.15.707-.19.22-.037.439-.084.661-.11.197-.021.377-.103.553-.189.131-.064.253-.149.378-.225.01-.007.016-.022.04-.057-.217-.012-.41.018-.604.034-.188.016-.376.04-.563.065-.194.027-.382.08-.562.158a7.513 7.513 0 0 0-.806.404c-.09.052-.186.095-.261.171a.122.122 0 0 1-.117.043l.006-.105c-.117.13-.232.256-.322.435.053-.023.08-.032.103-.046zm-.522.586a1.737 1.737 0 0 0-1.005-.84c-.087-.029-.174-.05-.245-.112a.12.12 0 0 0-.036-.022c-.333-.131-.588-.375-.851-.604a1.303 1.303 0 0 0-.257-.178c.033.089.058.174.113.248.059.08.11.163.153.251.15.306.36.568.612.792.189.167.414.284.657.363.12.037.24.066.364.088.19.035.38.08.542.206.012-.08-.016-.137-.047-.192zm-.23-1.614c-.118-.119-.223-.25-.339-.371a2.48 2.48 0 0 1-.61-1.065 1.545 1.545 0 0 1-.057-.373c0-.009.017-.019.033-.035.036.064.03.135.049.198l.061.201c.012.04.018.083.037.12.141.282.28.566.498.8.218.235.435.465.636.722.011-.024.023-.037.021-.046a1.368 1.368 0 0 0-.14-.373 4.818 4.818 0 0 0-.437-.64 3.663 3.663 0 0 1-.512-.864c-.047-.11-.102-.216-.148-.326a3.165 3.165 0 0 1-.18-.56c-.007-.038-.007-.079-.04-.106a3.287 3.287 0 0 0-.007 1.432c.051.236.147.452.29.648.053.074.106.147.158.222.072.105.158.197.257.275.09.068.172.144.257.217.192.166.358.355.481.578.006.011.02.018.03.027.018 0 .026-.008.021-.025a1.45 1.45 0 0 0-.36-.656zm.831-.626c-.005.082-.068.158-.024.248.267-.406.636-.682 1.075-.871.096-.042.195-.076.294-.111.047-.017.096-.024.142.005.012.007.02.017.024.03.001.01-.01.029-.018.031-.06.019-.122.03-.181.05a3.25 3.25 0 0 0-.586.278c-.22.13-.406.296-.561.498a4.098 4.098 0 0 0-.25.362c-.033.053-.049.116-.07.175-.007.02-.001.041.034.07.282-.41.653-.719 1.044-1.005.338-.245.71-.419 1.115-.521.277-.075.552-.159.823-.253a.93.93 0 0 0 .443-.306c.017-.022.028-.048.04-.073l-.002-.022c-.018-.03-.049-.02-.072-.012-.155.047-.315.057-.475.071a6.03 6.03 0 0 1-.838.014 1.053 1.053 0 0 0-.373.054 3.677 3.677 0 0 0-.947.446c-.106.07-.2.153-.28.25-.008.009-.005.025-.009.05.075-.045.143-.09.215-.126.143-.072.289-.14.434-.21a.548.548 0 0 1 .078-.03 3.756 3.756 0 0 1 1.013-.166c.29-.003.57-.04.824-.197a.088.088 0 0 1 .04-.008l.018.01c.006.012.015.029.01.037-.012.024-.025.053-.047.066-.121.07-.243.137-.387.157-.18.024-.36.06-.543.046a.516.516 0 0 0-.104.004c-.39.052-.777.11-1.127.31-.085.048-.175.089-.259.139a1.643 1.643 0 0 0-.46.425c-.02.026-.051.057-.053.086z"/><path d="M56.773 88.867c-.094.18-.206.35-.336.506a4.068 4.068 0 0 1-.581.576 3.65 3.65 0 0 1-.72.47 7.734 7.734 0 0 1-.97.403c-.06.019-.12.034-.18.056-.302.11-.6.235-.896.364-.226.098-.439.218-.64.36-.187.135-.361.288-.541.433-.003.003 0 .013 0 .025.177-.085.352-.168.525-.254a2.46 2.46 0 0 1 .718-.23c.213-.034.43-.046.648-.004.219.043.44.078.667.071.02 0 .044 0 .061.01.017.009.036.029.037.045 0 .016-.02.04-.034.045a.686.686 0 0 1-.271.007c-.223-.028-.444-.067-.668-.078a2.229 2.229 0 0 0-1.022.201c-.25.111-.492.237-.728.377-.277.164-.553.328-.786.556l-.362.35c-.05.05-.099.099-.15.147-.007.007-.023.006-.034.008l-.014-.017c-.013-.03.002-.052.02-.075.251-.314.535-.594.865-.823a.654.654 0 0 0 .167-.158c.086-.123.2-.216.313-.31.098-.08.198-.157.293-.239.285-.242.6-.437.943-.585.308-.134.615-.273.94-.365.04-.01.08-.024.12-.038.208-.083.415-.168.625-.248.284-.108.541-.264.79-.433.186-.126.353-.276.516-.43.257-.244.455-.532.631-.836.014-.024.046-.053.01-.095-.065.016-.133.034-.2.048-.192.041-.384.085-.58.098a4.897 4.897 0 0 1-.671.01c-.452-.031-.873.094-1.298.214-.17.048-.321.139-.482.209-.171.073-.309.19-.447.307-.038.032-.07.069-.107.1a.21.21 0 0 1-.055.03l-.02-.005c-.006-.01-.015-.027-.012-.034.018-.03.035-.061.06-.085.075-.073.152-.145.232-.213.155-.132.302-.272.472-.386.316-.212.662-.365 1.013-.506.143-.058.29-.107.427-.176.256-.13.509-.265.758-.407.255-.147.519-.279.744-.472.095-.083.19-.165.283-.251.323-.302.629-.618.826-1.022.012-.027.058-.043.03-.086-.058-.006-.085.042-.122.07-.162.125-.331.24-.52.315-.196.076-.4.13-.602.186-.256.07-.517.124-.772.198-.347.098-.67.246-.97.446l-.194.126c-.02-.046-.005-.079.024-.099.118-.086.236-.176.361-.252.271-.165.568-.273.87-.366.094-.03.189-.058.285-.071.083-.013.165-.031.245-.057.18-.055.362-.107.542-.163.127-.04.26-.073.37-.148.202-.138.404-.278.594-.43a.886.886 0 0 0 .29-.382c.022-.06.049-.117.073-.175.008-.023.024-.033.048-.03.032.005.045.032.04.062-.007.041-.01.084-.026.122-.059.144-.15.27-.252.384-.053.06-.099.112-.11.193-.006.033-.027.065-.042.096a3.322 3.322 0 0 1-.212.361 4.16 4.16 0 0 1-.817.899 5.238 5.238 0 0 1-.46.365c-.155.106-.323.194-.487.287-.334.194-.679.367-1.033.521-.231.099-.46.204-.69.308-.023.01-.056.019-.039.062a3.723 3.723 0 0 1 1.243-.167c.336.016.67-.003 1.003-.057.16-.025.314-.07.461-.136l.091-.042c.06.11.065.12.02.176-.058.071-.1.152-.141.233zm-6.513 5.331c.352-.35.768-.604 1.218-.807.16-.072.328-.118.492-.179.216-.08.441-.134.664-.193.347-.09.681-.214 1.003-.372a3.458 3.458 0 0 0 1.069-.8.753.753 0 0 1 .075-.074c.015-.013.035-.026.056-.01.022.015.025.033.008.053l-.139.198c.026.1-.006.198-.051.295-.062.134-.118.27-.178.404-.134.296-.296.573-.54.794-.084.075-.173.143-.255.22a2.877 2.877 0 0 1-1.183.66 6.377 6.377 0 0 1-.47.114c-.241.05-.474.124-.704.212-.27.103-.52.244-.747.423-.037.03-.07.072-.125.07.001-.014-.003-.031.004-.04.077-.092.164-.172.262-.24a3.511 3.511 0 0 1 1.231-.522c.253-.056.505-.114.75-.202.165-.06.323-.135.473-.227.326-.196.604-.45.856-.734.037-.041.07-.087.105-.13.14-.171.215-.377.312-.57.06-.12.096-.246.134-.4-.096.072-.179.125-.25.19-.238.213-.517.36-.803.493-.332.154-.683.254-1.034.35-.135.037-.272.068-.406.112a5.59 5.59 0 0 0-.892.37c-.236.127-.458.27-.664.44a5.746 5.746 0 0 0-.741.71c-.034-.09.01-.131.046-.17.14-.147.28-.294.424-.438zm5.756-8.585a.715.715 0 0 0 .236-.063c.032-.014.064-.032.097-.038.23-.036.444-.13.668-.184.15-.038.293-.094.43-.167a.749.749 0 0 1 .096-.043c.29-.101.532-.276.75-.487a.77.77 0 0 1 .098-.078c.007-.005.03-.002.036.006a.039.039 0 0 1 .003.038 1.263 1.263 0 0 1-.266.267c-.13.095-.259.19-.405.26-.21.1-.417.203-.638.272-.38.12-.766.226-1.146.348a2.49 2.49 0 0 0-.483.205 4.16 4.16 0 0 0-.8.577c-.106.102-.213.202-.33.312-.025-.04-.038-.065-.012-.09.065-.064.132-.126.192-.193.285-.32.647-.533 1.007-.75a.8.8 0 0 1 .154-.068c.062-.022.06-.092.106-.125l.086-.061c.211-.154.441-.271.69-.351.315-.1.613-.237.893-.412.148-.092.297-.185.425-.305.296-.276.516-.61.705-.96a4.66 4.66 0 0 1 .448-.709c.078-.098.159-.196.266-.266.017-.011.037-.022.057-.007 0 .069.002.07-.021.09a2.415 2.415 0 0 0-.438.534c-.078.126-.145.255-.215.384-.12.222-.248.439-.406.636-.206.26-.426.5-.715.671-.273.161-.549.315-.849.414a4.27 4.27 0 0 0-.715.303c-.015.008-.016.022-.004.04zm-5.488.8a1.53 1.53 0 0 0-.26.745c-.015.289.013.573.087.852.008.034.015.07.031.1.081.148.127.311.198.464.133.286.148.593.173.9 0 .006-.018.015-.028.02l-.018-.007c-.009-.034-.021-.068-.022-.102a1.813 1.813 0 0 0-.098-.514 4.91 4.91 0 0 0-.234-.584 1.242 1.242 0 0 1-.092-.234c-.079-.314-.123-.631-.077-.956.011-.08.034-.163.006-.247a.364.364 0 0 0-.036.027 1.733 1.733 0 0 0-.423.854c-.028.165-.057.33-.068.498-.015.182-.002.363.04.542.065.28.145.555.222.831.082.292.119.59.133.891.006.133 0 .265-.002.397 0 .026-.013.04-.038.043-.034-.058-.024-.122-.026-.184a4.56 4.56 0 0 0-.167-1.16c-.084-.29-.16-.582-.239-.873a1 1 0 0 1-.019-.103c-.033-.21-.012-.42.012-.627.022-.167.057-.331.106-.492.082-.282.225-.528.429-.739a.204.204 0 0 1 .064-.052c.098-.04.148-.125.197-.21.028-.048.053-.099.081-.147a.527.527 0 0 1 .199-.183c.012-.008.036.004.054.006a.327.327 0 0 1-.015.058c-.005.011-.02.02-.028.03-.049.051-.105.098-.142.155zm-3.2 7.911c.061.18.143.35.257.502.217.293.429.589.623.897.204.325.325.68.337 1.068-.015.003-.034.012-.038.007-.013-.015-.026-.035-.027-.053-.029-.423-.226-.78-.449-1.12-.206-.317-.432-.62-.65-.928-.007-.008-.022-.01-.034-.016-.033.03-.022.076-.031.114a2.128 2.128 0 0 0-.055.772c.02.167.054.331.104.492.038.122.081.237.15.344.126.194.263.38.41.558.031.037.064.076.086.119.096.186.19.375.283.563.011.025.019.054-.025.065-.015-.022-.034-.043-.048-.067a5.437 5.437 0 0 0-.504-.746c-.103-.123-.193-.258-.284-.39a.827.827 0 0 1-.096-.186c-.184-.512-.257-1.031-.105-1.566-.011-.078.04-.126.083-.166-.028-.089-.055-.168-.077-.25a.375.375 0 0 1-.015-.123c.002-.028.03-.045.063-.035l.032.01c-.02.047-.005.093.01.136zm-.01-.135.004-.007.006.004-.003.005-.007-.002zm1.45-4.528c-.031.022-.049.012-.06-.009-.026-.053-.01-.11-.012-.165-.002-.048.022-.098-.03-.166-.016.056-.03.088-.036.121-.05.297-.096.592-.08.896.016.289.066.568.159.841.052.152.083.312.14.462.054.143.106.287.15.434.07.235.146.467.219.7a.73.73 0 0 1 .024.103c.02.131.041.262.057.394.007.052.016.107-.005.157-.025-.002-.047.002-.05-.005a.2.2 0 0 1-.031-.075 4.249 4.249 0 0 0-.19-.858c-.05-.16-.102-.319-.155-.477-.053-.16-.115-.316-.162-.477-.043-.148-.07-.3-.138-.44-.023-.049-.027-.108-.038-.163-.012-.062-.019-.125-.036-.185a.78.78 0 0 1-.03-.249c.001-.056-.001-.112-.009-.167-.036-.303.03-.6.068-.897.004-.027.017-.053.029-.078l.15-.339c.103.048.112.053.096.112-.019.063-.017.124-.018.187-.003.117-.008.234-.012.344z"/><path d="M49.38 95.579c-.002-.077.035-.122.067-.166a2.74 2.74 0 0 1 .413-.474 3.82 3.82 0 0 1 .707-.485 1.87 1.87 0 0 1 .864-.238c.304-.003.598-.058.883-.166.36-.137.722-.27 1.028-.515.022-.02.039-.016.052.01a.047.047 0 0 1 0 .04c-.023.054-.072.084-.118.117-.144.101-.305.17-.465.241-.275.122-.543.256-.843.316-.151.03-.301.06-.457.059-.049-.001-.098.006-.147.008-.198.01-.388.056-.569.139-.276.12-.526.29-.764.477-.194.152-.37.322-.517.522-.032.043-.062.092-.133.114zm6.319-5.925c.105-.07.202-.15.292-.24.113-.114.224-.23.334-.342.028.003.039.024.036.044a.215.215 0 0 1-.068.128c-.133.133-.255.28-.408.391-.21.153-.423.3-.635.449a.686.686 0 0 1-.09.054c-.477.238-.965.453-1.48.594a4.05 4.05 0 0 0-1.042.444c-.017.01-.038.019-.058 0-.003-.012-.012-.03-.008-.036a.21.21 0 0 1 .058-.059c.346-.204.707-.37 1.1-.464.082-.019.166-.038.24-.074.128-.062.263-.1.392-.152.325-.13.652-.259.943-.458.132-.09.26-.19.393-.279zm-7.388.97c.028.028.022.064.014.097-.017.068-.04.135-.056.203a1.91 1.91 0 0 0-.053.584c.016.188.04.375.068.562.025.167.08.327.137.484.088.238.189.468.334.678.055.08.105.165.167.24.082.099.143.209.184.33.013.04.029.078.044.117.101.258.148.526.148.802 0 .01-.013.021-.022.03h-.016c-.01-.018-.024-.037-.025-.057a2.355 2.355 0 0 0-.144-.632 2.27 2.27 0 0 0-.29-.58 3.209 3.209 0 0 1-.338-.555 4.023 4.023 0 0 1-.333-1.276 1.704 1.704 0 0 1 .027-.606c.011-.04.011-.083.013-.125 0-.01-.01-.018-.017-.027l.111-.245c.01-.019.022-.034.047-.024zm2.25-3.066c.023.124.058.244.09.366.086.325.23.63.344.945.075.21.145.423.205.638a.401.401 0 0 1 .01.104c0 .098.002.196-.005.293a4.11 4.11 0 0 1-.043.332c-.007.044-.032.078-.1.068.015-.136.029-.26.04-.385.02-.19 0-.375-.058-.557-.074-.226-.154-.45-.239-.671-.122-.327-.25-.651-.312-.998-.034-.193-.074-.387-.052-.583.02-.172.06-.343.094-.514.003-.018.023-.033.039-.053.01.023.03.045.025.06-.047.141-.024.292-.054.434-.037.176-.016.35.017.521zm8.045-5.09c-.196.005-.39.03-.585.05-.221.022-.42.11-.602.227-.219.14-.404.322-.572.52-.054.064-.1.134-.152.2-.012.016-.027.027-.052.013.003-.019.001-.04.01-.057.176-.327.42-.591.733-.792a1.49 1.49 0 0 1 .685-.238c.23-.022.46-.04.69-.058a1.43 1.43 0 0 0 .448-.09c.032-.014.065-.026.1-.015.025.02.032.045.02.087a2.088 2.088 0 0 1-.723.152zm-3.86 1.16a.236.236 0 0 1-.008.003l.005-.008.004.003v.002zm.666-.524c.037-.032.073-.066.125-.07l.02.004c.004.012.012.028.007.038a.139.139 0 0 1-.036.05c-.213.181-.426.364-.641.542-.104.086-.197.18-.261.298a2.068 2.068 0 0 0-.237.757c-.022.174-.034.348-.054.52-.024.195-.053.388-.08.582-.006.034-.018.068-.055.085-.037-.02-.034-.053-.03-.088.039-.312.081-.624.113-.937.016-.174.047-.346.092-.515.07-.254.166-.49.344-.688.013-.015.02-.036.028-.054.097-.036.17-.107.247-.172.14-.116.279-.235.418-.352zm-4.89 6.488c-.057-.178-.11-.36-.197-.528-.04-.08-.07-.166-.105-.25-.094-.233-.185-.852-.158-1.092.002-.022.026-.03.058-.02.002.044.003.091.009.138.023.202.033.406.078.603.045.199.114.39.207.57.098.19.136.397.205.595a.286.286 0 0 1 .014.082c.012.28.027.56-.028.837-.022.109-.04.219-.06.328-.004.024-.026.034-.045.033-.01 0-.023-.016-.026-.029a.368.368 0 0 1 .009-.164c.062-.296.077-.596.07-.897 0-.07-.01-.14-.03-.207v.001zm.828 3.314c-.084.051-.17.1-.24.168-.02.02-.045.032-.079.02.006-.02.007-.044.019-.057a1.14 1.14 0 0 1 .137-.125c.141-.103.29-.195.426-.303.14-.11.3-.178.46-.248.084-.036.169-.068.255-.097.28-.094.563-.168.858-.197.104-.01.21-.02.31-.047.137-.036.275-.024.411-.05.001.024.007.045.001.049-.029.018-.058.04-.09.046-.18.033-.358.069-.539.087a4.03 4.03 0 0 0-.558.098c-.418.102-.814.254-1.16.518-.068.051-.14.095-.211.138zm-1.945-4.802a.044.044 0 0 1 .038.005c.008.007.015.027.01.035-.026.057-.048.119-.088.165a.512.512 0 0 0-.094.185c-.031.1-.074.196-.116.291-.052.116-.081.238-.11.36l-.035.142c-.079.307-.117.62-.079.935.032.256.054.514.12.765.006.025.017.056-.032.08-.088-.247-.115-.498-.158-.745a2.146 2.146 0 0 1-.016-.666c.016-.125.045-.247.069-.37.053-.276.157-.537.254-.798.038-.104.095-.202.147-.3.02-.037.047-.072.09-.084zm4.985 1.284c-.374.067-.73.18-1.062.37-.084.05-.177.083-.258.14a.077.077 0 0 1-.081.01c-.017-.041.006-.065.037-.083.419-.243.85-.455 1.336-.528.214-.033.426-.088.643-.072.13.01.25-.02.369-.056.12-.034.236-.086.354-.13a.488.488 0 0 1 .08-.024.036.036 0 0 1 .034.012c.015.023.011.042-.013.056a.56.56 0 0 1-.11.058c-.098.038-.198.069-.295.107a.925.925 0 0 1-.368.069 3.342 3.342 0 0 0-.666.07z"/><path d="M49.892 95.285c.3-.263.634-.482.965-.703a.5.5 0 0 1 .199-.09c.027.023.028.047.015.06a.408.408 0 0 1-.082.063c-.35.219-.69.452-1.004.72-.23.195-.435.413-.615.654-.082.111-.159.228-.243.35-.053-.054-.038-.093-.014-.13.085-.127.167-.257.259-.38.151-.202.331-.377.52-.543zm2.587-2.364c-.117.02-.233.049-.349.073a.06.06 0 0 1-.04-.003c-.01-.005-.016-.02-.02-.032l.008-.019a.545.545 0 0 1 .077-.026c.443-.104.884-.212 1.297-.411.189-.091.388-.162.556-.291.112-.085.223-.17.335-.253.032-.024.06-.062.109-.036l.004.02c-.013.025-.024.051-.043.07a2.186 2.186 0 0 1-.521.387c-.444.246-.911.433-1.413.521zm-1.634-6.124c-.03.164-.03.333-.03.5 0 .084.007.167.024.25.056.28.1.562.181.837l-.006.02c-.057.022-.077-.02-.087-.06-.06-.237-.117-.474-.172-.712a1.088 1.088 0 0 1-.027-.207 3.17 3.17 0 0 1 .182-1.216c.054-.145.14-.271.228-.397.016-.023.045-.032.08-.019.001.074-.047.127-.087.181-.179.247-.234.536-.286.824zm7.174-1.52c-.22.2-.47.353-.734.484a1.95 1.95 0 0 1-.765.21c-.084.005-.166.019-.25.03-.098.012-.194.026-.292.036-.03.003-.052-.014-.062-.049.015-.01.032-.028.05-.031.165-.026.33-.06.498-.073a2.327 2.327 0 0 0 1.081-.37c.16-.1.309-.217.463-.326.034-.024.07-.047.105-.069.02-.012.048 0 .048.02-.001.014 0 .032-.007.039-.044.035-.094.063-.135.1zm.074-1.401c-.318.292-.711.406-1.123.475l-.02-.005c-.017-.029-.016-.058.016-.068.086-.028.173-.054.262-.075.32-.073.608-.215.847-.44a2.288 2.288 0 0 0 .542-.714c.031-.064.066-.123.142-.142.01.03.003.056-.01.081-.057.105-.109.213-.17.315-.13.218-.3.403-.486.573zM47.298 94.053a1.65 1.65 0 0 1-.076-.706c.003-.04.006-.085.055-.104.025-.01.038.03.032.1-.037.348.037.669.224.964.128.209.28.4.446.581.099.109.18.233.246.366.014.027.032.06.002.09-.009 0-.019 0-.02-.004a3.003 3.003 0 0 0-.41-.528c-.166-.18-.324-.368-.429-.593-.006-.014-.025-.023-.04-.034.02-.049-.015-.09-.03-.132zm1.162-3.055c-.002.037.001.08-.008.118a.892.892 0 0 0-.003.355c.036.228.074.455.159.672.063.163.113.331.169.497.053.16.114.315.211.455.02.028.043.056.037.095l-.01.013-.02.003c-.017-.01-.039-.019-.05-.035a1.538 1.538 0 0 1-.204-.388 9.634 9.634 0 0 0-.2-.575 3.512 3.512 0 0 1-.19-.815.81.81 0 0 1 .05-.39c.006-.02.032-.022.06-.006h-.001z"/><path d="m51.505 93.032-.012-.012-.001-.02c.008-.01.013-.025.025-.032.276-.169.57-.292.884-.37.19-.048.375-.108.562-.165.112-.035.227-.064.34-.094.028-.01.043 0 .047.028.005.024-.009.038-.029.047l-.019.008c-.186.061-.37.124-.556.18-.207.064-.418.116-.624.18a2.55 2.55 0 0 0-.46.199c-.048.026-.097.058-.157.052zm-3.68.71c-.103-.239-.15-.494-.23-.74-.006-.02-.004-.042-.005-.063a2.56 2.56 0 0 1 0-.418c.016-.173.01-.348.053-.519.024-.1.047-.203.147-.263a.646.646 0 0 1-.017.079c-.099.29-.075.594-.104.892-.004.041.006.084.01.125.016.21.064.414.127.614.026.08.05.161.07.242.007.028-.003.056-.037.064l-.015-.013zm7.554-4.69a3.092 3.092 0 0 0-1.194.16c-.04.014-.08.034-.12.035-.13.003-.244.057-.361.1-.051.018-.102.038-.149.056-.02-.03-.008-.05.01-.06.114-.068.233-.126.364-.156.157-.036.315-.068.467-.118a2.532 2.532 0 0 1 1.062-.099c.02.03.02.053 0 .063a.16.16 0 0 1-.08.02zm.822-.109c.049-.04.1-.079.174-.078.007.058-.026.076-.053.096-.162.121-.336.23-.485.365-.221.2-.483.328-.742.465a.208.208 0 0 1-.078.027c-.031.002-.071.004-.066-.05.253-.089.482-.22.688-.39.183-.152.377-.287.562-.435zm-.714-2.867a.294.294 0 0 1 .182-.035c.01 0 .022.017.025.029a.037.037 0 0 1-.01.036.234.234 0 0 1-.075.038 1.19 1.19 0 0 0-.393.193c-.142.1-.29.192-.435.289-.04-.022-.05-.056-.015-.082.165-.118.332-.233.5-.345.07-.047.147-.083.22-.123zm-4.492 4.16c.033.28.014.556-.058.83a.399.399 0 0 1-.048.114c-.015.023-.04.06-.088.02.11-.33.151-.668.123-1.015.028 0 .038-.003.04 0 .012.016.029.032.03.05zm-5.058 6.276-.002.002-.004-.006.002-.004.004.008z"/><path d="M45.983 96.287c.031.113.054.213.087.31.033.1.074.197.12.29.051.1.113.195.175.288.057.087.123.168.185.254-.046.025-.072 0-.092-.026a3.88 3.88 0 0 1-.176-.235c-.126-.186-.252-.371-.31-.592-.006-.023-.023-.043-.036-.064.04-.063-.021-.147.046-.225zm1.818 3.758c-.177-.244-.429-.378-.713-.466a1.43 1.43 0 0 1-.572-.335c-.005-.005.003-.023.005-.034.025-.014.037.006.053.017.146.096.3.185.469.227.185.047.351.131.516.219a.724.724 0 0 1 .283.298c.02.033.014.066-.04.074H47.8zm-.864-.462c.104.036.195.107.292.16.043.023.09.038.134.06a.348.348 0 0 1 .07.045c.008.01.01.022.006.035-.005.01-.02.023-.03.023a.47.47 0 0 1-.215-.076 4.346 4.346 0 0 0-.466-.237.837.837 0 0 1-.13-.07c-.028-.017-.038-.042-.03-.075.02.004.04.004.058.012.101.048.205.087.31.124h.002zm-.68-.535c-.016-.01-.037-.017-.051-.031a9.829 9.829 0 0 1-.22-.214c-.006-.007-.006-.03 0-.037.014-.015.035-.02.053-.004.084.078.17.157.252.237.007.007.008.028.002.038-.004.007-.022.007-.036.01z"/></g></g></g></g></g></g></g></g></g></g><clipPath id="q"><path transform="matrix(.24 0 0 .24 2.16 32.16)" d="M15.094 106.091H625.2v428.481H15.094z" fill-rule="evenodd"/></clipPath><g clip-path="url(#q)"><path d="m81.751 118.22-.2-45.886c17.507-14.715 47.022-8.255 58.66 3.596-9.24-7.354-36.988-15.417-55.006-1.562L81.75 118.22m-5.505 0 .2-45.886c-17.507-14.715-47.022-8.255-58.66 3.596 9.24-7.354 36.988-15.417 55.006-1.562l3.454 43.852" fill="#009736"/></g><clipPath id="r"><path transform="matrix(.24 0 0 .24 2.16 32.16)" d="M331.66 242.93h293.486v275.286H331.659z" fill-rule="evenodd"/></clipPath><g clip-path="url(#r)"><path d="M81.792 143.073c10.462-7.343 24.895-8.496 37.29-5.358 12.394 3.137 23.434 10.3 33.113 18.648l-8.317-65.797 5.093 58s-14.377-11.884-33.888-14.298c-23.442-2.9-33.291 8.805-33.291 8.805" fill="#009736"/></g><clipPath id="s"><path transform="matrix(.24 0 0 .24 2.16 32.16)" d="M15.094 106.091H625.2v428.481H15.094z" fill-rule="evenodd"/></clipPath><g clip-path="url(#s)"><path d="M76.205 143.073c-10.463-7.343-24.895-8.496-37.29-5.358-12.395 3.137-23.434 10.3-33.113 18.648l8.317-65.797-5.092 58s14.376-11.884 33.887-14.298c23.442-2.9 33.29 8.805 33.29 8.805" fill="#009736"/></g><clipPath id="t"><path transform="matrix(.24 0 0 .24 2.16 32.16)" d="M.377.774h639.524v639.524H.377z"/></clipPath><g clip-path="url(#t)"><clipPath id="u"><path transform="matrix(.24 0 0 .24 2.16 32.16)" d="M.377.774h639.524v639.524H.377z"/></clipPath><g clip-path="url(#u)"><clipPath id="v"><path transform="matrix(.24 0 0 .24 2.16 32.16)" d="M.377.774h639.524v639.524H.377z"/></clipPath><g clip-path="url(#v)"><clipPath id="w"><path transform="matrix(.24 0 0 .24 2.16 32.16)" d="M25.958 456.115h586.656v80.153H25.958z"/></clipPath><g clip-path="url(#w)"><clipPath id="x"><path transform="matrix(.24 0 0 .24 2.16 32.16)" d="M27.603 457.61h584.723v76.962H27.603V457.61z"/></clipPath><g clip-path="url(#x)"><path d="M110.107 142.092c-14.8-.401-24.894 6.301-29.045 9.707-.29.239-.613.422-.968.548-.354.127-.72.19-1.096.19-.376 0-.741-.063-1.095-.19a3.228 3.228 0 0 1-.968-.548c-4.15-3.406-14.245-10.108-29.045-9.707-18.39.5-33.928 13.33-38.932 18.37h4.86c6.382-5.949 18.876-14.449 34.38-14.397 10.714.035 18.85 3.868 24.063 7.379.432.29.77.665 1.015 1.124.244.46.367.95.367 1.47a3.128 3.128 0 0 0 3.13 3.127h4.451c1.73 0 3.13-1.4 3.13-3.127 0-.52.123-1.01.368-1.47a3.08 3.08 0 0 1 1.014-1.124c5.212-3.51 13.35-7.344 24.063-7.38 15.504-.051 29.752 8.716 36.933 14.397h2.307c-5.004-5.04-20.543-17.87-38.932-18.369" fill="#ff0800"/></g></g></g></g></g><clipPath id="y"><path transform="matrix(.24 0 0 .24 2.16 32.16)" d="M61.038.774H639.9v385.385H61.038z" fill-rule="evenodd"/></clipPath><g clip-path="url(#y)"><path d="M32.59 115.93H21.37v6.537a6.932 6.932 0 0 0-2.506.751c-.788.41-1.473.95-2.055 1.62v-11.25h1.824V100.94h8.818c.31.001.613.042.912.122.912.243 1.338.912 1.338 1.885v10.611h2.919v2.372m-7.602-2.372v-10.003c0-.7-.608-1.064-1.854-1.064v11.097h1.854v-.03z" fill="#1c1d1c"/></g><clipPath id="z"><path transform="matrix(.24 0 0 .24 2.16 32.16)" d="M119.554.774H639.9v348.208H119.554z" fill-rule="evenodd"/></clipPath><g clip-path="url(#z)"><path d="M30.853 115.916v-2.342h2.858V90.071c1.807-.22 3.328-1 4.56-2.34v25.843h2.92v2.342H30.852z" fill="#1c1d1c"/></g><clipPath id="A"><path transform="matrix(.24 0 0 .24 2.16 32.16)" d="M180.298.774h459.603V387.83H180.298z" fill-rule="evenodd"/></clipPath><g clip-path="url(#A)"><path d="M50.448 121.408c0 .67-.182 1.095-.517 1.277l-4.5 2.554a2.41 2.41 0 0 1 .213-.912c.215-.25.469-.453.76-.608l4.044-2.31z" fill="#1c1d1c"/></g><clipPath id="B"><path transform="matrix(.24 0 0 .24 2.16 32.16)" d="M155.616.774H639.9v348.208H155.616z" fill-rule="evenodd"/></clipPath><g clip-path="url(#B)"><path d="M55.866 115.916H39.508v-2.342h6.537a4.73 4.73 0 0 0-1.571-1.776 4.73 4.73 0 0 0-2.23-.808v-8.392c0-1.216 1.916-1.794 5.716-1.794 3.588 0 5.382.608 5.382 1.794v8.392a5.162 5.162 0 0 0-2.233.84 5.162 5.162 0 0 0-1.628 1.744h6.385v2.342m-7.176-2.342v-10.641c0-.335-.304-.517-.912-.517-.608 0-.912.182-.912.517v10.641h1.824z" fill="#1c1d1c"/></g><clipPath id="C"><path transform="matrix(.24 0 0 .24 2.16 32.16)" d="M216.608.774H639.9v348.208H216.608z" fill-rule="evenodd"/></clipPath><g clip-path="url(#C)"><path d="M54.146 115.916v-2.342h2.858v-23.32a7.239 7.239 0 0 0 2.496-.771 7.239 7.239 0 0 0 2.065-1.6v28.033h-7.42z" fill="#1c1d1c"/></g><clipPath id="D"><path transform="matrix(.24 0 0 .24 2.16 32.16)" d="M253.722.774h386.179v360.519H253.722z" fill-rule="evenodd"/></clipPath><g clip-path="url(#D)"><path d="M67.644 117.168c.273.714.73 1.282 1.369 1.702-3.953 0-5.96-1.003-5.96-2.98V90.078a7.208 7.208 0 0 0 2.51-.75 7.208 7.208 0 0 0 2.081-1.591v29.432z" fill="#1c1d1c"/></g><clipPath id="E"><path transform="matrix(.24 0 0 .24 2.16 32.16)" d="M345.669.774H639.9v348.208H345.669z" fill-rule="evenodd"/></clipPath><g clip-path="url(#E)"><path d="M94.394 95.666v1.581c0 .547-.274.821-.821.821h-1.581c-.547 0-.79-.304-.79-.821v-1.581c0-.517.243-.79.79-.79h1.581c.547 0 .82.273.82.79m-3.739 0v1.581c0 .547-.304.821-.82.821h-1.612c-.517 0-.79-.304-.79-.821v-1.581c0-.517.273-.79.79-.79h1.611c.548 0 .821.273.821.79m8.453 20.25H85.12v-13.074c0-1.52 1.217-2.25 3.588-2.25h7.51v12.982h2.889v2.342m-7.54-2.342v-11.25c-.408 0-.793.091-1.156.274-.426.213-.7.487-.7.79v10.186h1.855z" fill="#1c1d1c"/></g><clipPath id="F"><path transform="matrix(.24 0 0 .24 2.16 32.16)" d="M395.338.774h244.563v370.293H395.338z" fill-rule="evenodd"/></clipPath><g clip-path="url(#F)"><path d="M97.041 115.926v-2.342h2.706v-10.459c1.916-.304 3.466-1.064 4.591-2.371v15.172h-7.297m4.257 4.5c0 .486-.304.79-.882.79h-1.55c-.548 0-.821-.274-.821-.79v-1.642c0-.517.273-.79.82-.79h1.582c.547.03.85.303.85.82v1.611m3.467 0c-.03.487-.304.791-.82.791h-1.612c-.548 0-.821-.274-.821-.79v-1.642c0-.517.304-.79.82-.79h1.612c.517.03.79.303.79.82v1.611h.031z" fill="#1c1d1c"/></g><clipPath id="G"><path transform="matrix(.24 0 0 .24 2.16 32.16)" d="M431.836.774H639.9v362.683H431.836z" fill-rule="evenodd"/></clipPath><g clip-path="url(#G)"><path d="M115.682 100.66v-.121V116.5c.03 1.46-1.277 2.372-3.983 2.767a22.248 22.248 0 0 1-5.898-.851c3.557.121 5.32-.67 5.26-2.372V102.88a7.175 7.175 0 0 0 2.537-.785 7.175 7.175 0 0 0 2.084-1.648v.244-.03z" fill="#1c1d1c"/></g><clipPath id="H"><path transform="matrix(.24 0 0 .24 2.16 32.16)" d="M479.094.774H639.9v348.208H479.094z" fill-rule="evenodd"/></clipPath><g clip-path="url(#H)"><path d="M117.142 115.916V87.76a7.237 7.237 0 0 0 2.093 1.61c.796.41 1.64.663 2.529.761v23.412h2.828v2.372h-7.45z" fill="#1c1d1c"/></g><clipPath id="I"><path transform="matrix(.24 0 0 .24 2.16 32.16)" d="M502.043.774h137.858V348.92H502.043z" fill-rule="evenodd"/></clipPath><g clip-path="url(#I)"><path d="m136.606 100.82.03-.122v12.862h1.855v-10.49a7.237 7.237 0 0 0 2.546-.755 7.237 7.237 0 0 0 2.106-1.617v15.203H122.65v-2.341h2.828v-10.52a7.084 7.084 0 0 0 2.534-.751 7.084 7.084 0 0 0 2.088-1.621v12.892h1.885v-10.52a7.207 7.207 0 0 0 2.53-.76 7.207 7.207 0 0 0 2.091-1.612v.152z" fill="#1c1d1c"/></g><clipPath id="J"><path transform="matrix(.24 0 0 .24 2.16 32.16)" d="M.377.774h639.524v639.524H.377z"/></clipPath><g clip-path="url(#J)"><clipPath id="K"><path transform="matrix(.24 0 0 .24 2.16 32.16)" d="M.377.774h639.524v639.524H.377z"/></clipPath><g clip-path="url(#K)"><clipPath id="L"><path transform="matrix(.24 0 0 .24 2.16 32.16)" d="M.377.774h639.524v639.524H.377z"/></clipPath><g clip-path="url(#L)"><clipPath id="M"><path transform="matrix(.24 0 0 .24 2.16 32.16)" d="M.377.774h639.524v652.314H.377z"/></clipPath><g clip-path="url(#M)"><clipPath id="N"><path transform="matrix(.24 0 0 .24 2.16 32.16)" d="M.377.774h639.524v639.524H.377z"/></clipPath><g clip-path="url(#N)"><clipPath id="O"><path transform="matrix(.24 0 0 .24 2.16 32.16)" d="M.377.774h639.524v639.524H.377z"/></clipPath><g clip-path="url(#O)"><clipPath id="P"><path transform="matrix(.24 0 0 .24 2.16 32.16)" d="M464.245 191.778h85.27v83.565h-85.27z"/></clipPath><g clip-path="url(#P)"><clipPath id="Q"><path transform="matrix(.24 0 0 .24 2.16 32.16)" d="m465.92 196.022 79.235-3.196 3.196 79.236-79.236 3.196-3.196-79.236z"/></clipPath><g clip-path="url(#Q)"><clipPath id="R"><path transform="matrix(.24 0 0 .24 2.16 32.16)" d="M464.245 191.778h85.27v83.565h-85.27z"/></clipPath><g clip-path="url(#R)"><clipPath id="S"><path transform="matrix(.24 0 0 .24 2.16 32.16)" d="m465.92 196.022 79.235-3.196 3.196 79.236-79.236 3.196-3.196-79.236z"/></clipPath><g clip-path="url(#S)"><clipPath id="T"><path transform="matrix(.24 0 0 .24 2.16 32.16)" d="M464.245 191.778h85.27v83.565h-85.27z"/></clipPath><g clip-path="url(#T)"><clipPath id="U"><path transform="matrix(.24 0 0 .24 2.16 32.16)" d="m465.92 196.022 79.235-3.196 3.196 79.236-79.236 3.196-3.196-79.236z"/></clipPath><g clip-path="url(#U)"><path stroke-width=".6188616" fill="none" stroke="#000" d="M115 80.512c.04.043.077.09.107.14l.054.09a2.895 2.895 0 0 1 .312.665l.092.274c.02.06.04.125.058.194l.053.197c.016.058.03.12.042.186.015.085.028.147.04.187.029.09.05.181.066.273l.039.229c.018.092.036.185.056.277.006.031.012.07.017.12.004.04.01.08.018.12"/><path stroke-width=".6188616" fill="none" stroke="#6eb192" d="M115.954 83.463a.2.2 0 0 0 .021.115"/><path stroke-width=".6188616" fill="none" stroke="#817c63" d="M115.975 83.577c.017.08.037.16.06.238.009.032.02.099.032.204.005.044.015.09.028.139.035.129.06.259.074.39a1.333 1.333 0 0 0 .041.2c.027.08.044.14.052.178.023.108.049.215.079.32l.041.171c.016.063.036.127.061.193.035.09.086.229.151.415a.074.074 0 0 1 .003.02c0 .009.002.015.006.022l.015.024.067.175c.012.035.025.076.038.125l.037.125c.015.05.022.097.02.143 0 .015.002.03.007.043.005.013.009.026.011.04l.013.094a.587.587 0 0 1-.002-.108c-.003.016.001.028.01.037a.013.013 0 0 1 .005.01.252.252 0 0 0 .007.072c.008.03.012.053.013.069.003.052.008.103.016.155"/><path stroke-width=".6188616" fill="none" stroke="#4ab68a" d="M116.86 87.07c-.002.02-.006.02-.011 0-.002-.006-.002-.006-.002 0l.005.222"/><path stroke-width=".6188616" fill="none" stroke="#817c63" d="M116.852 87.292a.377.377 0 0 0-.029.158c.001.055.002.088 0 .1a1.13 1.13 0 0 1-.025.152 1.018 1.018 0 0 1-.045.13 1.539 1.539 0 0 0-.046.13"/><path stroke-width=".6188616" fill="none" stroke="#4ab68a" d="M116.707 87.962a.14.14 0 0 0-.027.06"/><path stroke-width=".6188616" fill="none" stroke="#817c63" d="M116.68 88.022a.041.041 0 0 0-.005.02"/><path stroke-width=".6188616" fill="none" stroke="#4ab68a" d="m116.675 88.042-.024.073"/><path stroke-width=".6188616" fill="none" stroke="#817c63" d="m116.651 88.115-.034.133"/><path stroke-width=".6188616" fill="none" stroke="#4ab68a" d="M116.617 88.248a.198.198 0 0 0-.022.07"/><path stroke-width=".6188616" fill="none" stroke="#817c63" d="M116.595 88.318a3.428 3.428 0 0 0-.07.308"/><path stroke-width=".6188616" fill="none" stroke="#4ab68a" d="M116.525 88.626c0-.031-.003-.03-.008.003a.029.029 0 0 1-.003.007.085.085 0 0 0-.006.057"/><path stroke-width=".6188616" fill="none" stroke="#817c63" d="M116.508 88.693a.103.103 0 0 0-.006.055c-.005-.012-.006-.001-.002.032l-.001.01a.53.53 0 0 0-.023.135.378.378 0 0 1-.006.051 3.006 3.006 0 0 0-.009.051"/><path stroke-width=".6188616" fill="none" stroke="#4ab68a" d="M116.461 89.027a.275.275 0 0 0-.018.102"/><path stroke-width=".6188616" fill="none" stroke="#817c63" d="M116.443 89.13a.215.215 0 0 0-.01.089.16.16 0 0 1-.005.07"/><path stroke-width=".6188616" fill="none" stroke="#4ab68a" d="M116.428 89.288a3.794 3.794 0 0 0-.01.176c-.001.061-.005.12-.011.175a5.42 5.42 0 0 0-.03.694.019.019 0 0 1-.005.011.027.027 0 0 0-.005.018l.006.112"/><path stroke-width=".6188616" fill="none" stroke="#817c63" d="M116.373 90.474a.115.115 0 0 1-.001.045.456.456 0 0 0-.008.044.726.726 0 0 1-.018.11"/><path stroke-width=".6188616" fill="none" stroke="#6eb192" d="M116.346 90.673c-.003-.022-.006-.024-.007-.008a8.495 8.495 0 0 0-.02.237"/><path stroke-width=".6188616" fill="none" stroke="#817c63" d="M116.319 90.902a.398.398 0 0 1-.022.079.334.334 0 0 0-.01.054.458.458 0 0 1-.011.054 2.775 2.775 0 0 0-.057.29c-.002.01-.004.01-.005-.003a3.253 3.253 0 0 0-.046.215 1.116 1.116 0 0 1-.035.136"/><path stroke-width=".6188616" fill="none" stroke="#4ab68a" d="M116.133 91.727a.139.139 0 0 0-.022.09"/><path stroke-width=".6188616" fill="none" stroke="#817c63" d="m116.111 91.816-.012.044"/><path stroke-width=".6188616" fill="none" stroke="#4ab68a" d="M116.098 91.86a.119.119 0 0 1-.012.044.065.065 0 0 0-.006.049"/><path stroke-width=".6188616" fill="none" stroke="#817c63" d="m116.08 91.953-.023.073"/><path stroke-width=".6188616" fill="none" stroke="#4ab68a" d="M116.057 92.026c-.002-.038-.004-.044-.004-.017l-.002.008a.542.542 0 0 0-.028.113"/><path stroke-width=".6188616" fill="none" stroke="#817c63" d="m116.023 92.13-.04.123"/><path stroke-width=".6188616" fill="none" stroke="#6eb192" d="m115.983 92.253-.043.126"/><path stroke-width=".6188616" fill="none" stroke="#817c63" d="m115.94 92.38-.047.162"/><path stroke-width=".6188616" fill="none" stroke="#4ab68a" d="M115.893 92.542a.18.18 0 0 0-.026.077"/><path stroke-width=".6188616" fill="none" stroke="#817c63" d="M115.867 92.619c-.02.053-.038.106-.056.16a.941.941 0 0 1-.316.781.046.046 0 0 0-.008.026c.001.014.01.021.025.02.071 0 .147-.02.227-.057"/><path stroke-width=".6188616" fill="none" stroke="#14b46d" d="M115.739 93.55a.572.572 0 0 1 .142-.014l.219.008c.072.001.145.005.22.011.133.011.267.02.4.025.07.004.14.01.208.02.091.014.158.023.201.026l.294.024c.085.007.169.018.252.034.054.01.145.015.274.015.217 0 .434-.006.65-.015.122-.005.21-.007.263-.006.145.003.31.016.493.04.244.03.459.077.645.142.149.051.353.128.611.23.352.137.74.263 1.161.377.142.038.285.065.431.082.082.01.165.018.248.027.135.014.271.019.408.014a4.184 4.184 0 0 1 .654.03c.157.016.315.022.473.02l.424-.007c.059-.001.133.003.223.01.133.011.292.022.476.032.09.004.176.013.261.024l.394.054c.091.012.178.024.26.038l.284.046a3.383 3.383 0 0 0 .482.045c.358-.005.783-.026 1.277-.064.145-.011.332-.017.559-.017.151 0 .31-.016.476-.049l.187-.037c.107-.017.216-.028.325-.032l.254-.011c.085-.005.17-.003.254.004.075.01.15.024.224.045l.102.026c.036.01.072.022.107.036.252.103.486.24.7.409l.07.055c.15.117.301.231.454.344.03.023.075.05.133.081a.116.116 0 0 0 .063.017.016.016 0 0 0 .012-.006.2.2 0 0 0 .039-.056c.072-.165.14-.308.201-.431.154-.305.265-.622.333-.949.01-.047.016-.094.02-.141.008-.12.013-.24.013-.36.001-.087-.002-.175-.008-.262a5.378 5.378 0 0 0-.055-.455l-.011-.052a.314.314 0 0 1-.005-.096c0-.01 0-.02-.005-.029a.12.12 0 0 1-.008-.027.185.185 0 0 0-.048-.1.024.024 0 0 1-.006-.026c.009-.027.002-.051-.021-.073"/><path stroke-width=".6188616" fill="none" stroke="#59d3a8" d="M132.426 92.626a1.139 1.139 0 0 0-.019-.183.127.127 0 0 1-.002-.05"/><path stroke-width=".6188616" fill="none" stroke="#4ab68a" d="M132.405 92.393a.172.172 0 0 0-.016-.125"/><path stroke-width=".6188616" fill="none" stroke="#59d3a8" d="M132.39 92.268a2.13 2.13 0 0 0-.038-.152.076.076 0 0 0-.052-.055.01.01 0 0 1-.007-.009v-.03c-.001-.013 0-.025.004-.037a.178.178 0 0 0 .001-.075"/><path stroke-width=".6188616" fill="none" stroke="#85edcb" d="M132.298 91.91c.01-.081.016-.162.016-.243a22.02 22.02 0 0 1-.028-.802 5.111 5.111 0 0 0-.008-.207.405.405 0 0 1 .016-.16c.03-.083.055-.165.074-.25.012-.053.022-.131.031-.236.008-.097.019-.193.033-.29a.756.756 0 0 0 0-.201 8.522 8.522 0 0 0-.112-.679 3.01 3.01 0 0 1-.041-.25 3.164 3.164 0 0 0-.065-.283.57.57 0 0 1-.017-.119l-.006-.133"/><path stroke-width=".6188616" fill="none" stroke="#4ab68a" d="M132.191 88.057a.076.076 0 0 1 .025-.053"/><path stroke-width=".6188616" fill="none" stroke="#147b59" d="M132.216 88.004c.016-.019.02-.038.008-.057a1.1 1.1 0 0 1-.124-.245 2.233 2.233 0 0 1-.069-.197l-.043-.136a1.197 1.197 0 0 1-.042-.187 3.51 3.51 0 0 1-.033-.65c.004-.085.015-.161.034-.228.02-.08.045-.158.073-.235.056-.142.142-.348.26-.619.064-.146.125-.293.184-.441a.637.637 0 0 0 .036-.124c.004-.02-.004-.035-.024-.042a14 14 0 0 0-.402-.148 2.183 2.183 0 0 1-.287-.126 12.643 12.643 0 0 0-.54-.261 1.97 1.97 0 0 0-.524-.141.674.674 0 0 1-.09-.017 1.45 1.45 0 0 0-.255-.048 4.511 4.511 0 0 1-.278-.032 1.81 1.81 0 0 0-.193-.02 5.584 5.584 0 0 0-.475.004c-.186.01-.406.016-.66.018a2.766 2.766 0 0 1-.294-.012l-.17-.024a1.611 1.611 0 0 0-.236-.015 1.886 1.886 0 0 1-.419-.044.934.934 0 0 0-.089-.015 2.913 2.913 0 0 0-.09-.01 1.25 1.25 0 0 1-.261-.045 1.02 1.02 0 0 0-.245-.033 1.631 1.631 0 0 1-.177-.025 1.526 1.526 0 0 0-.177-.022 2.716 2.716 0 0 1-.29-.026 3.124 3.124 0 0 1-.478-.142c-.16-.062-.282-.108-.366-.138a5.327 5.327 0 0 0-.608-.18 3.754 3.754 0 0 1-.313-.083 1.693 1.693 0 0 1-.596-.345 1.33 1.33 0 0 0-.5-.28 11.078 11.078 0 0 0-.643-.173l-.603-.143-.15-.03c-.05-.009-.099-.019-.148-.03a8.82 8.82 0 0 0-.223-.047c-.22-.04-.44-.083-.66-.128a4.116 4.116 0 0 0-.127-.022 2.071 2.071 0 0 1-.128-.025l-.135-.031-.602-.127-.104-.025a1.773 1.773 0 0 0-.105-.02 2.332 2.332 0 0 1-.157-.031 26.09 26.09 0 0 1-.419-.098 3.978 3.978 0 0 0-.17-.037 1.948 1.948 0 0 1-.16-.039 2.686 2.686 0 0 0-.157-.04 11.35 11.35 0 0 1-.42-.101c-.506-.132-.926-.242-1.26-.331a8.236 8.236 0 0 1-.253-.072l-.613-.188-.105-.035a1.16 1.16 0 0 0-.228-.051.48.48 0 0 1-.143-.043 16.86 16.86 0 0 1-.352-.165"/><path stroke-width=".6188616" fill="none" stroke="#817c63" d="m115.398 80.601-.049-.026"/><path stroke-width=".6188616" fill="none" stroke="#6eb192" d="M115.35 80.575a.678.678 0 0 0-.118-.087.285.285 0 0 1-.052-.041.29.29 0 0 0-.106-.066"/><path stroke-width=".6188616" fill="none" stroke="#4ab68a" d="M115.074 80.38a.616.616 0 0 0-.127-.08"/><path stroke-width=".6188616" fill="none" stroke="#6eb192" d="M114.947 80.3a.209.209 0 0 0-.088-.05c-.015-.004-.027-.005-.036-.001-.013.005-.02.018-.02.038a.116.116 0 0 0 .033.088c.05.05.106.096.164.137"/><path stroke-width=".6188616" fill="none" stroke="#a88a83" d="M114.947 80.3a.33.33 0 0 1 .058.079c.003.006.008.009.013.008l.056-.006"/><path stroke-width=".6188616" fill="none" stroke="#df505c" d="M115.35 80.575a.465.465 0 0 1-.195-.065.191.191 0 0 0-.074-.023.027.027 0 0 1-.012-.004c-.028-.019-.052-.016-.073.009-.002.003-.002.006 0 .01a.02.02 0 0 1 .003.01"/><path stroke-width=".6188616" fill="none" stroke="#851a23" d="m115.398 80.601-.033-.001c-.005 0-.007.002-.007.007l-.002.088c0 .004.002.008.006.011a.68.68 0 0 0 .059.036.495.495 0 0 1 .088.07c.023.02.047.038.072.056.026.018.049.039.068.061a.75.75 0 0 0 .057.06l.06.057c.043.044.088.087.136.127"/><path stroke-width=".6188616" fill="none" stroke="#b01d26" d="M115.902 81.173c.027.032.057.061.09.087"/><path stroke-width=".6188616" fill="none" stroke="#851a23" d="m115.992 81.26.147.14"/><path stroke-width=".6188616" fill="none" stroke="#b01d26" d="M116.139 81.4a.363.363 0 0 0 .09.092"/><path stroke-width=".6188616" fill="none" stroke="#851a23" d="M116.23 81.492c.055.057.112.11.17.163.046.04.092.082.14.128.037.038.084.08.137.13.102.092.283.268.545.527.034.034.097.094.19.182.083.08.165.163.245.247"/><path stroke-width=".6188616" fill="none" stroke="#b01d26" d="M117.657 82.87c.104.112.212.22.325.324"/><path stroke-width=".6188616" fill="none" stroke="#851a23" d="M117.983 83.194c.085.098.145.165.179.2.22.226.434.458.641.694a30.085 30.085 0 0 1 .65.802c.227.302.456.602.687.901.006.007.016.013.03.018l.05.014"/><path stroke-width=".6188616" fill="none" stroke="#f68c95" d="m120.22 85.823-.034.002c-.004 0-.007.002-.008.007a.083.083 0 0 0 .002.033.055.055 0 0 0 .02.026.316.316 0 0 1 .036.035 140.34 140.34 0 0 0 .564.65c.286.315.568.632.846.953l.185.221c.137.162.268.328.392.5l.027.034c.012.014.022.03.03.048.006.012.003.022-.008.03-.114.075-.222.144-.326.208a4.61 4.61 0 0 0-.438.303c-.16.125-.284.217-.374.276a3.28 3.28 0 0 1-.247.148c-.1.053-.188.104-.265.153a1.21 1.21 0 0 0-.222.186 3.035 3.035 0 0 0-.166.203 4.005 4.005 0 0 1-.353.401"/><path stroke-width=".6188616" fill="none" stroke="#df505c" d="M119.88 90.24c-.03.032-.025.045.013.04"/><path stroke-width=".6188616" fill="none" stroke="#855337" d="M119.893 90.28a.14.14 0 0 1-.06.024.012.012 0 0 0-.008.006.186.186 0 0 1-.03.042.239.239 0 0 0-.03.039.768.768 0 0 1-.065.095"/><path stroke-width=".6188616" fill="none" stroke="#b01d26" d="M119.7 90.486a.65.65 0 0 0-.085.118l-.037.057a.238.238 0 0 0-.028.063"/><path stroke-width=".6188616" fill="none" stroke="#855337" d="M119.55 90.724a2.528 2.528 0 0 0-.154.2.508.508 0 0 1-.15.129"/><path stroke-width=".6188616" fill="none" stroke="#b01d26" d="M119.247 91.053a.064.064 0 0 0-.06.044"/><path stroke-width=".6188616" fill="none" stroke="#855337" d="M119.186 91.097a.035.035 0 0 1-.026.017.025.025 0 0 0-.012.005 1.393 1.393 0 0 0-.063.054c-.02.018-.041.036-.063.053a.636.636 0 0 0-.055.05.633.633 0 0 1-.054.049l-.09.071a.63.63 0 0 0-.083.08l-.068.078a.688.688 0 0 0-.06.085.725.725 0 0 1-.345.295"/><path stroke-width=".6188616" fill="none" stroke="#b03d3b" d="M118.267 91.934a.15.15 0 0 0-.071.028.022.022 0 0 1-.012.004.076.076 0 0 0-.057.028"/><path stroke-width=".6188616" fill="none" stroke="#855337" d="M118.127 91.995a.848.848 0 0 0-.103.049.125.125 0 0 1-.044.013.106.106 0 0 0-.044.015.102.102 0 0 1-.042.018.023.023 0 0 0-.011.005.137.137 0 0 1-.064.026c-.016.003-.016.004 0 .006.003 0 .003 0 .003.002l-.001.003c-.002.003-.004.005-.008.006a.344.344 0 0 0-.147.059.036.036 0 0 1-.011.004.02.02 0 0 0-.018.018c0 .004-.003.006-.007.007a.056.056 0 0 0-.042.022.021.021 0 0 1-.01.007l-.033.011a.02.02 0 0 0-.01.007.03.03 0 0 1-.021.013.035.035 0 0 0-.013.004.755.755 0 0 1-.133.06.155.155 0 0 0-.045.027.209.209 0 0 1-.055.032.03.03 0 0 0-.01.007.07.07 0 0 1-.037.02.014.014 0 0 0-.01.007c-.006.01-.017.016-.032.018a.134.134 0 0 0-.06.025.052.052 0 0 1-.012.004.011.011 0 0 0-.009.01c0 .004-.003.007-.007.008l-.112.048c-.004.002-.004.004 0 .006.01.007.004.009-.016.007h-.013a.093.093 0 0 0-.057.027.087.087 0 0 1-.038.023c-.02.006-.033.014-.036.024a.024.024 0 0 1-.006.012.3.3 0 0 1-.074.052.571.571 0 0 1-.029.007.037.037 0 0 0-.024.02c-.002.002-.001.003.002.003.041-.001.042 0 .002.004-.001 0-.001 0 0 0 .023.002.022.005-.003.009-.02.002-.045.017-.07.043"/><path stroke-width=".6188616" fill="none" stroke="#b03d3b" d="M116.616 92.793c-.024-.005-.043.001-.057.02a.016.016 0 0 1-.01.006.102.102 0 0 0-.045.022.218.218 0 0 1-.079.04.032.032 0 0 0-.011.005c-.018.013-.016.018.004.015a.075.075 0 0 0 .012-.004c.009-.003.017-.004.026-.003"/><path stroke-width=".6188616" fill="none" stroke="#855337" d="m116.456 92.894-.048.026a.024.024 0 0 1-.012.002c-.007 0-.011.002-.014.006a.035.035 0 0 1-.008.01l-.064.03c-.006.002-.009.004-.01.006l-.003.009c0 .002 0 .003.002.003.008 0 .008.002.002.003a.42.42 0 0 1-.108.05.015.015 0 0 0-.01.007l-.03.062a.023.023 0 0 0-.002.012.022.022 0 0 1-.01.023.101.101 0 0 1-.054.017.016.016 0 0 0-.012.005l-.023.024a.012.012 0 0 1-.01.004c-.011-.001-.017.002-.017.01a.028.028 0 0 1-.004.013.079.079 0 0 1-.037.03.014.014 0 0 0-.008.01.111.111 0 0 1-.049.06.489.489 0 0 0-.032.023.178.178 0 0 1-.037.021.187.187 0 0 0-.065.057.096.096 0 0 1-.04.031c-.005.002-.007.004-.007.008l-.007.094"/><path stroke-width=".6188616" fill="none" stroke="#bb5554" d="M115.867 92.619a.101.101 0 0 0 .026-.077"/><path stroke-width=".6188616" fill="none" stroke="#df505c" d="M115.94 92.38c.004.019.008.018.013-.003a.993.993 0 0 1 .019-.068l.009-.02a.053.053 0 0 0 .002-.036"/><path stroke-width=".6188616" fill="none" stroke="#bb5554" d="M116.023 92.13a.174.174 0 0 0 .034-.104m.023-.073a.129.129 0 0 0 .018-.093m.013-.044a.054.054 0 0 0 .018-.05v-.012l.004-.027"/><path stroke-width=".6188616" fill="none" stroke="#df505c" d="M116.319 90.902a.164.164 0 0 0 .015-.09c0-.005 0-.009.004-.012a.022.022 0 0 0 .005-.015.19.19 0 0 1 0-.02.287.287 0 0 0 .003-.092"/><path stroke-width=".6188616" fill="none" stroke="#bb5554" d="M116.373 90.474a.384.384 0 0 0 .029-.162l-.006-.31c.002-.003.003-.002.004.001.005-.056.009-.112.01-.168a.58.58 0 0 1 .005-.059.465.465 0 0 0 .003-.059c0-.04 0-.07.002-.088.01-.113.013-.227.008-.34m.015-.16a.141.141 0 0 0 .018-.102m.047-.334c.007-.017.01-.016.01.002 0 .008 0 .008.002 0l.005-.069m.07-.308a.07.07 0 0 0 .022-.07m.034-.133c.01.022.014.023.014 0 0-.002 0-.005.002-.008a.112.112 0 0 0 .008-.065m.005-.02.002.012c0 .009.002.009.005 0l.02-.072m.145-.67a.449.449 0 0 0 .008-.221"/><path stroke-width=".6188616" fill="none" stroke="#df505c" d="m115.975 83.577-.015-.17c-.002-.02-.004-.02-.004-.003a.753.753 0 0 0-.002.06"/><path stroke-width=".6188616" fill="none" stroke="#5daa7c" d="M131.946 92.084c.092.017.184.027.277.03m.116.1c.006.021.012.041.016.062a.383.383 0 0 1 .003.034c0 .012.005.023.012.033a.017.017 0 0 1 .004.012c0 .018.002.033.005.043.016.05.022.1.017.153a.936.936 0 0 0 .019.167c0 .004.002.008.006.011.012.011.017.008.016-.008a.093.093 0 0 1-.002-.014.314.314 0 0 0-.009-.081"/><path stroke-width=".6188616" fill="none" stroke="#437545" d="M116.456 92.894a.54.54 0 0 0 .086-.052.24.24 0 0 1 .04-.02.08.08 0 0 0 .034-.03m1.51-.797a.178.178 0 0 0 .077-.023.031.031 0 0 1 .012-.004.06.06 0 0 0 .052-.034"/><path stroke-width=".6188616" fill="none" stroke="#435530" d="m119.186 91.097.06-.044m.304-.329a.183.183 0 0 0 .041-.052l.027-.048c.028-.045.056-.09.082-.138"/><path stroke-width=".6188616" fill="none" stroke="#728866" d="M119.893 90.28a.375.375 0 0 1 .097-.03"/><path stroke-width=".6188616" fill="none" stroke="#4e544a" d="m132.216 88.004-.08-.005"/><path stroke-width=".6188616" fill="none" stroke="#898b8b" d="M132.135 87.999c-.03-.02-.054-.03-.071-.03a13.47 13.47 0 0 1-.834-.007 3.728 3.728 0 0 1-.488-.047c-.199-.036-.399-.067-.599-.094-.096-.013-.34-.027-.729-.043l-.368-.018a2.074 2.074 0 0 1-.602-.115 6.203 6.203 0 0 0-.309-.104 3.003 3.003 0 0 0-.533-.105 29.857 29.857 0 0 1-.574-.072 3.836 3.836 0 0 1-.26-.042 4.029 4.029 0 0 1-.598-.172c-.14-.052-.278-.103-.418-.152a5.046 5.046 0 0 0-.98-.236l-.157-.022a6.799 6.799 0 0 1-.675-.128 30.794 30.794 0 0 1-.221-.049 225.607 225.607 0 0 1-1.845-.435 51.85 51.85 0 0 0-.884-.19c-.199-.041-.373-.069-.522-.082a2.094 2.094 0 0 1-.248-.033"/><path stroke-width=".6188616" fill="none" stroke="#431c1c" d="M117.983 83.194a.433.433 0 0 0-.073-.086l-.057-.053a8.918 8.918 0 0 1-.167-.17c-.01-.011-.02-.016-.029-.016m-1.427-1.377a.26.26 0 0 0-.091-.093m-.147-.139a.193.193 0 0 0-.09-.087"/><path stroke-width=".6188616" fill="none" stroke="#bfc5bc" d="M132.135 87.999c.033.006.051.025.056.058"/><path stroke-width=".6188616" fill="none" stroke="#cee2da" d="M132.298 91.91a.316.316 0 0 0-.01.158c0 .004.003.006.007.007.02 0 .035.01.043.029.002.006 0 .01-.005.012-.014.006-.018.016-.01.032.01.021.015.043.016.067"/><path stroke-width=".6188616" fill="none" stroke="#89c49f" d="M132.339 92.215a.037.037 0 0 1-.015-.032.019.019 0 0 0-.004-.012l-.026-.035a.024.024 0 0 0-.01-.009.156.156 0 0 0-.06-.014"/><path stroke-width=".6188616" fill="none" stroke="#cee2da" d="M132.223 92.113c.032-.004.034-.007.007-.01a.62.62 0 0 0-.051-.004.45.45 0 0 1-.051-.006.895.895 0 0 0-.182-.009"/><path stroke-width=".6188616" fill="none" stroke="#89c49f" d="M131.946 92.084a17.137 17.137 0 0 0-.426-.034c-.278-.012-.556-.03-.833-.054l-.995-.099a2.29 2.29 0 0 1-.303-.056 6.012 6.012 0 0 1-.252-.074 3.27 3.27 0 0 0-.446-.103c-.12-.02-.239-.038-.36-.054a3.99 3.99 0 0 1-.696-.165 2.145 2.145 0 0 1-.572-.283 2.39 2.39 0 0 0-.088-.06l-.09-.058a1.188 1.188 0 0 0-.593-.203 4.903 4.903 0 0 0-.47-.01.888.888 0 0 1-.144-.008 4.996 4.996 0 0 0-.628-.05 4.182 4.182 0 0 1-.601-.056 1.882 1.882 0 0 0-.116-.014 1.388 1.388 0 0 1-.117-.015 14.285 14.285 0 0 1-.546-.107 12.39 12.39 0 0 0-1.023-.188 3.578 3.578 0 0 0-.261-.026 9.6 9.6 0 0 1-.406-.033 6.448 6.448 0 0 0-.403-.05l-.417-.011a1.401 1.401 0 0 1-.153-.012 9.205 9.205 0 0 1-.153-.021 2.637 2.637 0 0 0-.23-.026c-.213-.011-.424 0-.634.036"/><path stroke-width=".6188616" fill="none" stroke="#e3c1c3" d="M119.99 90.25c-.025 0-.05.002-.076.004a.232.232 0 0 0-.016.005c-.01.002-.016-.004-.017-.019"/><path stroke-width=".6188616" fill="none" stroke="#93ab99" d="M132.39 92.268a.35.35 0 0 0 .016.125"/><path stroke-width=".6188616" fill="none" stroke="#4ab68a" d="M116.824 86.88c0-.012-.002-.016-.004-.012a1.253 1.253 0 0 0 .005.012"/><path stroke-width=".6188616" fill="none" stroke="#fafcfc" d="M123.498 87.79c.007 0 .01-.003.009-.01-.003-.02-.016-.031-.037-.034-.003 0-.007-.002-.01-.006l-.024-.027a.035.035 0 0 1-.008-.01.133.133 0 0 1 .002-.063.017.017 0 0 0-.003-.013c-.016-.026-.035-.036-.057-.033a.03.03 0 0 0-.027.023.066.066 0 0 0-.002.038.016.016 0 0 1-.002.012c-.032.054-.011.085.062.092a.04.04 0 0 1 .028.013c.012.014.035.02.07.018"/><path d="M114.947 80.3a.33.33 0 0 1 .058.079c.003.006.008.009.013.008l.056-.006a.3.3 0 0 1 .106.065c.015.016.033.03.052.041a.69.69 0 0 1 .117.088.465.465 0 0 1-.194-.065.191.191 0 0 0-.074-.023.027.027 0 0 1-.012-.004c-.028-.019-.052-.016-.073.009-.002.003-.002.006 0 .01a.02.02 0 0 1 .003.01 1.393 1.393 0 0 1-.163-.137.116.116 0 0 1-.032-.088c0-.02.006-.033.019-.038.009-.004.02-.003.037.001a.21.21 0 0 1 .087.05z" fill="#cc858a"/><path d="M114.947 80.3c.046.022.088.049.127.081l-.056.006c-.005 0-.01-.002-.013-.008a.319.319 0 0 0-.058-.08z" fill="#848e7b"/><path d="m115.35 80.575.048.026-.033-.001c-.005 0-.007.002-.007.007l-.002.088c0 .004.002.008.006.011a.68.68 0 0 0 .059.036.495.495 0 0 1 .088.07c.023.02.047.038.072.056.026.018.049.039.068.061a.75.75 0 0 0 .057.06l.06.057c.043.044.088.087.136.127.027.032.057.061.09.087l.147.14a.36.36 0 0 0 .09.092c.056.057.113.11.171.163.046.04.092.082.14.128.037.038.084.08.137.13.102.092.283.268.545.527.034.034.097.094.19.182.083.08.165.163.245.247.104.113.212.221.325.325.086.098.146.165.18.2.22.226.433.458.641.694a30.085 30.085 0 0 1 .65.802c.227.302.456.602.687.901.006.007.016.013.03.018l.05.014-.034.002c-.004 0-.007.002-.008.007a.083.083 0 0 0 .002.033.055.055 0 0 0 .02.026.316.316 0 0 1 .036.035 140.34 140.34 0 0 0 .564.65c.286.315.568.632.846.953l.185.221c.137.162.268.328.392.5l.027.034c.012.014.022.03.03.048.006.012.003.022-.008.03-.108.07-.216.14-.326.208a4.61 4.61 0 0 0-.438.303c-.16.125-.284.217-.374.276-.088.057-.17.106-.247.148-.1.053-.188.104-.265.153a1.21 1.21 0 0 0-.222.186 3.04 3.04 0 0 0-.166.203 4.005 4.005 0 0 1-.353.401c-.03.032-.026.045.012.04a.14.14 0 0 1-.06.024.012.012 0 0 0-.008.006.185.185 0 0 1-.03.042.239.239 0 0 0-.03.039.768.768 0 0 1-.065.095.648.648 0 0 0-.085.118l-.037.057a.239.239 0 0 0-.028.063 2.524 2.524 0 0 0-.154.2.508.508 0 0 1-.15.129.064.064 0 0 0-.06.044.035.035 0 0 1-.026.017.025.025 0 0 0-.012.005 1.39 1.39 0 0 0-.063.054c-.02.018-.041.036-.063.053a.635.635 0 0 0-.055.05.632.632 0 0 1-.054.049l-.09.071a.631.631 0 0 0-.083.079l-.068.079a.692.692 0 0 0-.06.085.725.725 0 0 1-.345.295.15.15 0 0 0-.071.028.022.022 0 0 1-.012.004.076.076 0 0 0-.057.028.99.99 0 0 0-.103.05.125.125 0 0 1-.044.013.106.106 0 0 0-.044.015.102.102 0 0 1-.042.018.023.023 0 0 0-.012.005.137.137 0 0 1-.063.026c-.016.003-.016.004 0 .006.003 0 .003 0 .003.002l-.001.003c-.002.003-.004.005-.008.006a.343.343 0 0 0-.147.059.036.036 0 0 1-.011.004.02.02 0 0 0-.018.018c0 .004-.003.006-.007.007a.056.056 0 0 0-.042.022.021.021 0 0 1-.01.007l-.033.011a.02.02 0 0 0-.01.007.03.03 0 0 1-.021.013.036.036 0 0 0-.013.004.755.755 0 0 1-.133.06.155.155 0 0 0-.045.027.209.209 0 0 1-.055.032.03.03 0 0 0-.01.007.07.07 0 0 1-.037.02.014.014 0 0 0-.01.007c-.006.01-.017.016-.032.018a.134.134 0 0 0-.06.024.052.052 0 0 1-.012.005.011.011 0 0 0-.009.01c0 .003-.003.007-.007.008l-.112.048c-.004.002-.004.004 0 .006.01.007.004.009-.016.007h-.013a.093.093 0 0 0-.057.027.087.087 0 0 1-.038.023c-.02.006-.033.014-.036.024a.024.024 0 0 1-.006.012.3.3 0 0 1-.074.052.569.569 0 0 1-.029.007.037.037 0 0 0-.024.02c-.002.002-.001.003.002.003.041-.001.042 0 .002.004-.001 0-.001 0 0 0 .023.002.022.005-.003.008-.02.003-.045.018-.07.044-.025-.005-.044.001-.058.02a.016.016 0 0 1-.01.006.103.103 0 0 0-.045.022.219.219 0 0 1-.079.04.032.032 0 0 0-.011.005c-.018.013-.016.018.004.015a.076.076 0 0 0 .012-.004c.008-.003.017-.004.026-.003l-.048.026a.023.023 0 0 1-.012.002c-.007 0-.011.002-.014.006a.035.035 0 0 1-.008.01l-.064.03c-.006.002-.009.004-.01.006l-.003.009c0 .002 0 .003.002.003.008 0 .008.002.002.003a.42.42 0 0 1-.108.05.015.015 0 0 0-.01.007l-.03.062a.023.023 0 0 0-.002.012.022.022 0 0 1-.01.023.101.101 0 0 1-.054.017.016.016 0 0 0-.012.005l-.023.024a.012.012 0 0 1-.01.004c-.011-.001-.017.002-.017.01a.028.028 0 0 1-.004.013.079.079 0 0 1-.037.03.014.014 0 0 0-.008.01.111.111 0 0 1-.049.06.491.491 0 0 0-.032.023.178.178 0 0 1-.037.02.187.187 0 0 0-.065.058.096.096 0 0 1-.04.031c-.005.002-.007.004-.007.008l-.007.094a.559.559 0 0 1-.227.057c-.016 0-.024-.007-.025-.02 0-.01.003-.019.008-.027.027-.046.048-.086.063-.122.086-.22.171-.439.253-.659.018-.054.036-.107.056-.16a.101.101 0 0 0 .026-.077l.047-.163c.004.02.008.019.013-.002a.999.999 0 0 1 .019-.068l.008-.02a.053.053 0 0 0 .003-.036l.04-.123a.174.174 0 0 0 .034-.104l.023-.073a.129.129 0 0 0 .018-.093l.013-.043a.054.054 0 0 0 .018-.05v-.013l.004-.027c.017-.054.028-.099.035-.135a3.544 3.544 0 0 1 .046-.216c.001.013.003.014.005.002.014-.097.033-.193.057-.289a.458.458 0 0 0 .01-.054.334.334 0 0 1 .011-.054.398.398 0 0 0 .022-.08.164.164 0 0 0 .015-.09c0-.004 0-.007.004-.01a.022.022 0 0 0 .005-.016.19.19 0 0 1 0-.02.287.287 0 0 0 .003-.092.74.74 0 0 0 .018-.11c0-.007.003-.021.008-.044a.115.115 0 0 0 0-.045.384.384 0 0 0 .03-.162l-.006-.31c.002-.003.003-.002.004.001a2.46 2.46 0 0 0 .01-.168c0-.014.002-.034.005-.059a.464.464 0 0 0 .003-.059c0-.04 0-.07.002-.088.01-.113.013-.227.008-.34a.16.16 0 0 0 .005-.07c-.003-.03 0-.06.01-.09a.141.141 0 0 0 .018-.102l.01-.05a.379.379 0 0 0 .005-.052.53.53 0 0 1 .024-.145c-.004-.033-.003-.044.002-.032a.103.103 0 0 1 .006-.055c.007-.017.01-.016.01.002 0 .008 0 .008.002 0l.005-.069a3.68 3.68 0 0 1 .07-.308.07.07 0 0 0 .022-.07l.034-.133c.01.022.014.023.014 0 0-.002 0-.005.002-.008a.112.112 0 0 0 .008-.065.04.04 0 0 1 .005-.02l.002.012c0 .009.003.009.005 0l.02-.072a1.54 1.54 0 0 1 .046-.13c.018-.042.033-.086.045-.13.013-.05.02-.101.026-.153a1.309 1.309 0 0 0 0-.1.377.377 0 0 1 .028-.157.449.449 0 0 0 .008-.221 1.845 1.845 0 0 1-.016-.155.427.427 0 0 0-.013-.069.252.252 0 0 1-.007-.071.013.013 0 0 0-.004-.01c-.01-.01-.013-.022-.011-.038a.588.588 0 0 0 .002.117 2.156 2.156 0 0 1-.013-.103.195.195 0 0 0-.011-.04.11.11 0 0 1-.006-.042.423.423 0 0 0-.02-.144 3.167 3.167 0 0 1-.038-.125 1.46 1.46 0 0 0-.038-.125 7.562 7.562 0 0 0-.067-.175l-.015-.024a.041.041 0 0 1-.006-.02c0-.008-.001-.015-.003-.021a13.125 13.125 0 0 0-.15-.416 1.452 1.452 0 0 1-.062-.193 5.799 5.799 0 0 0-.041-.17 4.694 4.694 0 0 1-.079-.32 1.752 1.752 0 0 0-.052-.178 1.345 1.345 0 0 1-.041-.2 2.474 2.474 0 0 0-.074-.39.973.973 0 0 1-.028-.14 1.62 1.62 0 0 0-.033-.204 3.229 3.229 0 0 1-.059-.237l-.015-.17c-.002-.021-.004-.022-.004-.004a.744.744 0 0 0-.002.06 1.388 1.388 0 0 1-.018-.12c-.004-.04-.01-.08-.017-.12-.02-.092-.038-.185-.056-.277l-.039-.229a2.043 2.043 0 0 0-.065-.273 1.63 1.63 0 0 1-.041-.187 1.92 1.92 0 0 0-.042-.186 11.575 11.575 0 0 1-.053-.197 2.812 2.812 0 0 0-.058-.194 30.946 30.946 0 0 1-.092-.275 2.904 2.904 0 0 0-.312-.665l-.054-.089a.78.78 0 0 0-.108-.14.02.02 0 0 0-.002-.01c-.003-.004-.003-.007 0-.01.02-.025.044-.028.072-.01a.026.026 0 0 0 .012.005.2.2 0 0 1 .074.023c.063.037.128.059.194.065z" fill="#f21b2d"/><path d="M115.398 80.601c.053.026.17.081.352.165.05.023.097.037.143.043l.047.005c.061.01.122.026.18.045l.106.036.613.188.253.072c.334.089.754.2 1.26.33.152.04.293.074.42.102.047.01.1.024.158.04.061.018.114.03.158.04.065.011.122.024.171.036.14.034.28.067.42.098.036.01.09.02.156.031l.105.02.104.025.602.127.136.031c.042.01.084.018.127.025l.128.022c.22.045.44.087.659.128.043.008.117.024.223.047.05.011.099.021.149.03.06.01.11.02.149.03l.603.143c.23.055.445.113.642.173.186.057.353.15.501.28.18.158.379.273.596.345.077.025.182.053.313.084.213.05.416.11.608.179.084.03.206.076.366.138.155.06.315.107.479.142.04.008.136.017.29.026.058.004.116.01.176.022.09.016.15.024.177.025.1.004.182.015.245.033.08.023.166.039.262.046a2.269 2.269 0 0 1 .178.024c.138.03.278.045.42.044.078-.001.157.004.235.015l.17.024c.098.01.196.013.294.012.254-.002.474-.008.66-.018a5.63 5.63 0 0 1 .475-.004c.049.002.113.008.193.02.081.013.174.023.278.031.074.007.16.023.255.05.02.005.051.01.09.016l.09.012c.15.026.295.07.434.129.182.082.362.17.54.26.097.052.193.093.287.127.138.048.272.097.402.148.02.007.028.021.024.042a.645.645 0 0 1-.036.123c-.059.149-.12.296-.184.442-.118.27-.204.477-.26.619a2.757 2.757 0 0 0-.074.235 1.05 1.05 0 0 0-.033.229 3.429 3.429 0 0 0 .034.65c.008.063.023.125.041.186l.043.136c.02.066.043.132.07.197.01.028.03.066.055.112.02.037.039.073.056.112l.012.02c.011.02.008.04-.008.058l-.08-.005c-.03-.02-.055-.03-.072-.03-.278.006-.556.004-.834-.007a3.727 3.727 0 0 1-.488-.047c-.199-.036-.399-.067-.599-.094-.096-.013-.34-.027-.729-.043l-.368-.018a2.074 2.074 0 0 1-.602-.115 6.203 6.203 0 0 0-.309-.104 3.003 3.003 0 0 0-.533-.105 29.857 29.857 0 0 1-.574-.072 3.839 3.839 0 0 1-.26-.042 4.03 4.03 0 0 1-.598-.172 22.15 22.15 0 0 0-.418-.152 5.046 5.046 0 0 0-.98-.237l-.157-.021a6.8 6.8 0 0 1-.675-.128 31.245 31.245 0 0 1-.221-.049 208.023 208.023 0 0 1-1.845-.435c-.294-.066-.589-.13-.884-.19-.199-.041-.373-.069-.522-.082a2.094 2.094 0 0 1-.248-.033l-.05-.014a.057.057 0 0 1-.03-.018c-.231-.299-.46-.599-.687-.9a33.094 33.094 0 0 0-.48-.601 6.568 6.568 0 0 0-.17-.202 18.96 18.96 0 0 0-.641-.694 5.18 5.18 0 0 1-.18-.2.433.433 0 0 0-.072-.087l-.057-.053a8.866 8.866 0 0 1-.167-.17c-.01-.01-.02-.015-.029-.015a6.638 6.638 0 0 0-.246-.247 16.671 16.671 0 0 1-.19-.182 21.556 21.556 0 0 0-.682-.657 3.5 3.5 0 0 0-.139-.128 3.081 3.081 0 0 1-.17-.163.26.26 0 0 0-.091-.093l-.147-.139a.193.193 0 0 0-.09-.087 2.102 2.102 0 0 1-.137-.127l-.06-.057a.827.827 0 0 1-.056-.06.378.378 0 0 0-.068-.06.696.696 0 0 1-.072-.058.487.487 0 0 0-.088-.069.64.64 0 0 1-.06-.036.012.012 0 0 1-.005-.01l.002-.09c0-.004.002-.006.007-.006l.033.001z" fill="#181919"/><path d="M115.902 81.173c.04.02.07.049.09.087a.557.557 0 0 1-.09-.087zm.237.226a.26.26 0 0 1 .09.093.354.354 0 0 1-.09-.093zm1.518 1.47c.01 0 .02.005.03.016.023.025.079.082.166.17l.057.053a.43.43 0 0 1 .072.086 5.066 5.066 0 0 1-.325-.325z" fill="#6e1f1e"/><path d="M115.975 83.577a.2.2 0 0 1-.021-.114l.001-.059c.001-.018.003-.017.004.003l.016.17z" fill="#cc858a"/><path d="M120.22 85.823c.058.013.14.024.248.033.149.013.323.04.522.082a50.553 50.553 0 0 1 1.14.25c.529.127 1.058.252 1.588.375.148.032.295.064.442.098.097.022.249.048.455.079l.157.022c.334.046.66.125.98.237.14.049.279.099.418.15.195.074.395.131.599.173.066.014.153.028.26.042.289.038.48.063.573.072.19.02.367.056.533.105.072.021.175.056.309.104.182.066.382.104.602.115l.368.018c.39.016.633.03.729.043.137.017.337.048.6.094.14.024.302.04.487.047.278.011.556.013.834.007.017 0 .041.01.071.03.033.006.051.025.056.058l.006.133c.002.04.008.08.017.12.039.15.06.244.065.283.01.084.024.167.041.25.043.207.08.434.111.678a.74.74 0 0 1 0 .201 5.27 5.27 0 0 0-.032.29c-.006.08-.016.158-.03.235a1.836 1.836 0 0 1-.075.25.405.405 0 0 0-.016.161c.004.07.007.138.008.207.004.267.014.534.028.801 0 .082-.006.163-.016.244a.316.316 0 0 0-.01.158c0 .004.003.006.007.007.02 0 .035.01.043.029.002.006 0 .01-.005.012-.014.006-.018.016-.01.032.01.021.015.043.016.067a.037.037 0 0 1-.015-.032.019.019 0 0 0-.004-.012l-.026-.035a.024.024 0 0 0-.01-.009.156.156 0 0 0-.06-.014c.031-.004.033-.007.006-.01a.622.622 0 0 0-.051-.004.45.45 0 0 1-.051-.006.895.895 0 0 0-.182-.009 17.077 17.077 0 0 0-.426-.034c-.278-.012-.556-.03-.833-.054l-.995-.099a2.286 2.286 0 0 1-.303-.056 5.999 5.999 0 0 1-.252-.074 3.27 3.27 0 0 0-.446-.103c-.12-.02-.239-.038-.36-.054a3.99 3.99 0 0 1-.696-.165 2.146 2.146 0 0 1-.572-.283 2.393 2.393 0 0 0-.088-.06 7.74 7.74 0 0 1-.09-.058 1.188 1.188 0 0 0-.593-.203 4.9 4.9 0 0 0-.47-.01.885.885 0 0 1-.144-.008 4.996 4.996 0 0 0-.628-.05 4.183 4.183 0 0 1-.601-.056 1.874 1.874 0 0 0-.116-.014 1.39 1.39 0 0 1-.117-.015 14.27 14.27 0 0 1-.546-.107 12.39 12.39 0 0 0-1.023-.188 3.589 3.589 0 0 0-.261-.026 9.6 9.6 0 0 1-.406-.033 6.447 6.447 0 0 0-.403-.05l-.417-.011a1.4 1.4 0 0 1-.153-.012 9.218 9.218 0 0 1-.153-.021 2.639 2.639 0 0 0-.23-.026 2.87 2.87 0 0 0-.634.036c-.025 0-.05.002-.076.004a.218.218 0 0 0-.016.005c-.01.002-.016-.004-.017-.019.127-.126.244-.26.353-.4.08-.105.136-.173.166-.204.073-.076.147-.138.222-.186.077-.049.165-.1.265-.153.077-.042.16-.091.247-.148.09-.06.214-.151.374-.276.14-.11.286-.21.438-.303.11-.068.218-.137.326-.209.01-.007.014-.017.008-.03a.236.236 0 0 0-.03-.047l-.027-.035a8.913 8.913 0 0 0-.392-.5 31.012 31.012 0 0 1-.185-.22 52.416 52.416 0 0 0-.846-.953c-.06-.067-.119-.133-.174-.197l-.39-.453a.35.35 0 0 0-.037-.035.055.055 0 0 1-.02-.026.083.083 0 0 1 0-.033c0-.005.003-.007.007-.007l.034-.002zm3.278 1.967c.007 0 .01-.003.009-.01-.003-.02-.015-.031-.037-.034-.003 0-.007-.002-.01-.006l-.024-.027a.035.035 0 0 1-.008-.01.133.133 0 0 1 .002-.063.017.017 0 0 0-.003-.013c-.016-.026-.035-.036-.057-.033a.03.03 0 0 0-.027.023.066.066 0 0 0-.002.038.016.016 0 0 1-.002.012c-.032.054-.011.085.062.092a.04.04 0 0 1 .028.013c.012.014.035.02.07.018z" fill="#fafcfc"/><path d="M116.824 86.88c.004.038.006.075.006.113a2.138 2.138 0 0 0-.01-.118v-.007c.002-.004.003 0 .004.013zm.036.19a.449.449 0 0 1-.008.222l-.005-.222c0-.006 0-.006.002 0 .005.02.009.02.01 0z" fill="#848e7b"/><path d="M123.498 87.79c-.034.001-.057-.004-.07-.018a.04.04 0 0 0-.027-.013c-.073-.007-.094-.038-.062-.093a.016.016 0 0 0 .002-.012.066.066 0 0 1 .002-.037.03.03 0 0 1 .027-.023c.022-.003.04.007.057.033a.019.019 0 0 1 .003.013.133.133 0 0 0-.002.063.035.035 0 0 0 .008.01l.024.027c.003.004.007.006.01.006.022.003.034.014.037.035 0 .006-.002.01-.009.01z" fill="#fafcfc"/><path d="m116.707 87.962-.02.072c-.002.009-.004.009-.005 0l-.002-.012a.14.14 0 0 1 .027-.06zm-.032.08a.112.112 0 0 1-.009.065.02.02 0 0 0-.001.008c0 .023-.004.022-.014 0l.024-.074zm-.058.206a.07.07 0 0 1-.022.07.198.198 0 0 1 .022-.07zm-.092.378-.005.069c-.001.008-.001.008-.001 0 0-.019-.004-.02-.01-.002a.085.085 0 0 1 .005-.057.028.028 0 0 0 .002-.007c.006-.033.01-.034.009-.003zm15.61-.627.08.005a.076.076 0 0 0-.024.053.064.064 0 0 0-.056-.058zm-15.674 1.028c.007.037 0 .07-.018.102 0-.035.006-.07.018-.102zm-.033.261a2.79 2.79 0 0 1-.008.341.977.977 0 0 0-.002.088c0 .02 0 .04-.003.059a.665.665 0 0 0-.005.059 2.454 2.454 0 0 1-.01.168c-.001-.003-.002-.004-.004-.001-.008.12-.017.24-.03.36 0-.006.002-.013.006-.018a.02.02 0 0 0 .004-.011 5.454 5.454 0 0 1 .031-.694c.006-.055.01-.114.012-.175.002-.059.005-.117.01-.176z" fill="#848e7b"/><path d="M131.946 92.084c.092.017.184.027.277.03.022 0 .042.005.062.013a.022.022 0 0 1 .01.009l.025.035a.02.02 0 0 1 .004.012.04.04 0 0 0 .015.032c.006.02.012.04.016.06a.38.38 0 0 1 .003.035c0 .012.005.023.012.033a.017.017 0 0 1 .004.012c0 .018.002.033.005.043.016.05.022.1.017.153a.936.936 0 0 0 .019.167c0 .004.002.008.006.011.012.011.017.008.016-.008a.093.093 0 0 1-.002-.014.315.315 0 0 0-.009-.081c.023.022.03.046.021.073a.024.024 0 0 0 .006.026.186.186 0 0 1 .049.1c0 .008.003.017.007.027.004.01.005.02.004.029a.314.314 0 0 0 .006.096l.011.053c.025.15.043.302.055.454.006.086.01.174.008.262 0 .12-.005.24-.013.36a1.05 1.05 0 0 1-.02.141c-.07.33-.18.647-.333.949a9.811 9.811 0 0 0-.201.43.2.2 0 0 1-.04.057.016.016 0 0 1-.01.005.114.114 0 0 1-.064-.016 1.164 1.164 0 0 1-.133-.08 24.74 24.74 0 0 1-.524-.4 2.87 2.87 0 0 0-.7-.41.857.857 0 0 0-.107-.035 26.23 26.23 0 0 1-.102-.026 1.507 1.507 0 0 0-.224-.045 1.692 1.692 0 0 0-.254-.004l-.254.01c-.109.005-.217.016-.325.033l-.187.037a2.478 2.478 0 0 1-.476.049c-.227 0-.414.006-.559.017a20.1 20.1 0 0 1-1.277.064 3.382 3.382 0 0 1-.482-.045l-.283-.046a9.02 9.02 0 0 0-.26-.038 70.183 70.183 0 0 1-.395-.054 3.05 3.05 0 0 0-.261-.024c-.184-.01-.343-.02-.476-.032a2.372 2.372 0 0 0-.223-.01l-.424.007a3.993 3.993 0 0 1-.473-.02 4.206 4.206 0 0 0-.654-.03c-.137.004-.273 0-.408-.014a25.524 25.524 0 0 1-.248-.027 2.915 2.915 0 0 1-.43-.082c-.395-.105-.782-.23-1.162-.378-.202-.08-.406-.157-.611-.23a3.187 3.187 0 0 0-.645-.142 4.927 4.927 0 0 0-.493-.04c-.087 0-.175.002-.262.007-.217.01-.434.014-.651.015a1.64 1.64 0 0 1-.274-.015 2.454 2.454 0 0 0-.252-.034l-.294-.024a3.222 3.222 0 0 1-.2-.026 2.04 2.04 0 0 0-.208-.02 11.558 11.558 0 0 1-.402-.025 4.014 4.014 0 0 0-.219-.011 19.744 19.744 0 0 1-.22-.008.584.584 0 0 0-.14.014l.006-.093c0-.004.002-.007.007-.009a.096.096 0 0 0 .04-.031.187.187 0 0 1 .065-.057.179.179 0 0 0 .037-.02.72.72 0 0 1 .032-.024.111.111 0 0 0 .049-.06.014.014 0 0 1 .008-.009.079.079 0 0 0 .037-.03.028.028 0 0 0 .003-.013c.001-.009.007-.012.017-.011.004 0 .008-.001.01-.004l.024-.024a.016.016 0 0 1 .012-.005c.019 0 .037-.006.053-.017a.022.022 0 0 0 .01-.023c0-.004 0-.008.002-.012l.032-.062a.015.015 0 0 1 .01-.008.42.42 0 0 0 .107-.049c.006-.001.006-.002-.002-.003-.002 0-.002-.001-.002-.003l.003-.009c.001-.002.004-.004.01-.007l.064-.03a.035.035 0 0 0 .008-.01c.003-.003.007-.005.013-.005.004 0 .009 0 .012-.002l.05-.026a.54.54 0 0 0 .085-.052.24.24 0 0 1 .04-.02.08.08 0 0 0 .034-.03c.026-.025.05-.04.07-.043.026-.003.027-.006.004-.008-.001 0-.001 0 0 0 .04-.004.04-.005-.002-.004-.003 0-.004 0-.003-.003a.037.037 0 0 1 .025-.02l.029-.007a.3.3 0 0 0 .074-.052.024.024 0 0 0 .006-.012c.003-.01.015-.018.036-.024a.087.087 0 0 0 .038-.023.093.093 0 0 1 .07-.027c.02.002.025 0 .016-.007-.004-.002-.004-.004 0-.006l.112-.048c.004-.001.006-.004.007-.009a.011.011 0 0 1 .01-.009.053.053 0 0 0 .01-.005.134.134 0 0 1 .06-.024c.016-.002.027-.008.033-.018a.014.014 0 0 1 .01-.008.07.07 0 0 0 .037-.02.031.031 0 0 1 .01-.006.209.209 0 0 0 .055-.032.154.154 0 0 1 .045-.027.755.755 0 0 0 .134-.06.035.035 0 0 1 .012-.004.03.03 0 0 0 .021-.013.02.02 0 0 1 .01-.007l.033-.01a.021.021 0 0 0 .01-.008.056.056 0 0 1 .042-.022c.004 0 .007-.003.007-.007a.02.02 0 0 1 .018-.018.036.036 0 0 0 .011-.004.343.343 0 0 1 .147-.06c.004 0 .006-.002.008-.005v-.003c.001-.002 0-.002-.002-.002-.016-.002-.016-.003 0-.006a.137.137 0 0 0 .063-.026.023.023 0 0 1 .012-.005.102.102 0 0 0 .042-.018.106.106 0 0 1 .044-.015.125.125 0 0 0 .044-.014.988.988 0 0 1 .103-.049.178.178 0 0 0 .076-.022.031.031 0 0 1 .012-.004.06.06 0 0 0 .052-.034.725.725 0 0 0 .345-.295.69.69 0 0 1 .06-.085l.068-.08a.605.605 0 0 1 .083-.078l.09-.071a.69.69 0 0 0 .054-.05.636.636 0 0 1 .055-.049c.027-.022.05-.04.063-.053.02-.019.042-.037.063-.054a.025.025 0 0 1 .012-.005.035.035 0 0 0 .026-.017l.06-.044a.508.508 0 0 0 .15-.129 2.682 2.682 0 0 1 .195-.252l.026-.048c.03-.045.057-.09.083-.138a.872.872 0 0 0 .065-.095.24.24 0 0 1 .03-.04.185.185 0 0 0 .03-.04.012.012 0 0 1 .009-.007.14.14 0 0 0 .059-.024.375.375 0 0 1 .097-.03 2.57 2.57 0 0 1 .863-.01l.154.021c.049.007.1.01.153.012l.417.01c.041.003.176.019.403.05.05.007.185.018.406.033.095.007.182.016.261.027.344.049.685.112 1.023.188.112.025.295.061.546.106.036.007.074.013.117.016.05.005.09.01.116.014.2.033.4.052.6.056a5.017 5.017 0 0 1 .63.05.865.865 0 0 0 .142.007c.157-.004.314 0 .47.011.217.016.415.083.594.203l.09.058.088.06c.176.123.367.217.572.282.26.085.493.14.697.167.12.015.24.033.36.053.15.024.3.058.445.103.133.041.217.066.252.074.12.03.221.048.303.056l.995.098c.191.019.469.037.834.055.051.003.193.014.425.034z" fill="#188b41"/><path d="M119.88 90.24c.002.015.008.021.018.019a.233.233 0 0 1 .016-.005.953.953 0 0 1 .076-.004.375.375 0 0 0-.097.03c-.038.005-.042-.008-.012-.04z" fill="#cc858a"/><path d="M119.7 90.486a2.799 2.799 0 0 1-.082.138l-.027.048a.184.184 0 0 1-.041.052.238.238 0 0 1 .028-.062l.037-.058a.63.63 0 0 1 .085-.118z" fill="#6e1f1e"/><path d="M116.346 90.673a.299.299 0 0 1-.002.091v.02a.022.022 0 0 1-.007.016.016.016 0 0 0-.004.011.164.164 0 0 1-.014.09c.005-.079.012-.158.02-.236.001-.016.004-.014.007.008z" fill="#cc858a"/><path d="m119.247 91.053-.06.044a.064.064 0 0 1 .06-.044z" fill="#6e1f1e"/><path d="m116.133 91.727-.003.027a.1.1 0 0 0 0 .013.054.054 0 0 1-.019.05.139.139 0 0 1 .022-.09zm-.035.133a.129.129 0 0 1-.018.093.065.065 0 0 1 .006-.049.119.119 0 0 0 .012-.044zm-.04.166a.174.174 0 0 1-.035.104.543.543 0 0 1 .03-.121c0-.027.002-.021.004.017z" fill="#848e7b"/><path d="M118.267 91.934a.06.06 0 0 1-.052.035.031.031 0 0 0-.012.003.178.178 0 0 1-.076.023.076.076 0 0 1 .057-.03.023.023 0 0 0 .012-.003.15.15 0 0 1 .071-.028z" fill="#6e5e48"/><path d="M115.983 92.253a.053.053 0 0 1-.002.037.393.393 0 0 0-.028.087c-.005.02-.01.022-.013.003l.043-.127z" fill="#cc858a"/><path d="M115.893 92.542a.101.101 0 0 1-.026.077.18.18 0 0 1 .026-.077z" fill="#848e7b"/><path d="M132.298 91.91a.178.178 0 0 1-.001.075.137.137 0 0 0-.004.036v.031c0 .004.003.007.007.008.027.01.044.028.052.056.014.05.027.1.037.152a.35.35 0 0 0 .017.125.127.127 0 0 0 .001.05c.01.052.017.113.019.183.007.026.01.053.01.08v.015c.002.016-.003.02-.015.008a.017.017 0 0 1-.006-.011.984.984 0 0 1-.02-.167.367.367 0 0 0-.016-.153.136.136 0 0 1-.005-.043.02.02 0 0 0-.004-.012.054.054 0 0 1-.012-.033.37.37 0 0 0-.002-.034c-.005-.02-.01-.041-.017-.061a.183.183 0 0 0-.017-.067c-.007-.016-.003-.026.011-.032.005-.003.007-.006.004-.012a.046.046 0 0 0-.042-.03c-.004 0-.007-.002-.008-.006a.316.316 0 0 1 .011-.158zm-.352.174a.896.896 0 0 1 .182.01.394.394 0 0 0 .05.004l.052.004c.027.004.025.008-.007.011a1.77 1.77 0 0 1-.277-.029z" fill="#a2c8b7"/><path d="M116.616 92.793a.08.08 0 0 1-.035.03.242.242 0 0 0-.039.02.553.553 0 0 1-.086.051.05.05 0 0 0-.026.003.074.074 0 0 1-.012.004c-.02.003-.022-.002-.004-.015a.032.032 0 0 1 .011-.006.218.218 0 0 0 .08-.04.102.102 0 0 1 .044-.02.016.016 0 0 0 .01-.007c.014-.019.033-.025.058-.02z" fill="#6e5e48"/><path d="M132.39 92.268c.02.04.025.08.016.125a.35.35 0 0 1-.017-.125z" fill="#848e7b"/></g></g></g></g></g></g></g></g></g></g></g></g></g></g><clipPath id="V"><path transform="scale(.24)" d="M395 704.206h263.333v203.77H395z" fill-rule="evenodd"/></clipPath><g clip-path="url(#V)"><path d="M94.944 217.914h62.912v-48.806l-.199.594-10.054 27.918-52.66 20.294z" fill="#d9c179"/><path d="M116.844 217.914h41.012v-48.806l-.298 1.09-8.96 28.016-31.754 19.7z" fill="#bca164"/><path d="M128.988 217.914h28.868v-48.806l-3.982 15.345-.1.099-1.194 4.455-.1.693-1.592 5.94-.299.99-.597 2.475-21.004 18.81z" fill="#3c4f75"/><path d="m149.295 200.392-19.909 17.522h28.47v-15.047l-7.466-3.465-1.095.99zM150.39 196.53l.2.1.497.198 6.77 3.168v-3.267l-5.974-2.772-.199-.1-.796 1.783-.498.89zm2.09-6.83.1-.693h.1l.597.297 4.58 2.178v3.267l-5.476-2.574-.199-.1.299-2.375zm1.295-5.148v-.099l.697.297 3.384 1.584v3.267l-4.18-1.98-.399-.198.498-2.871z" fill="#2b3c56"/><path d="M128.49 217.914h1.494l19.311-17.522 1.095-.99v-.198l.697-2.376.796-2.871.498-1.683.797-2.97.497-1.683.797-2.871 3.384-12.078v-3.663l-.199.693-.1.495-8.063 28.61-21.004 19.107z" fill="#f9f5dc"/></g><clipPath id="W"><path transform="scale(.24)" d="M0 649.624h263.333v259.503H0z" fill-rule="evenodd"/></clipPath><g clip-path="url(#W)"><path d="M17.45 218.208H0v-57.892l10.376 34.338.189.567.094.568.094.095.283 1.23 3.49 11.54 2.925 9.554z" fill="#404654"/><path d="M8.773 199.194 0 195.221V164.1l7.263 29.135h.095l.094.568.094.473.095.094.283 1.23.849 3.594z" fill="#2c323d"/><path d="M57.823 218.208H0v-27.527l7.546 3.595 3.113 1.513 47.164 22.42z" fill="#404654"/><path d="M55.465 218.208H0v-12.865l14.527 3.311 40.844 9.554h.094z" fill="#2c323d"/><path d="M58.767 218.208H55.37l-44.335-21.095-3.112-1.513L0 191.816v-1.608l7.452 3.595 3.113 1.418 48.202 22.987z" fill="#bca164"/><path d="M59.804 218.208h-2.17l-45.088-21.473-1.132-.568-.66-.283-3.113-1.514L0 190.775v-1.04l7.263 3.5 3.019 1.419.283.19 49.24 23.364zm-48.202-24.595L0 155.964v3.217l10.47 33.96.378 1.23 50.182 23.932h2.17l-51.598-24.69z" fill="#d9c179"/></g><clipPath id="X"><path transform="scale(.24)" d="M0 1.127h263.333V203.77H0z" fill-rule="evenodd"/></clipPath><g clip-path="url(#X)"><path d="M63.056.27H.144v48.806l.199-.594 10.054-27.917L63.057.27z" fill="#d9c179"/><path d="M41.156.27H.144v48.806l.298-1.089 8.96-28.016L41.156.27z" fill="#bca164"/><path d="M29.012.27H.144v48.806l3.982-15.344.1-.1 1.194-4.454.1-.693 1.592-5.94.299-.99.597-2.475L29.012.27z" fill="#3c4f75"/><path d="M8.705 17.793 28.614.27H.144v15.048l7.466 3.465 1.095-.99zM7.61 21.654l-.2-.1-.497-.197-6.77-3.168v3.267l5.974 2.772.199.099.796-1.782.498-.891zm-2.09 6.83-.1.694h-.1l-.597-.297-4.58-2.178v-3.267L5.62 26.01l.199.099-.299 2.376zm-1.295 5.149v.099l-.697-.297L.144 31.85v-3.267l4.18 1.98.399.198-.498 2.87z" fill="#2b3c56"/><path d="M29.51.27h-1.494L8.705 17.793l-1.095.99v.198l-.697 2.376-.796 2.87-.498 1.684-.797 2.97-.497 1.683-.797 2.87L.144 45.513v3.663l.199-.693.1-.495 8.063-28.61L29.51.27z" fill="#f9f5dc"/></g><clipPath id="Y"><path transform="scale(.24)" d="M395 0h263.333v259.464H395z" fill-rule="evenodd"/></clipPath><g clip-path="url(#Y)"><path d="M140.55-.027H158v57.892l-10.376-34.338-.189-.567-.094-.568-.094-.095-.283-1.23-3.49-11.54-2.925-9.554z" fill="#404654"/><path d="M149.227 18.987 158 22.96V54.08l-7.263-29.135h-.095l-.094-.568-.094-.472-.095-.095-.283-1.23-.849-3.594z" fill="#2c323d"/><path d="M100.177-.027H158V27.5l-7.546-3.594-3.113-1.514-47.164-22.42z" fill="#404654"/><path d="M102.535-.027H158v12.865l-14.527-3.311L102.63-.027h-.094z" fill="#2c323d"/><path d="M99.233-.027h3.396l44.335 21.095 3.112 1.513L158 26.365v1.608l-7.452-3.595-3.113-1.418L99.233-.027z" fill="#bca164"/><path d="M98.196-.027h2.17l45.088 21.473 1.132.568.66.283 3.113 1.514L158 27.406v1.04l-7.263-3.5-3.019-1.419-.283-.19L98.195-.026zm48.202 24.595L158 62.217V59l-10.47-33.96-.378-1.23L96.97-.121H94.8l51.598 24.69z" fill="#d9c179"/></g></svg>